<svg xmlns="http://www.w3.org/2000/svg" xmlns:xlink="http://www.w3.org/1999/xlink" xmlns:lucid="lucid" width="526" height="640"><g transform="translate(-344 -295)" lucid:page-tab-id="0_0"><path d="M417.03 347.73A10.4 10.4 0 0 1 427.1 340h128a6.15 6.15 0 0 1 5.93 7.73l-11.88 44.56a10.4 10.4 0 0 1-10.07 7.72h-128a6.15 6.15 0 0 1-5.93-7.73z" stroke="#000" stroke-width="2" fill="#fff"/><use xlink:href="#a" transform="matrix(1,0,0,1,408.08956879496213,345) translate(17.185185185185187 18.831944444444446)"/><use xlink:href="#b" transform="matrix(1,0,0,1,408.08956879496213,345) translate(52.530864197530875 18.831944444444446)"/><use xlink:href="#c" transform="matrix(1,0,0,1,408.08956879496213,345) translate(102.56790123456791 18.831944444444446)"/><use xlink:href="#d" transform="matrix(1,0,0,1,408.08956879496213,345) translate(46.13580246913581 37.49861111111112)"/><use xlink:href="#e" transform="matrix(1,0,0,1,408.08956879496213,345) translate(72.01851851851853 37.49861111111112)"/><use xlink:href="#f" transform="matrix(1,0,0,1,408.08956879496213,345) translate(81.4814814814815 37.49861111111112)"/><path d="M436.62 452.1a8 8 0 0 1 8-8h97.23a8 8 0 0 1 8 8v24a8 8 0 0 1-8 8h-97.23a8 8 0 0 1-8-8z" stroke="#000" stroke-width="2" fill="#fff3d9"/><use xlink:href="#g" transform="matrix(1,0,0,1,448.616769556748,456.09310053347565) translate(2.4629629629629584 13.866666666666667)"/><path d="M414.93 568a8 8 0 0 1 8-8h140.6a8 8 0 0 1 8 8v45.5a8 8 0 0 1-8 8h-140.6a8 8 0 0 1-8-8z" stroke="#000" stroke-width="2" fill="#cfe4ff"/><use xlink:href="#h" transform="matrix(1,0,0,1,426.925154335122,572) translate(22.129629629629623 16.241666666666667)"/><use xlink:href="#i" transform="matrix(1,0,0,1,426.925154335122,572) translate(53.944444444444436 16.241666666666667)"/><use xlink:href="#j" transform="matrix(1,0,0,1,426.925154335122,572) translate(29.49999999999999 32.24166666666667)"/><use xlink:href="#k" transform="matrix(1,0,0,1,426.925154335122,572) translate(59.09259259259259 32.24166666666667)"/><path d="M667.58 334.35a19.3 19.3 0 0 1 13.65-5.66h104a19.3 19.3 0 0 1 13.66 5.65l28.68 28.7a8 8 0 0 1 0 11.3l-28.7 28.7a19.3 19.3 0 0 1-13.65 5.64h-104a19.3 19.3 0 0 1-13.65-5.66l-28.7-28.7a8 8 0 0 1 0-11.3z" stroke="#000" stroke-width="2" fill="#fff"/><use xlink:href="#l" transform="matrix(1,0,0,1,638.233539113496,333.69231086680566) translate(36.208703703703705 16.054166666666667)"/><use xlink:href="#m" transform="matrix(1,0,0,1,638.233539113496,333.69231086680566) translate(51.76425925925926 16.054166666666667)"/><use xlink:href="#n" transform="matrix(1,0,0,1,638.233539113496,333.69231086680566) translate(93.9124074074074 16.054166666666667)"/><use xlink:href="#o" transform="matrix(1,0,0,1,638.233539113496,333.69231086680566) translate(120.54203703703703 16.054166666666667)"/><use xlink:href="#p" transform="matrix(1,0,0,1,638.233539113496,333.69231086680566) translate(69.4 32.05416666666667)"/><use xlink:href="#q" transform="matrix(1,0,0,1,638.233539113496,333.69231086680566) translate(95.32592592592593 32.05416666666667)"/><use xlink:href="#r" transform="matrix(1,0,0,1,638.233539113496,333.69231086680566) translate(27.129629629629633 48.054166666666674)"/><use xlink:href="#s" transform="matrix(1,0,0,1,638.233539113496,333.69231086680566) translate(41.94444444444445 48.054166666666674)"/><use xlink:href="#t" transform="matrix(1,0,0,1,638.233539113496,333.69231086680566) translate(77.46296296296296 48.054166666666674)"/><use xlink:href="#p" transform="matrix(1,0,0,1,638.233539113496,333.69231086680566) translate(99.64814814814815 48.054166666666674)"/><use xlink:href="#u" transform="matrix(1,0,0,1,638.233539113496,333.69231086680566) translate(125.57407407407408 48.054166666666674)"/><use xlink:href="#v" transform="matrix(1,0,0,1,638.233539113496,333.69231086680566) translate(148.46296296296296 48.054166666666674)"/><use xlink:href="#w" transform="matrix(1,0,0,1,638.233539113496,333.69231086680566) translate(32.04203703703705 64.05416666666667)"/><use xlink:href="#x" transform="matrix(1,0,0,1,638.233539113496,333.69231086680566) translate(68.33833333333334 64.05416666666667)"/><use xlink:href="#y" transform="matrix(1,0,0,1,638.233539113496,333.69231086680566) translate(83.15314814814815 64.05416666666667)"/><use xlink:href="#z" transform="matrix(1,0,0,1,638.233539113496,333.69231086680566) translate(128.33833333333334 64.05416666666667)"/><path d="M634.54 368.7H596h-.02v-.02h-21.06" stroke="#000" stroke-width="2" fill="none"/><path d="M635.54 368.7l.08 1h-1.1v-2h1.1z" stroke="#000" stroke-width=".05"/><path d="M559.66 368.68l14.26-4.63v9.27z" stroke="#000" stroke-width="2"/><path d="M633.23 431.23a8 8 0 0 1 8-8h184a8 8 0 0 1 8 8v347.95a8 8 0 0 1-8 8h-184a8 8 0 0 1-8-8z" stroke="#000" stroke-width="2" fill="#fff3d9"/><use xlink:href="#A" transform="matrix(1,0,0,1,645.233539113496,435.2287593418961) translate(88.00000000000001 173.24166666666665)"/><path d="M493.4 401.96v20a.08.08 0 0 1-.08.1.08.08 0 0 0-.1.08v2.5" stroke="#000" stroke-width="2" fill="none"/><path d="M494.4 402h-2v-1.04h2z" stroke="#000" stroke-width=".05"/><path d="M493.23 439.9l-4.63-14.26h9.27z" stroke="#000" stroke-width="2"/><path d="M486.83 653.9a10.67 10.67 0 0 1 12.8 0l67.2 50.4a6 6 0 0 1 0 9.6l-67.2 50.4a10.67 10.67 0 0 1-12.8 0l-67.2-50.4a6 6 0 0 1 0-9.6z" stroke="#000" stroke-width="2" fill="#fff"/><use xlink:href="#B" transform="matrix(1,0,0,1,418.233539113496,654.0931005334758) translate(50.24574074074074 41.36666666666667)"/><use xlink:href="#C" transform="matrix(1,0,0,1,418.233539113496,654.0931005334758) translate(33.592592592592595 57.366666666666674)"/><use xlink:href="#D" transform="matrix(1,0,0,1,418.233539113496,654.0931005334758) translate(38.4124074074074 73.36666666666667)"/><path d="M680 818.65a8 8 0 0 1 8-8h84a8 8 0 0 1 8 8v24a8 8 0 0 1-8 8h-84a8 8 0 0 1-8-8z" stroke="#000" stroke-width="2" fill="#c3f7c8"/><use xlink:href="#E" transform="matrix(1,0,0,1,692,822.6484860790407) translate(6.240740740740737 13.866666666666667)"/><path d="M541.23 840c17.68 0 32 13.43 32 30s-14.32 30-32 30h-96c-17.67 0-32-13.43-32-30s14.33-30 32-30z" stroke="#000" stroke-width="2" fill="#fff"/><use xlink:href="#F" transform="matrix(1,0,0,1,418.233539113496,845) translate(31.370370370370377 20.116666666666667)"/><use xlink:href="#G" transform="matrix(1,0,0,1,418.233539113496,845) translate(80.18518518518519 20.116666666666667)"/><use xlink:href="#H" transform="matrix(1,0,0,1,418.233539113496,845) translate(45.425925925925924 36.11666666666667)"/><path d="M493.23 486.04v54.5" stroke="#000" stroke-width="2" fill="none"/><path d="M494.23 486.07h-2v-1.02h2z" stroke="#000" stroke-width=".05"/><path d="M493.23 555.8l-4.63-14.25h9.27z" stroke="#000" stroke-width="2"/><path d="M493.23 623.46v8.8" stroke="#000" stroke-width="2" fill="none"/><path d="M494.23 623.5h-2v-1.04h2z" stroke="#000" stroke-width=".05"/><path d="M493.23 647.52l-4.63-14.26h9.27z" stroke="#000" stroke-width="2"/><path d="M494.23 820.5h-2v-18.7h2zm0-34.7h-2v-17.37h2z" stroke="#000" stroke-width=".05"/><path d="M493.23 767.43l1-.07v1.1h-2v-1.1z"/><path d="M493.23 767.4l1.03-.06v1.14h-2.05v-1.14zm-.97 1.03h1.95v-1.04l-.97.05-.97-.06z" stroke="#000" stroke-width=".05"/><path d="M493.23 835.76l-4.63-14.26h9.27z"/><path d="M493.23 839l-6-18.5h12.02zm-3.26-16.5l3.26 10.03 3.26-10.03z" stroke="#000" stroke-width=".05"/><use xlink:href="#I" transform="matrix(1,0,0,1,483.25205763201456,785.7905420892802) translate(0.005000000000000782 10.666666666666668)"/><path d="M584.23 825.6l.06.67.13.6.24.6.33.53.4.47.48.4.54.34.58.25.57.14 72.98.05v2l-73.22-.06-.95-.24-.87-.36-.8-.5-.7-.6-.62-.72-.5-.8-.36-.88-.22-.9-.07-.9v-6.42h2zm-5.06-117.44l.92.22.86.36.8.5.72.6.6.72.5.8.36.88.23.95.05 90.08h-2l-.05-89.85-.14-.57-.24-.58-.33-.54-.4-.47-.5-.4-.52-.34-.58-.24-.6-.15-.68-.06h-6.96v-2h7.03z" stroke="#000" stroke-width=".05"/><path d="M571.26 710.1h-1.12l.1-1-.1-1h1.12z"/><path d="M571.3 710.12h-1.18l.1-1.03-.1-1.03h1.17zm-1.13-2l.1.97-.1.97h1.07v-1.95z" stroke="#000" stroke-width=".05"/><path d="M675.8 830.65l-14.26 4.63V826z"/><path d="M679.05 830.65l-18.5 6v-12zm-16.5 3.26l10.02-3.25-10.03-3.26z" stroke="#000" stroke-width=".05"/><use xlink:href="#J" transform="matrix(1,0,0,1,569.9002057801627,803.2795794054316) translate(0.005000000000000782 10.666666666666668)"/><path d="M730 852.6V865a5 5 0 0 1-5 5H592.74" stroke="#000" stroke-width="2" fill="none"/><path d="M731 852.63h-2v-1.03h2z" stroke="#000" stroke-width=".05"/><path d="M577.47 870l14.27-4.64v9.28z" stroke="#000" stroke-width="2"/><path d="M653.73 713.1a8 8 0 0 1 8-8h144a8 8 0 0 1 8 8v44a8 8 0 0 1-8 8h-144a8 8 0 0 1-8-8z" stroke="#000" stroke-width="2" fill="#fff"/><g><use xlink:href="#K" transform="matrix(1,0,0,1,665.7347741812779,717.1112823516576) translate(17.333333333333332 20.616666666666667)"/><use xlink:href="#L" transform="matrix(1,0,0,1,665.7347741812779,717.1112823516576) translate(60.25925925925926 20.616666666666667)"/></g><path d="M653.73 446.56a8 8 0 0 1 8-8h144a8 8 0 0 1 8 8v43.2a8 8 0 0 1-8 8h-144a8 8 0 0 1-8-8z" stroke="#000" stroke-width="2" fill="#fff"/><g><use xlink:href="#M" transform="matrix(1,0,0,1,665.7347741812779,450.55673689711216) translate(29.44444444444444 16.116666666666667)"/><use xlink:href="#N" transform="matrix(1,0,0,1,665.7347741812779,450.55673689711216) translate(74.74074074074073 16.116666666666667)"/><use xlink:href="#L" transform="matrix(1,0,0,1,665.7347741812779,450.55673689711216) translate(38.79629629629629 32.11666666666667)"/></g><path d="M653.73 526.56a8 8 0 0 1 8-8h144a8 8 0 0 1 8 8v43.2a8 8 0 0 1-8 8h-144a8 8 0 0 1-8-8z" stroke="#000" stroke-width="2" fill="#fff"/><g><use xlink:href="#O" transform="matrix(1,0,0,1,665.7347741812779,530.5567368971122) translate(31.40740740740741 16.116666666666667)"/><use xlink:href="#P" transform="matrix(1,0,0,1,665.7347741812779,530.5567368971122) translate(63.18518518518518 16.116666666666667)"/><use xlink:href="#L" transform="matrix(1,0,0,1,665.7347741812779,530.5567368971122) translate(38.79629629629629 32.11666666666667)"/></g><path d="M653.73 608.47a8 8 0 0 1 8-8h144a8 8 0 0 1 8 8v64a8 8 0 0 1-8 8h-144a8 8 0 0 1-8-8z" stroke="#000" stroke-width="2" fill="#fff"/><g><use xlink:href="#Q" transform="matrix(1,0,0,1,665.7347741812779,612.4749187152939) translate(32.46296296296296 24.366666666666667)"/><use xlink:href="#L" transform="matrix(1,0,0,1,665.7347741812779,612.4749187152939) translate(38.79629629629629 40.36666666666667)"/></g><path d="M733.73 499.7v-.6" stroke="#000" stroke-width="2" fill="none"/><path d="M734.73 499.73h-2v-1.02h2z" stroke="#000" stroke-width=".05"/><path d="M733.73 514.37l-4.63-14.27h9.27z" stroke="#000" stroke-width="2"/><path d="M733.73 579.7v1.32" stroke="#000" stroke-width="2" fill="none"/><path d="M734.73 579.73h-2v-1.02h2z" stroke="#000" stroke-width=".05"/><path d="M733.73 596.3L729.1 582h9.27z" stroke="#000" stroke-width="2"/><path d="M733.73 682.43v3.23" stroke="#000" stroke-width="2" fill="none"/><path d="M734.73 682.45h-2v-1.02h2z" stroke="#000" stroke-width=".05"/><path d="M733.73 700.92l-4.63-14.26h9.27z" stroke="#000" stroke-width="2"/><path d="M651.78 735.1h-34.14a5 5 0 0 1-5-5V595.77a5 5 0 0 0-5-5H591" stroke="#000" stroke-width="2" fill="none"/><path d="M652.78 736.1h-1.02v-2h1.02z" stroke="#000" stroke-width=".05"/><path d="M575.73 590.76l14.27-4.64v9.27z" stroke="#000" stroke-width="2"/><path d="M903.87 315.46a10.4 10.4 0 0 1 10.06-7.73h128a6.15 6.15 0 0 1 5.94 7.73L1036 360.02a10.4 10.4 0 0 1-10.08 7.73h-128a6.15 6.15 0 0 1-5.93-7.73z" stroke="#000" stroke-width="2" fill="#fff"/><g><use xlink:href="#R" transform="matrix(1,0,0,1,894.9298391221039,312.73058262660254) translate(17.1851851851852 18.831944444444442)"/><use xlink:href="#S" transform="matrix(1,0,0,1,894.9298391221039,312.73058262660254) translate(52.530864197530875 18.831944444444442)"/><use xlink:href="#T" transform="matrix(1,0,0,1,894.9298391221039,312.73058262660254) translate(102.5679012345679 18.831944444444442)"/><use xlink:href="#U" transform="matrix(1,0,0,1,894.9298391221039,312.73058262660254) translate(46.13580246913581 37.4986111111111)"/><use xlink:href="#V" transform="matrix(1,0,0,1,894.9298391221039,312.73058262660254) translate(72.01851851851853 37.4986111111111)"/><use xlink:href="#W" transform="matrix(1,0,0,1,894.9298391221039,312.73058262660254) translate(81.4814814814815 37.4986111111111)"/></g><path d="M551.8 464.1h39.37a.35.35 0 0 0 .35-.36.35.35 0 0 1 .35-.35h21.87" stroke="#000" stroke-width="2" fill="none"/><path d="M551.83 465.1h-1.02v-2h1.03z" stroke="#000" stroke-width=".05"/><path d="M629 463.4l-14.26 4.63v-9.27z" stroke="#000" stroke-width="2"/><defs><path d="M233-177c-1 41-23 64-60 70L243 0h-38l-65-103H63V0H30v-248c88 3 205-21 203 71zM63-129c60-2 137 13 137-47 0-61-80-42-137-45v92" id="X"/><path d="M141-36C126-15 110 5 73 4 37 3 15-17 15-53c-1-64 63-63 125-63 3-35-9-54-41-54-24 1-41 7-42 31l-33-3c5-37 33-52 76-52 45 0 72 20 72 64v82c-1 20 7 32 28 27v20c-31 9-61-2-59-35zM48-53c0 20 12 33 32 33 41-3 63-29 60-74-43 2-92-5-92 41" id="Y"/><path d="M206 0h-36l-40-164L89 0H53L-1-190h32L70-26l43-164h34l41 164 42-164h31" id="Z"/><g id="a"><use transform="matrix(0.04320987654320988,0,0,0.04320987654320988,0,0)" xlink:href="#X"/><use transform="matrix(0.04320987654320988,0,0,0.04320987654320988,11.19135802469136,0)" xlink:href="#Y"/><use transform="matrix(0.04320987654320988,0,0,0.04320987654320988,19.833333333333336,0)" xlink:href="#Z"/></g><path d="M30 0v-248h33v221h125V0H30" id="aa"/><path d="M33 0v-248h34V0H33" id="ab"/><path d="M30-248c118-7 216 8 213 122C240-48 200 0 122 0H30v-248zM63-27c89 8 146-16 146-99s-60-101-146-95v194" id="ac"/><path d="M205 0l-28-72H64L36 0H1l101-248h38L239 0h-34zm-38-99l-47-123c-12 45-31 82-46 123h93" id="ad"/><g id="b"><use transform="matrix(0.04320987654320988,0,0,0.04320987654320988,0,0)" xlink:href="#aa"/><use transform="matrix(0.04320987654320988,0,0,0.04320987654320988,8.641975308641976,0)" xlink:href="#ab"/><use transform="matrix(0.04320987654320988,0,0,0.04320987654320988,12.962962962962964,0)" xlink:href="#ac"/><use transform="matrix(0.04320987654320988,0,0,0.04320987654320988,24.154320987654323,0)" xlink:href="#ad"/><use transform="matrix(0.04320987654320988,0,0,0.04320987654320988,34.5246913580247,0)" xlink:href="#X"/></g><path d="M85-194c31 0 48 13 60 33l-1-100h32l1 261h-30c-2-10 0-23-3-31C134-8 116 4 85 4 32 4 16-35 15-94c0-66 23-100 70-100zm9 24c-40 0-46 34-46 75 0 40 6 74 45 74 42 0 51-32 51-76 0-42-9-74-50-73" id="ae"/><path d="M59-47c-2 24 18 29 38 22v24C64 9 27 4 27-40v-127H5v-23h24l9-43h21v43h35v23H59v120" id="af"/><g id="c"><use transform="matrix(0.04320987654320988,0,0,0.04320987654320988,0,0)" xlink:href="#ae"/><use transform="matrix(0.04320987654320988,0,0,0.04320987654320988,8.641975308641976,0)" xlink:href="#Y"/><use transform="matrix(0.04320987654320988,0,0,0.04320987654320988,17.283950617283953,0)" xlink:href="#af"/><use transform="matrix(0.04320987654320988,0,0,0.04320987654320988,21.60493827160494,0)" xlink:href="#Y"/></g><path d="M185-189c-5-48-123-54-124 2 14 75 158 14 163 119 3 78-121 87-175 55-17-10-28-26-33-46l33-7c5 56 141 63 141-1 0-78-155-14-162-118-5-82 145-84 179-34 5 7 8 16 11 25" id="ag"/><g id="d"><use transform="matrix(0.04320987654320988,0,0,0.04320987654320988,0,0)" xlink:href="#X"/><use transform="matrix(0.04320987654320988,0,0,0.04320987654320988,11.19135802469136,0)" xlink:href="#ag"/></g><path d="M16-82v-28h88v28H16" id="ah"/><use transform="matrix(0.04320987654320988,0,0,0.04320987654320988,0,0)" xlink:href="#ah" id="e"/><path d="M212-179c-10-28-35-45-73-45-59 0-87 40-87 99 0 60 29 101 89 101 43 0 62-24 78-52l27 14C228-24 195 4 139 4 59 4 22-46 18-125c-6-104 99-153 187-111 19 9 31 26 39 46" id="ai"/><g id="f"><use transform="matrix(0.04320987654320988,0,0,0.04320987654320988,0,0)" xlink:href="#ac"/><use transform="matrix(0.04320987654320988,0,0,0.04320987654320988,11.19135802469136,0)" xlink:href="#ai"/></g><path d="M30-248c87 1 191-15 191 75 0 78-77 80-158 76V0H30v-248zm33 125c57 0 124 11 124-50 0-59-68-47-124-48v98" id="aj"/><path d="M114-163C36-179 61-72 57 0H25l-1-190h30c1 12-1 29 2 39 6-27 23-49 58-41v29" id="ak"/><path d="M100-194c63 0 86 42 84 106H49c0 40 14 67 53 68 26 1 43-12 49-29l28 8c-11 28-37 45-77 45C44 4 14-33 15-96c1-61 26-98 85-98zm52 81c6-60-76-77-97-28-3 7-6 17-6 28h103" id="al"/><path d="M115-194c55 1 70 41 70 98S169 2 115 4C84 4 66-9 55-30l1 105H24l-1-265h31l2 30c10-21 28-34 59-34zm-8 174c40 0 45-34 45-75s-6-73-45-74c-42 0-51 32-51 76 0 43 10 73 51 73" id="am"/><path d="M100-194c62-1 85 37 85 99 1 63-27 99-86 99S16-35 15-95c0-66 28-99 85-99zM99-20c44 1 53-31 53-75 0-43-8-75-51-75s-53 32-53 75 10 74 51 75" id="an"/><path d="M96-169c-40 0-48 33-48 73s9 75 48 75c24 0 41-14 43-38l32 2c-6 37-31 61-74 61-59 0-76-41-82-99-10-93 101-131 147-64 4 7 5 14 7 22l-32 3c-4-21-16-35-41-35" id="ao"/><path d="M135-143c-3-34-86-38-87 0 15 53 115 12 119 90S17 21 10-45l28-5c4 36 97 45 98 0-10-56-113-15-118-90-4-57 82-63 122-42 12 7 21 19 24 35" id="ap"/><path d="M24-231v-30h32v30H24zM24 0v-190h32V0H24" id="aq"/><path d="M117-194c89-4 53 116 60 194h-32v-121c0-31-8-49-39-48C34-167 62-67 57 0H25l-1-190h30c1 10-1 24 2 32 11-22 29-35 61-36" id="ar"/><path d="M177-190C167-65 218 103 67 71c-23-6-38-20-44-43l32-5c15 47 100 32 89-28v-30C133-14 115 1 83 1 29 1 15-40 15-95c0-56 16-97 71-98 29-1 48 16 59 35 1-10 0-23 2-32h30zM94-22c36 0 50-32 50-73 0-42-14-75-50-75-39 0-46 34-46 75s6 73 46 73" id="as"/><g id="g"><use transform="matrix(0.03703703703703704,0,0,0.03703703703703704,0,0)" xlink:href="#aj"/><use transform="matrix(0.03703703703703704,0,0,0.03703703703703704,8.88888888888889,0)" xlink:href="#ak"/><use transform="matrix(0.03703703703703704,0,0,0.03703703703703704,13.296296296296298,0)" xlink:href="#al"/><use transform="matrix(0.03703703703703704,0,0,0.03703703703703704,20.703703703703706,0)" xlink:href="#am"/><use transform="matrix(0.03703703703703704,0,0,0.03703703703703704,28.111111111111114,0)" xlink:href="#ak"/><use transform="matrix(0.03703703703703704,0,0,0.03703703703703704,32.51851851851852,0)" xlink:href="#an"/><use transform="matrix(0.03703703703703704,0,0,0.03703703703703704,39.925925925925924,0)" xlink:href="#ao"/><use transform="matrix(0.03703703703703704,0,0,0.03703703703703704,46.592592592592595,0)" xlink:href="#al"/><use transform="matrix(0.03703703703703704,0,0,0.03703703703703704,54,0)" xlink:href="#ap"/><use transform="matrix(0.03703703703703704,0,0,0.03703703703703704,60.66666666666667,0)" xlink:href="#ap"/><use transform="matrix(0.03703703703703704,0,0,0.03703703703703704,67.33333333333334,0)" xlink:href="#aq"/><use transform="matrix(0.03703703703703704,0,0,0.03703703703703704,70.25925925925927,0)" xlink:href="#ar"/><use transform="matrix(0.03703703703703704,0,0,0.03703703703703704,77.66666666666667,0)" xlink:href="#as"/></g><g id="h"><use transform="matrix(0.03703703703703704,0,0,0.03703703703703704,0,0)" xlink:href="#ac"/><use transform="matrix(0.03703703703703704,0,0,0.03703703703703704,9.592592592592593,0)" xlink:href="#Y"/><use transform="matrix(0.03703703703703704,0,0,0.03703703703703704,17,0)" xlink:href="#af"/><use transform="matrix(0.03703703703703704,0,0,0.03703703703703704,20.703703703703702,0)" xlink:href="#Y"/></g><path d="M108 0H70L1-190h34L89-25l56-165h34" id="at"/><path d="M33-154v-36h34v36H33zM33 0v-36h34V0H33" id="au"/><g id="i"><use transform="matrix(0.03703703703703704,0,0,0.03703703703703704,0,0)" xlink:href="#aq"/><use transform="matrix(0.03703703703703704,0,0,0.03703703703703704,2.9259259259259265,0)" xlink:href="#ar"/><use transform="matrix(0.03703703703703704,0,0,0.03703703703703704,10.333333333333334,0)" xlink:href="#at"/><use transform="matrix(0.03703703703703704,0,0,0.03703703703703704,17.000000000000004,0)" xlink:href="#al"/><use transform="matrix(0.03703703703703704,0,0,0.03703703703703704,24.407407407407412,0)" xlink:href="#ak"/><use transform="matrix(0.03703703703703704,0,0,0.03703703703703704,28.81481481481482,0)" xlink:href="#ap"/><use transform="matrix(0.03703703703703704,0,0,0.03703703703703704,35.48148148148149,0)" xlink:href="#aq"/><use transform="matrix(0.03703703703703704,0,0,0.03703703703703704,38.40740740740741,0)" xlink:href="#an"/><use transform="matrix(0.03703703703703704,0,0,0.03703703703703704,45.814814814814824,0)" xlink:href="#ar"/><use transform="matrix(0.03703703703703704,0,0,0.03703703703703704,53.22222222222223,0)" xlink:href="#au"/></g><path d="M194 0L95-120 63-95V0H30v-248h33v124l119-124h40L117-140 236 0h-42" id="av"/><path d="M63-220v92h138v28H63V0H30v-248h175v28H63" id="aw"/><g id="j"><use transform="matrix(0.03703703703703704,0,0,0.03703703703703704,0,0)" xlink:href="#av"/><use transform="matrix(0.03703703703703704,0,0,0.03703703703703704,8.88888888888889,0)" xlink:href="#aw"/><use transform="matrix(0.03703703703703704,0,0,0.03703703703703704,17,0)" xlink:href="#ag"/></g><path d="M210-169c-67 3-38 105-44 169h-31v-121c0-29-5-50-35-48C34-165 62-65 56 0H25l-1-190h30c1 10-1 24 2 32 10-44 99-50 107 0 11-21 27-35 58-36 85-2 47 119 55 194h-31v-121c0-29-5-49-35-48" id="ax"/><path d="M106-169C34-169 62-67 57 0H25v-261h32l-1 103c12-21 28-36 61-36 89 0 53 116 60 194h-32v-121c2-32-8-49-39-48" id="ay"/><g id="k"><use transform="matrix(0.03703703703703704,0,0,0.03703703703703704,0,0)" xlink:href="#ax"/><use transform="matrix(0.03703703703703704,0,0,0.03703703703703704,11.074074074074076,0)" xlink:href="#al"/><use transform="matrix(0.03703703703703704,0,0,0.03703703703703704,18.481481481481485,0)" xlink:href="#af"/><use transform="matrix(0.03703703703703704,0,0,0.03703703703703704,22.185185185185194,0)" xlink:href="#ay"/><use transform="matrix(0.03703703703703704,0,0,0.03703703703703704,29.592592592592602,0)" xlink:href="#an"/><use transform="matrix(0.03703703703703704,0,0,0.03703703703703704,37.00000000000001,0)" xlink:href="#ae"/></g><path d="M27 0v-27h64v-190l-56 39v-29l58-41h29v221h61V0H27" id="az"/><path d="M33 0v-38h34V0H33" id="aA"/><g id="l"><use transform="matrix(0.03703703703703704,0,0,0.03703703703703704,0,0)" xlink:href="#az"/><use transform="matrix(0.03703703703703704,0,0,0.03703703703703704,7.407407407407408,0)" xlink:href="#aA"/></g><path d="M101-234c-31-9-42 10-38 44h38v23H63V0H32v-167H5v-23h27c-7-52 17-82 69-68v24" id="aB"/><g id="m"><use transform="matrix(0.03703703703703704,0,0,0.03703703703703704,0,0)" xlink:href="#ac"/><use transform="matrix(0.03703703703703704,0,0,0.03703703703703704,9.592592592592593,0)" xlink:href="#al"/><use transform="matrix(0.03703703703703704,0,0,0.03703703703703704,17,0)" xlink:href="#aB"/><use transform="matrix(0.03703703703703704,0,0,0.03703703703703704,20.703703703703702,0)" xlink:href="#aq"/><use transform="matrix(0.03703703703703704,0,0,0.03703703703703704,23.62962962962963,0)" xlink:href="#ar"/><use transform="matrix(0.03703703703703704,0,0,0.03703703703703704,31.037037037037038,0)" xlink:href="#al"/></g><g id="n"><use transform="matrix(0.03703703703703704,0,0,0.03703703703703704,0,0)" xlink:href="#ak"/><use transform="matrix(0.03703703703703704,0,0,0.03703703703703704,4.407407407407408,0)" xlink:href="#an"/><use transform="matrix(0.03703703703703704,0,0,0.03703703703703704,11.814814814814817,0)" xlink:href="#an"/><use transform="matrix(0.03703703703703704,0,0,0.03703703703703704,19.222222222222225,0)" xlink:href="#af"/></g><path d="M24 0v-261h32V0H24" id="aC"/><g id="o"><use transform="matrix(0.03703703703703704,0,0,0.03703703703703704,0,0)" xlink:href="#aB"/><use transform="matrix(0.03703703703703704,0,0,0.03703703703703704,3.703703703703704,0)" xlink:href="#an"/><use transform="matrix(0.03703703703703704,0,0,0.03703703703703704,11.111111111111112,0)" xlink:href="#aC"/><use transform="matrix(0.03703703703703704,0,0,0.03703703703703704,14.037037037037038,0)" xlink:href="#ae"/><use transform="matrix(0.03703703703703704,0,0,0.03703703703703704,21.444444444444446,0)" xlink:href="#al"/><use transform="matrix(0.03703703703703704,0,0,0.03703703703703704,28.851851851851855,0)" xlink:href="#ak"/></g><g id="p"><use transform="matrix(0.03703703703703704,0,0,0.03703703703703704,0,0)" xlink:href="#Y"/><use transform="matrix(0.03703703703703704,0,0,0.03703703703703704,7.407407407407408,0)" xlink:href="#ar"/><use transform="matrix(0.03703703703703704,0,0,0.03703703703703704,14.814814814814817,0)" xlink:href="#ae"/></g><g id="q"><use transform="matrix(0.03703703703703704,0,0,0.03703703703703704,0,0)" xlink:href="#ae"/><use transform="matrix(0.03703703703703704,0,0,0.03703703703703704,7.407407407407408,0)" xlink:href="#Y"/><use transform="matrix(0.03703703703703704,0,0,0.03703703703703704,14.814814814814817,0)" xlink:href="#af"/><use transform="matrix(0.03703703703703704,0,0,0.03703703703703704,18.51851851851852,0)" xlink:href="#al"/><use transform="matrix(0.03703703703703704,0,0,0.03703703703703704,25.92592592592593,0)" xlink:href="#aA"/></g><path d="M101-251c82-7 93 87 43 132L82-64C71-53 59-42 53-27h129V0H18c2-99 128-94 128-182 0-28-16-43-45-43s-46 15-49 41l-32-3c6-41 34-60 81-64" id="aD"/><g id="r"><use transform="matrix(0.03703703703703704,0,0,0.03703703703703704,0,0)" xlink:href="#aD"/><use transform="matrix(0.03703703703703704,0,0,0.03703703703703704,7.407407407407408,0)" xlink:href="#aA"/></g><g id="s"><use transform="matrix(0.03703703703703704,0,0,0.03703703703703704,0,0)" xlink:href="#ag"/><use transform="matrix(0.03703703703703704,0,0,0.03703703703703704,8.88888888888889,0)" xlink:href="#af"/><use transform="matrix(0.03703703703703704,0,0,0.03703703703703704,12.592592592592593,0)" xlink:href="#an"/><use transform="matrix(0.03703703703703704,0,0,0.03703703703703704,20,0)" xlink:href="#ak"/><use transform="matrix(0.03703703703703704,0,0,0.03703703703703704,24.407407407407405,0)" xlink:href="#al"/></g><g id="t"><use transform="matrix(0.03703703703703704,0,0,0.03703703703703704,0,0)" xlink:href="#X"/><use transform="matrix(0.03703703703703704,0,0,0.03703703703703704,9.592592592592593,0)" xlink:href="#ag"/></g><g id="u"><use transform="matrix(0.03703703703703704,0,0,0.03703703703703704,0,0)" xlink:href="#ac"/><use transform="matrix(0.03703703703703704,0,0,0.03703703703703704,9.592592592592593,0)" xlink:href="#ai"/></g><path d="M84 4C-5 8 30-112 23-190h32v120c0 31 7 50 39 49 72-2 45-101 50-169h31l1 190h-30c-1-10 1-25-2-33-11 22-28 36-60 37" id="aE"/><g id="v"><use transform="matrix(0.03703703703703704,0,0,0.03703703703703704,0,0)" xlink:href="#aB"/><use transform="matrix(0.03703703703703704,0,0,0.03703703703703704,3.703703703703704,0)" xlink:href="#aE"/><use transform="matrix(0.03703703703703704,0,0,0.03703703703703704,11.111111111111112,0)" xlink:href="#aC"/><use transform="matrix(0.03703703703703704,0,0,0.03703703703703704,14.037037037037038,0)" xlink:href="#aC"/></g><g id="w"><use transform="matrix(0.03703703703703704,0,0,0.03703703703703704,0,0)" xlink:href="#am"/><use transform="matrix(0.03703703703703704,0,0,0.03703703703703704,7.407407407407408,0)" xlink:href="#Y"/><use transform="matrix(0.03703703703703704,0,0,0.03703703703703704,14.814814814814817,0)" xlink:href="#af"/><use transform="matrix(0.03703703703703704,0,0,0.03703703703703704,18.51851851851852,0)" xlink:href="#ay"/><use transform="matrix(0.03703703703703704,0,0,0.03703703703703704,25.92592592592593,0)" xlink:href="#ap"/></g><g id="x"><use transform="matrix(0.03703703703703704,0,0,0.03703703703703704,0,0)" xlink:href="#af"/><use transform="matrix(0.03703703703703704,0,0,0.03703703703703704,3.703703703703704,0)" xlink:href="#an"/></g><g id="y"><use transform="matrix(0.03703703703703704,0,0,0.03703703703703704,0,0)" xlink:href="#Y"/><use transform="matrix(0.03703703703703704,0,0,0.03703703703703704,7.407407407407408,0)" xlink:href="#ao"/><use transform="matrix(0.03703703703703704,0,0,0.03703703703703704,14.074074074074076,0)" xlink:href="#ao"/><use transform="matrix(0.03703703703703704,0,0,0.03703703703703704,20.740740740740744,0)" xlink:href="#al"/><use transform="matrix(0.03703703703703704,0,0,0.03703703703703704,28.148148148148152,0)" xlink:href="#ap"/><use transform="matrix(0.03703703703703704,0,0,0.03703703703703704,34.814814814814824,0)" xlink:href="#ap"/></g><g id="z"><use transform="matrix(0.03703703703703704,0,0,0.03703703703703704,0,0)" xlink:href="#ae"/><use transform="matrix(0.03703703703703704,0,0,0.03703703703703704,7.407407407407408,0)" xlink:href="#Y"/><use transform="matrix(0.03703703703703704,0,0,0.03703703703703704,14.814814814814817,0)" xlink:href="#af"/><use transform="matrix(0.03703703703703704,0,0,0.03703703703703704,18.51851851851852,0)" xlink:href="#Y"/><use transform="matrix(0.03703703703703704,0,0,0.03703703703703704,25.92592592592593,0)" xlink:href="#aA"/></g><g id="B"><use transform="matrix(0.03703703703703704,0,0,0.03703703703703704,0,0)" xlink:href="#X"/><use transform="matrix(0.03703703703703704,0,0,0.03703703703703704,9.592592592592593,0)" xlink:href="#al"/><use transform="matrix(0.03703703703703704,0,0,0.03703703703703704,17,0)" xlink:href="#af"/><use transform="matrix(0.03703703703703704,0,0,0.03703703703703704,20.703703703703702,0)" xlink:href="#ak"/><use transform="matrix(0.03703703703703704,0,0,0.03703703703703704,25.11111111111111,0)" xlink:href="#aq"/><use transform="matrix(0.03703703703703704,0,0,0.03703703703703704,28.037037037037038,0)" xlink:href="#al"/><use transform="matrix(0.03703703703703704,0,0,0.03703703703703704,35.44444444444444,0)" xlink:href="#at"/><use transform="matrix(0.03703703703703704,0,0,0.03703703703703704,42.111111111111114,0)" xlink:href="#al"/></g><path d="M9 0v-24l116-142H16v-24h144v24L44-24h123V0H9" id="aF"/><g id="C"><use transform="matrix(0.03703703703703704,0,0,0.03703703703703704,0,0)" xlink:href="#ae"/><use transform="matrix(0.03703703703703704,0,0,0.03703703703703704,7.407407407407408,0)" xlink:href="#al"/><use transform="matrix(0.03703703703703704,0,0,0.03703703703703704,14.814814814814817,0)" xlink:href="#am"/><use transform="matrix(0.03703703703703704,0,0,0.03703703703703704,22.222222222222225,0)" xlink:href="#an"/><use transform="matrix(0.03703703703703704,0,0,0.03703703703703704,29.629629629629633,0)" xlink:href="#aC"/><use transform="matrix(0.03703703703703704,0,0,0.03703703703703704,32.55555555555556,0)" xlink:href="#Y"/><use transform="matrix(0.03703703703703704,0,0,0.03703703703703704,39.96296296296296,0)" xlink:href="#ak"/><use transform="matrix(0.03703703703703704,0,0,0.03703703703703704,44.37037037037037,0)" xlink:href="#aq"/><use transform="matrix(0.03703703703703704,0,0,0.03703703703703704,47.2962962962963,0)" xlink:href="#aF"/><use transform="matrix(0.03703703703703704,0,0,0.03703703703703704,53.96296296296296,0)" xlink:href="#Y"/><use transform="matrix(0.03703703703703704,0,0,0.03703703703703704,61.37037037037037,0)" xlink:href="#af"/><use transform="matrix(0.03703703703703704,0,0,0.03703703703703704,65.07407407407408,0)" xlink:href="#aq"/><use transform="matrix(0.03703703703703704,0,0,0.03703703703703704,68,0)" xlink:href="#an"/><use transform="matrix(0.03703703703703704,0,0,0.03703703703703704,75.4074074074074,0)" xlink:href="#ar"/></g><path d="M103-251c84 0 111 97 45 133-19 10-37 24-39 52H78c0-63 77-55 77-114 0-30-21-42-52-43-32 0-53 17-56 46l-32-2c7-45 34-72 88-72zM77 0v-35h34V0H77" id="aG"/><g id="D"><use transform="matrix(0.03703703703703704,0,0,0.03703703703703704,0,0)" xlink:href="#aq"/><use transform="matrix(0.03703703703703704,0,0,0.03703703703703704,2.9259259259259265,0)" xlink:href="#ar"/><use transform="matrix(0.03703703703703704,0,0,0.03703703703703704,10.333333333333334,0)" xlink:href="#aB"/><use transform="matrix(0.03703703703703704,0,0,0.03703703703703704,14.037037037037038,0)" xlink:href="#an"/><use transform="matrix(0.03703703703703704,0,0,0.03703703703703704,21.44444444444445,0)" xlink:href="#ak"/><use transform="matrix(0.03703703703703704,0,0,0.03703703703703704,25.85185185185186,0)" xlink:href="#ax"/><use transform="matrix(0.03703703703703704,0,0,0.03703703703703704,36.92592592592594,0)" xlink:href="#Y"/><use transform="matrix(0.03703703703703704,0,0,0.03703703703703704,44.333333333333336,0)" xlink:href="#af"/><use transform="matrix(0.03703703703703704,0,0,0.03703703703703704,48.037037037037045,0)" xlink:href="#aq"/><use transform="matrix(0.03703703703703704,0,0,0.03703703703703704,50.96296296296297,0)" xlink:href="#an"/><use transform="matrix(0.03703703703703704,0,0,0.03703703703703704,58.37037037037038,0)" xlink:href="#ar"/><use transform="matrix(0.03703703703703704,0,0,0.03703703703703704,65.77777777777779,0)" xlink:href="#aG"/></g><path d="M115-194c53 0 69 39 70 98 0 66-23 100-70 100C84 3 66-7 56-30L54 0H23l1-261h32v101c10-23 28-34 59-34zm-8 174c40 0 45-34 45-75 0-40-5-75-45-74-42 0-51 32-51 76 0 43 10 73 51 73" id="aH"/><g id="E"><use transform="matrix(0.03703703703703704,0,0,0.03703703703703704,0,0)" xlink:href="#ai"/><use transform="matrix(0.03703703703703704,0,0,0.03703703703703704,9.592592592592593,0)" xlink:href="#Y"/><use transform="matrix(0.03703703703703704,0,0,0.03703703703703704,17,0)" xlink:href="#aC"/><use transform="matrix(0.03703703703703704,0,0,0.03703703703703704,19.925925925925927,0)" xlink:href="#aq"/><use transform="matrix(0.03703703703703704,0,0,0.03703703703703704,22.851851851851855,0)" xlink:href="#aH"/><use transform="matrix(0.03703703703703704,0,0,0.03703703703703704,30.259259259259263,0)" xlink:href="#ak"/><use transform="matrix(0.03703703703703704,0,0,0.03703703703703704,34.66666666666667,0)" xlink:href="#Y"/><use transform="matrix(0.03703703703703704,0,0,0.03703703703703704,42.074074074074076,0)" xlink:href="#af"/><use transform="matrix(0.03703703703703704,0,0,0.03703703703703704,45.77777777777778,0)" xlink:href="#aq"/><use transform="matrix(0.03703703703703704,0,0,0.03703703703703704,48.7037037037037,0)" xlink:href="#an"/><use transform="matrix(0.03703703703703704,0,0,0.03703703703703704,56.11111111111111,0)" xlink:href="#ar"/></g><g id="F"><use transform="matrix(0.03703703703703704,0,0,0.03703703703703704,0,0)" xlink:href="#ad"/><use transform="matrix(0.03703703703703704,0,0,0.03703703703703704,8.88888888888889,0)" xlink:href="#al"/><use transform="matrix(0.03703703703703704,0,0,0.03703703703703704,16.296296296296298,0)" xlink:href="#ak"/><use transform="matrix(0.03703703703703704,0,0,0.03703703703703704,20.703703703703706,0)" xlink:href="#an"/><use transform="matrix(0.03703703703703704,0,0,0.03703703703703704,28.111111111111114,0)" xlink:href="#ap"/><use transform="matrix(0.03703703703703704,0,0,0.03703703703703704,34.777777777777786,0)" xlink:href="#an"/><use transform="matrix(0.03703703703703704,0,0,0.03703703703703704,42.18518518518519,0)" xlink:href="#aC"/></g><g id="G"><use transform="matrix(0.03703703703703704,0,0,0.03703703703703704,0,0)" xlink:href="#an"/><use transform="matrix(0.03703703703703704,0,0,0.03703703703703704,7.407407407407408,0)" xlink:href="#am"/><use transform="matrix(0.03703703703703704,0,0,0.03703703703703704,14.814814814814817,0)" xlink:href="#af"/><use transform="matrix(0.03703703703703704,0,0,0.03703703703703704,18.51851851851852,0)" xlink:href="#aq"/><use transform="matrix(0.03703703703703704,0,0,0.03703703703703704,21.444444444444446,0)" xlink:href="#ao"/><use transform="matrix(0.03703703703703704,0,0,0.03703703703703704,28.111111111111114,0)" xlink:href="#Y"/><use transform="matrix(0.03703703703703704,0,0,0.03703703703703704,35.51851851851852,0)" xlink:href="#aC"/></g><g id="H"><use transform="matrix(0.03703703703703704,0,0,0.03703703703703704,0,0)" xlink:href="#am"/><use transform="matrix(0.03703703703703704,0,0,0.03703703703703704,7.407407407407408,0)" xlink:href="#ak"/><use transform="matrix(0.03703703703703704,0,0,0.03703703703703704,11.814814814814817,0)" xlink:href="#an"/><use transform="matrix(0.03703703703703704,0,0,0.03703703703703704,19.222222222222225,0)" xlink:href="#am"/><use transform="matrix(0.03703703703703704,0,0,0.03703703703703704,26.629629629629633,0)" xlink:href="#al"/><use transform="matrix(0.03703703703703704,0,0,0.03703703703703704,34.03703703703704,0)" xlink:href="#ak"/><use transform="matrix(0.03703703703703704,0,0,0.03703703703703704,38.44444444444444,0)" xlink:href="#af"/><use transform="matrix(0.03703703703703704,0,0,0.03703703703703704,42.148148148148145,0)" xlink:href="#aq"/><use transform="matrix(0.03703703703703704,0,0,0.03703703703703704,45.07407407407407,0)" xlink:href="#al"/><use transform="matrix(0.03703703703703704,0,0,0.03703703703703704,52.48148148148148,0)" xlink:href="#ap"/></g><path d="M175 0L67-191c6 58 2 128 3 191H24v-248h59L193-55c-6-58-2-129-3-193h46V0h-61" id="aI"/><path d="M140-251c80 0 125 45 125 126S219 4 139 4C58 4 15-44 15-125s44-126 125-126zm-1 214c52 0 73-35 73-88 0-50-21-86-72-86-52 0-73 35-73 86s22 88 72 88" id="aJ"/><g id="I"><use transform="matrix(0.03703703703703704,0,0,0.03703703703703704,0,0)" xlink:href="#aI"/><use transform="matrix(0.03703703703703704,0,0,0.03703703703703704,9.592592592592593,0)" xlink:href="#aJ"/></g><path d="M146-102V0H94v-102L6-248h54l60 105 60-105h54" id="aK"/><path d="M24 0v-248h195v40H76v63h132v40H76v65h150V0H24" id="aL"/><path d="M169-182c-1-43-94-46-97-3 18 66 151 10 154 114 3 95-165 93-204 36-6-8-10-19-12-30l50-8c3 46 112 56 116 5-17-69-150-10-154-114-4-87 153-88 188-35 5 8 8 18 10 28" id="aM"/><g id="J"><use transform="matrix(0.03703703703703704,0,0,0.03703703703703704,0,0)" xlink:href="#aK"/><use transform="matrix(0.03703703703703704,0,0,0.03703703703703704,8.88888888888889,0)" xlink:href="#aL"/><use transform="matrix(0.03703703703703704,0,0,0.03703703703703704,17.77777777777778,0)" xlink:href="#aM"/></g><g id="K"><use transform="matrix(0.03703703703703704,0,0,0.03703703703703704,0,0)" xlink:href="#X"/><use transform="matrix(0.03703703703703704,0,0,0.03703703703703704,9.592592592592593,0)" xlink:href="#Y"/><use transform="matrix(0.03703703703703704,0,0,0.03703703703703704,17,0)" xlink:href="#ar"/><use transform="matrix(0.03703703703703704,0,0,0.03703703703703704,24.407407407407405,0)" xlink:href="#as"/><use transform="matrix(0.03703703703703704,0,0,0.03703703703703704,31.814814814814813,0)" xlink:href="#al"/></g><g id="L"><use transform="matrix(0.03703703703703704,0,0,0.03703703703703704,0,0)" xlink:href="#ao"/><use transform="matrix(0.03703703703703704,0,0,0.03703703703703704,6.666666666666668,0)" xlink:href="#an"/><use transform="matrix(0.03703703703703704,0,0,0.03703703703703704,14.074074074074076,0)" xlink:href="#ak"/><use transform="matrix(0.03703703703703704,0,0,0.03703703703703704,18.481481481481485,0)" xlink:href="#ak"/><use transform="matrix(0.03703703703703704,0,0,0.03703703703703704,22.888888888888893,0)" xlink:href="#al"/><use transform="matrix(0.03703703703703704,0,0,0.03703703703703704,30.2962962962963,0)" xlink:href="#ao"/><use transform="matrix(0.03703703703703704,0,0,0.03703703703703704,36.96296296296297,0)" xlink:href="#af"/><use transform="matrix(0.03703703703703704,0,0,0.03703703703703704,40.66666666666667,0)" xlink:href="#aq"/><use transform="matrix(0.03703703703703704,0,0,0.03703703703703704,43.592592592592595,0)" xlink:href="#an"/><use transform="matrix(0.03703703703703704,0,0,0.03703703703703704,51,0)" xlink:href="#ar"/></g><path d="M127-220V0H93v-220H8v-28h204v28h-85" id="aN"/><g id="M"><use transform="matrix(0.03703703703703704,0,0,0.03703703703703704,0,0)" xlink:href="#aN"/><use transform="matrix(0.03703703703703704,0,0,0.03703703703703704,7.629629629629631,0)" xlink:href="#ak"/><use transform="matrix(0.03703703703703704,0,0,0.03703703703703704,12.037037037037038,0)" xlink:href="#aq"/><use transform="matrix(0.03703703703703704,0,0,0.03703703703703704,14.962962962962965,0)" xlink:href="#as"/><use transform="matrix(0.03703703703703704,0,0,0.03703703703703704,22.370370370370374,0)" xlink:href="#as"/><use transform="matrix(0.03703703703703704,0,0,0.03703703703703704,29.777777777777782,0)" xlink:href="#al"/><use transform="matrix(0.03703703703703704,0,0,0.03703703703703704,37.18518518518519,0)" xlink:href="#ak"/></g><path d="M179-190L93 31C79 59 56 82 12 73V49c39 6 53-20 64-50L1-190h34L92-34l54-156h33" id="aO"/><g id="N"><use transform="matrix(0.03703703703703704,0,0,0.03703703703703704,0,0)" xlink:href="#ae"/><use transform="matrix(0.03703703703703704,0,0,0.03703703703703704,7.407407407407408,0)" xlink:href="#al"/><use transform="matrix(0.03703703703703704,0,0,0.03703703703703704,14.814814814814817,0)" xlink:href="#aC"/><use transform="matrix(0.03703703703703704,0,0,0.03703703703703704,17.740740740740744,0)" xlink:href="#Y"/><use transform="matrix(0.03703703703703704,0,0,0.03703703703703704,25.148148148148152,0)" xlink:href="#aO"/></g><path d="M143 0L79-87 56-68V0H24v-261h32v163l83-92h37l-77 82L181 0h-38" id="aP"/><g id="O"><use transform="matrix(0.03703703703703704,0,0,0.03703703703703704,0,0)" xlink:href="#ac"/><use transform="matrix(0.03703703703703704,0,0,0.03703703703703704,9.592592592592593,0)" xlink:href="#Y"/><use transform="matrix(0.03703703703703704,0,0,0.03703703703703704,17,0)" xlink:href="#ak"/><use transform="matrix(0.03703703703703704,0,0,0.03703703703703704,21.407407407407412,0)" xlink:href="#aP"/></g><g id="P"><use transform="matrix(0.03703703703703704,0,0,0.03703703703703704,0,0)" xlink:href="#ao"/><use transform="matrix(0.03703703703703704,0,0,0.03703703703703704,6.666666666666668,0)" xlink:href="#aE"/><use transform="matrix(0.03703703703703704,0,0,0.03703703703703704,14.074074074074076,0)" xlink:href="#ak"/><use transform="matrix(0.03703703703703704,0,0,0.03703703703703704,18.481481481481485,0)" xlink:href="#ak"/><use transform="matrix(0.03703703703703704,0,0,0.03703703703703704,22.888888888888893,0)" xlink:href="#al"/><use transform="matrix(0.03703703703703704,0,0,0.03703703703703704,30.2962962962963,0)" xlink:href="#ar"/><use transform="matrix(0.03703703703703704,0,0,0.03703703703703704,37.70370370370371,0)" xlink:href="#af"/></g><path d="M160-131c35 5 61 23 61 61C221 17 115-2 30 0v-248c76 3 177-17 177 60 0 33-19 50-47 57zm-97-11c50-1 110 9 110-42 0-47-63-36-110-37v79zm0 115c55-2 124 14 124-45 0-56-70-42-124-44v89" id="aQ"/><g id="Q"><use transform="matrix(0.03703703703703704,0,0,0.03703703703703704,0,0)" xlink:href="#aQ"/><use transform="matrix(0.03703703703703704,0,0,0.03703703703703704,8.88888888888889,0)" xlink:href="#Y"/><use transform="matrix(0.03703703703703704,0,0,0.03703703703703704,16.296296296296298,0)" xlink:href="#ao"/><use transform="matrix(0.03703703703703704,0,0,0.03703703703703704,22.962962962962965,0)" xlink:href="#aP"/><use transform="matrix(0.03703703703703704,0,0,0.03703703703703704,29.629629629629633,0)" xlink:href="#as"/><use transform="matrix(0.03703703703703704,0,0,0.03703703703703704,37.03703703703704,0)" xlink:href="#ak"/><use transform="matrix(0.03703703703703704,0,0,0.03703703703703704,41.44444444444444,0)" xlink:href="#an"/><use transform="matrix(0.03703703703703704,0,0,0.03703703703703704,48.85185185185185,0)" xlink:href="#aE"/><use transform="matrix(0.03703703703703704,0,0,0.03703703703703704,56.25925925925925,0)" xlink:href="#ar"/><use transform="matrix(0.03703703703703704,0,0,0.03703703703703704,63.66666666666666,0)" xlink:href="#ae"/></g><g id="R"><use transform="matrix(0.04320987654320987,0,0,0.04320987654320987,0,0)" xlink:href="#X"/><use transform="matrix(0.04320987654320987,0,0,0.04320987654320987,11.191358024691356,0)" xlink:href="#Y"/><use transform="matrix(0.04320987654320987,0,0,0.04320987654320987,19.83333333333333,0)" xlink:href="#Z"/></g><g id="S"><use transform="matrix(0.04320987654320987,0,0,0.04320987654320987,0,0)" xlink:href="#aa"/><use transform="matrix(0.04320987654320987,0,0,0.04320987654320987,8.641975308641973,0)" xlink:href="#ab"/><use transform="matrix(0.04320987654320987,0,0,0.04320987654320987,12.962962962962958,0)" xlink:href="#ac"/><use transform="matrix(0.04320987654320987,0,0,0.04320987654320987,24.154320987654316,0)" xlink:href="#ad"/><use transform="matrix(0.04320987654320987,0,0,0.04320987654320987,34.52469135802468,0)" xlink:href="#X"/></g><g id="T"><use transform="matrix(0.04320987654320987,0,0,0.04320987654320987,0,0)" xlink:href="#ae"/><use transform="matrix(0.04320987654320987,0,0,0.04320987654320987,8.641975308641973,0)" xlink:href="#Y"/><use transform="matrix(0.04320987654320987,0,0,0.04320987654320987,17.283950617283946,0)" xlink:href="#af"/><use transform="matrix(0.04320987654320987,0,0,0.04320987654320987,21.604938271604933,0)" xlink:href="#Y"/></g><g id="U"><use transform="matrix(0.04320987654320987,0,0,0.04320987654320987,0,0)" xlink:href="#X"/><use transform="matrix(0.04320987654320987,0,0,0.04320987654320987,11.191358024691356,0)" xlink:href="#ag"/></g><use transform="matrix(0.04320987654320987,0,0,0.04320987654320987,0,0)" xlink:href="#ah" id="V"/><g id="W"><use transform="matrix(0.04320987654320987,0,0,0.04320987654320987,0,0)" xlink:href="#ac"/><use transform="matrix(0.04320987654320987,0,0,0.04320987654320987,11.191358024691356,0)" xlink:href="#ai"/></g></defs></g></svg>