<svg xmlns="http://www.w3.org/2000/svg" xmlns:xlink="http://www.w3.org/1999/xlink" xmlns:lucid="lucid" width="954" height="701"><g transform="translate(-861 -236)" lucid:page-tab-id="0_0"><path d="M667.58 334.35a19.3 19.3 0 0 1 13.65-5.66h104a19.3 19.3 0 0 1 13.66 5.65l28.68 28.7a8 8 0 0 1 0 11.3l-28.7 28.7a19.3 19.3 0 0 1-13.65 5.64h-104a19.3 19.3 0 0 1-13.65-5.66l-28.7-28.7a8 8 0 0 1 0-11.3z" stroke="#000" stroke-width="2" fill="#fff"/><use xlink:href="#a" transform="matrix(1,0,0,1,638.233539113496,333.69231086680566) translate(36.208703703703705 16.054166666666667)"/><use xlink:href="#b" transform="matrix(1,0,0,1,638.233539113496,333.69231086680566) translate(51.76425925925926 16.054166666666667)"/><use xlink:href="#c" transform="matrix(1,0,0,1,638.233539113496,333.69231086680566) translate(93.9124074074074 16.054166666666667)"/><use xlink:href="#d" transform="matrix(1,0,0,1,638.233539113496,333.69231086680566) translate(120.54203703703703 16.054166666666667)"/><use xlink:href="#e" transform="matrix(1,0,0,1,638.233539113496,333.69231086680566) translate(69.4 32.05416666666667)"/><use xlink:href="#f" transform="matrix(1,0,0,1,638.233539113496,333.69231086680566) translate(95.32592592592593 32.05416666666667)"/><use xlink:href="#g" transform="matrix(1,0,0,1,638.233539113496,333.69231086680566) translate(27.129629629629633 48.054166666666674)"/><use xlink:href="#h" transform="matrix(1,0,0,1,638.233539113496,333.69231086680566) translate(41.94444444444445 48.054166666666674)"/><use xlink:href="#i" transform="matrix(1,0,0,1,638.233539113496,333.69231086680566) translate(77.46296296296296 48.054166666666674)"/><use xlink:href="#e" transform="matrix(1,0,0,1,638.233539113496,333.69231086680566) translate(99.64814814814815 48.054166666666674)"/><use xlink:href="#j" transform="matrix(1,0,0,1,638.233539113496,333.69231086680566) translate(125.57407407407408 48.054166666666674)"/><use xlink:href="#k" transform="matrix(1,0,0,1,638.233539113496,333.69231086680566) translate(148.46296296296296 48.054166666666674)"/><use xlink:href="#l" transform="matrix(1,0,0,1,638.233539113496,333.69231086680566) translate(32.04203703703705 64.05416666666667)"/><use xlink:href="#m" transform="matrix(1,0,0,1,638.233539113496,333.69231086680566) translate(68.33833333333334 64.05416666666667)"/><use xlink:href="#n" transform="matrix(1,0,0,1,638.233539113496,333.69231086680566) translate(83.15314814814815 64.05416666666667)"/><use xlink:href="#o" transform="matrix(1,0,0,1,638.233539113496,333.69231086680566) translate(128.33833333333334 64.05416666666667)"/><path d="M903.87 315.46a10.4 10.4 0 0 1 10.06-7.73h128a6.15 6.15 0 0 1 5.94 7.73L1036 360.02a10.4 10.4 0 0 1-10.08 7.73h-128a6.15 6.15 0 0 1-5.93-7.73z" stroke="#000" stroke-width="2" fill="#fff"/><use xlink:href="#p" transform="matrix(1,0,0,1,894.9298391221039,312.73058262660254) translate(17.1851851851852 18.831944444444442)"/><use xlink:href="#q" transform="matrix(1,0,0,1,894.9298391221039,312.73058262660254) translate(52.530864197530875 18.831944444444442)"/><use xlink:href="#r" transform="matrix(1,0,0,1,894.9298391221039,312.73058262660254) translate(102.5679012345679 18.831944444444442)"/><use xlink:href="#s" transform="matrix(1,0,0,1,894.9298391221039,312.73058262660254) translate(46.13580246913581 37.4986111111111)"/><use xlink:href="#t" transform="matrix(1,0,0,1,894.9298391221039,312.73058262660254) translate(72.01851851851853 37.4986111111111)"/><use xlink:href="#u" transform="matrix(1,0,0,1,894.9298391221039,312.73058262660254) translate(81.4814814814815 37.4986111111111)"/><path d="M900 415.73a8 8 0 0 1 8-8h144a8 8 0 0 1 8 8v24a8 8 0 0 1-8 8H908a8 8 0 0 1-8-8z" stroke="#000" stroke-width="2" fill="#fff3d9"/><use xlink:href="#v" transform="matrix(1,0,0,1,912,419.7305826266026) translate(25.462962962962973 13.866666666666664)"/><path d="M910 523.46a8 8 0 0 1 8-8h124a8 8 0 0 1 8 8V572a8 8 0 0 1-8 8H918a8 8 0 0 1-8-8z" stroke="#000" stroke-width="2" fill="#cfe4ff"/><use xlink:href="#w" transform="matrix(1,0,0,1,922,527.463915959936) translate(13.629629629629637 16.429166666666664)"/><use xlink:href="#x" transform="matrix(1,0,0,1,922,527.463915959936) translate(45.44444444444444 16.429166666666664)"/><use xlink:href="#y" transform="matrix(1,0,0,1,922,527.463915959936) translate(21.000000000000004 32.42916666666666)"/><use xlink:href="#z" transform="matrix(1,0,0,1,922,527.463915959936) translate(50.59259259259259 32.42916666666666)"/><path d="M980.24 369.7v17.92a.12.12 0 0 1-.12.12.12.12 0 0 0-.12.12v.42" stroke="#000" stroke-width="2" fill="none"/><path d="M981.24 369.72h-2v-1.03h2z" stroke="#000" stroke-width=".05"/><path d="M980 403.54l-4.64-14.26h9.28z" stroke="#000" stroke-width="2"/><path d="M973.6 617.53a10.67 10.67 0 0 1 12.8 0l67.2 50.4a6 6 0 0 1 0 9.6l-67.2 50.4a10.67 10.67 0 0 1-12.8 0l-67.2-50.4a6 6 0 0 1 0-9.6z" stroke="#000" stroke-width="2" fill="#fff"/><use xlink:href="#A" transform="matrix(1,0,0,1,905,617.7305826266027) translate(50.24574074074074 41.36666666666666)"/><use xlink:href="#B" transform="matrix(1,0,0,1,905,617.7305826266027) translate(33.59259259259261 57.36666666666666)"/><use xlink:href="#C" transform="matrix(1,0,0,1,905,617.7305826266027) translate(38.412407407407414 73.36666666666665)"/><path d="M1140 775.73a8 8 0 0 1 8-8h84a8 8 0 0 1 8 8v24a8 8 0 0 1-8 8h-84a8 8 0 0 1-8-8z" stroke="#000" stroke-width="2" fill="#c3f7c8"/><use xlink:href="#D" transform="matrix(1,0,0,1,1152,779.7305826266027) translate(6.240740740740737 13.866666666666667)"/><path d="M1028 800c17.67 0 32 13.43 32 30s-14.33 30-32 30h-96c-17.67 0-32-13.43-32-30s14.33-30 32-30z" stroke="#000" stroke-width="2" fill="#fff"/><use xlink:href="#E" transform="matrix(1,0,0,1,905,805) translate(31.37037037037039 20.116666666666664)"/><use xlink:href="#F" transform="matrix(1,0,0,1,905,805) translate(80.18518518518519 20.116666666666664)"/><use xlink:href="#G" transform="matrix(1,0,0,1,905,805) translate(45.42592592592594 36.11666666666666)"/><path d="M980 449.68V496" stroke="#000" stroke-width="2" fill="none"/><path d="M981 449.7h-2v-1.02h2z" stroke="#000" stroke-width=".05"/><path d="M980 511.28L975.36 497h9.28z" stroke="#000" stroke-width="2"/><path d="M980 581.95v13.94" stroke="#000" stroke-width="2" fill="none"/><path d="M981 581.97h-2v-1.02h2z" stroke="#000" stroke-width=".05"/><path d="M980 611.16l-4.64-14.27h9.28z" stroke="#000" stroke-width="2"/><path d="M981 780.5h-2v-16.4h2zm0-32.4h-2v-16.03h2z" stroke="#000" stroke-width=".05"/><path d="M980 731.07l1-.07v1.1h-2V731z"/><path d="M980 731.04l1.02-.07v1.15H979v-1.15zm-.98 1.03H981v-1.04l-.98.06-.98-.07z" stroke="#000" stroke-width=".05"/><path d="M980 795.76l-4.64-14.26h9.28z"/><path d="M980 799l-6-18.5h12zm-3.26-16.5l3.26 10.03 3.26-10.03z" stroke="#000" stroke-width=".05"/><use xlink:href="#H" transform="matrix(1,0,0,1,970.0185185185185,748.0882243222601) translate(0.005000000000000782 10.666666666666664)"/><path d="M1071 782.7l.05.66.15.6.24.6.33.52.4.48.48.4.54.33.56.23.58.14 46.2.06v2l-46.44-.06-.96-.23-.87-.36-.8-.5-.7-.6-.63-.72-.5-.8-.35-.87-.23-.93-.07-.9v-16.5h2zm-5.06-110.9l.92.22.87.36.8.5.7.6.63.72.5.8.35.88.24.95.04 73.43h-2l-.04-73.2-.14-.56-.24-.58-.33-.54-.4-.48-.48-.4-.54-.33-.56-.24-.6-.15-.68-.05H1058v-2h7.04z" stroke="#000" stroke-width=".05"/><path d="M1058.03 673.73h-1.12l.1-1-.1-1h1.13z"/><path d="M1058.05 673.76h-1.17l.1-1.03-.1-1.02h1.17zm-1.1-2l.08.97-.1.98h1.07v-1.94z" stroke="#000" stroke-width=".05"/><path d="M1135.8 787.73l-14.26 4.64v-9.27z"/><path d="M1139.05 787.73l-18.5 6v-12zm-16.5 3.26l10.02-3.27-10.03-3.26z" stroke="#000" stroke-width=".05"/><use xlink:href="#I" transform="matrix(1,0,0,1,1056.6666666666667,750.256138282524) translate(0.005000000000000782 10.666666666666664)"/><path d="M1190 809.68V825a5 5 0 0 1-5 5h-105.5" stroke="#000" stroke-width="2" fill="none"/><path d="M1191 809.7h-2v-1.02h2z" stroke="#000" stroke-width=".05"/><path d="M1064.24 830l14.26-4.64v9.28z" stroke="#000" stroke-width="2"/><path d="M1120 280.43a8 8 0 0 1 8-8h644a8 8 0 0 1 8 8v451.6a8 8 0 0 1-8 8h-644a8 8 0 0 1-8-8z" stroke="#000" stroke-width="2" fill="#cfe4ff"/><use xlink:href="#J" transform="matrix(1,0,0,1,1132,284.42945113426265) translate(317.99999999999994 228.39166666666665)"/><path d="M1130 293.13a8 8 0 0 1 8-8h224a8 8 0 0 1 8 8v77.1c-40.08-14.2-65.04-14.2-80.16-14.2-24 0-55.92 14.2-79.92 14.2-14.88 0-40.08 0-79.92-14.2z" stroke="#000" stroke-width="2" fill="#fff"/><use xlink:href="#K" transform="matrix(1,0,0,1,1135,290.13058262660246) translate(20.481481481481477 17.679166666666667)"/><use xlink:href="#L" transform="matrix(1,0,0,1,1135,290.13058262660246) translate(52.74074074074073 17.679166666666667)"/><use xlink:href="#M" transform="matrix(1,0,0,1,1135,290.13058262660246) translate(80.07407407407408 17.679166666666667)"/><use xlink:href="#N" transform="matrix(1,0,0,1,1135,290.13058262660246) translate(137.77777777777777 17.679166666666667)"/><use xlink:href="#e" transform="matrix(1,0,0,1,1135,290.13058262660246) translate(19.94444444444444 33.67916666666667)"/><use xlink:href="#O" transform="matrix(1,0,0,1,1135,290.13058262660246) translate(45.87037037037037 33.67916666666667)"/><use xlink:href="#P" transform="matrix(1,0,0,1,1135,290.13058262660246) translate(92.46296296296296 33.67916666666667)"/><use xlink:href="#Q" transform="matrix(1,0,0,1,1135,290.13058262660246) translate(139.01851851851853 33.67916666666667)"/><use xlink:href="#R" transform="matrix(1,0,0,1,1135,290.13058262660246) translate(158.24074074074076 33.67916666666667)"/><use xlink:href="#S" transform="matrix(1,0,0,1,1135,290.13058262660246) translate(59.888888888888886 49.679166666666674)"/><use xlink:href="#T" transform="matrix(1,0,0,1,1135,290.13058262660246) translate(133.88888888888889 49.679166666666674)"/><path d="M1130 413.13a8 8 0 0 1 8-8h224a8 8 0 0 1 8 8v64a8 8 0 0 1-8 8h-224a8 8 0 0 1-8-8z" stroke="#000" stroke-width="2" fill="#fff"/><path d="M1154 405.13v80m192-80v80" stroke="#000" stroke-width="2" fill="none"/><use xlink:href="#U" transform="matrix(1,0,0,1,1165,410.1305826266025) translate(53.94444444444444 15.266666666666666)"/><use xlink:href="#V" transform="matrix(1,0,0,1,1165,410.1305826266025) translate(29.11111111111111 31.266666666666666)"/><use xlink:href="#W" transform="matrix(1,0,0,1,1165,410.1305826266025) translate(118.66666666666667 31.266666666666666)"/><use xlink:href="#X" transform="matrix(1,0,0,1,1165,410.1305826266025) translate(21.870370370370377 47.266666666666666)"/><use xlink:href="#Y" transform="matrix(1,0,0,1,1165,410.1305826266025) translate(81.7962962962963 47.266666666666666)"/><use xlink:href="#Z" transform="matrix(1,0,0,1,1165,410.1305826266025) translate(53.574074074074076 63.266666666666666)"/><path d="M1450 423.13a8 8 0 0 1 8-8h104a8 8 0 0 1 8 8v44a8 8 0 0 1-8 8h-104a8 8 0 0 1-8-8z" stroke="#000" stroke-width="2" fill="#fff"/><use xlink:href="#aa" transform="matrix(1,0,0,1,1462,427.1305826266025) translate(15.111111111111118 20.616666666666667)"/><use xlink:href="#ab" transform="matrix(1,0,0,1,1462,427.1305826266025) translate(70.55555555555554 20.616666666666667)"/><path d="M1371.95 445.13h58.6" stroke="#000" stroke-width="2" fill="none"/><path d="M1371.98 446.13h-1.03v-2h1.03z" stroke="#000" stroke-width=".05"/><path d="M1445.8 445.13l-14.25 4.64v-9.27z" stroke="#000" stroke-width="2"/><path d="M1410 517.2a8 8 0 0 1 8-8h184a8 8 0 0 1 8 8v64.93a8 8 0 0 1-8 8h-184a8 8 0 0 1-8-8z" stroke="#000" stroke-width="2" fill="#fff"/><use xlink:href="#ac" transform="matrix(1,0,0,1,1422,521.1972492932691) translate(14.888888888888896 24.554166666666667)"/><use xlink:href="#ad" transform="matrix(1,0,0,1,1422,521.1972492932691) translate(49.33333333333334 24.554166666666667)"/><use xlink:href="#ae" transform="matrix(1,0,0,1,1422,521.1972492932691) translate(138.88888888888889 24.554166666666667)"/><use xlink:href="#af" transform="matrix(1,0,0,1,1422,521.1972492932691) translate(24.870370370370377 40.55416666666667)"/><use xlink:href="#ag" transform="matrix(1,0,0,1,1422,521.1972492932691) translate(84.7962962962963 40.55416666666667)"/><path d="M1510 477.08v12.66" stroke="#000" stroke-width="2" fill="none"/><path d="M1511 477.1h-2v-1.02h2z" stroke="#000" stroke-width=".05"/><path d="M1510 505l-4.64-14.26h9.28z" stroke="#000" stroke-width="2"/><path d="M1390 629.5a8 8 0 0 1 8-8h224a8 8 0 0 1 8 8v64.95a8 8 0 0 1-8 8h-224a8 8 0 0 1-8-8z" stroke="#000" stroke-width="2" fill="#fff"/><g><use xlink:href="#ah" transform="matrix(1,0,0,1,1402,633.5124008084206) translate(25.499999999999996 24.554166666666667)"/><use xlink:href="#ad" transform="matrix(1,0,0,1,1402,633.5124008084206) translate(78.72222222222223 24.554166666666667)"/><use xlink:href="#ae" transform="matrix(1,0,0,1,1402,633.5124008084206) translate(168.27777777777777 24.554166666666667)"/><use xlink:href="#af" transform="matrix(1,0,0,1,1402,633.5124008084206) translate(44.87037037037038 40.55416666666667)"/><use xlink:href="#ag" transform="matrix(1,0,0,1,1402,633.5124008084206) translate(104.7962962962963 40.55416666666667)"/></g><path d="M1510 592.08v9.98" stroke="#000" stroke-width="2" fill="none"/><path d="M1511 592.1h-2v-1.02h2z" stroke="#000" stroke-width=".05"/><path d="M1510 617.33l-4.64-14.27h9.28z" stroke="#000" stroke-width="2"/><path d="M1670 649.98a8 8 0 0 1 8-8h64a8 8 0 0 1 8 8v24a8 8 0 0 1-8 8h-64a8 8 0 0 1-8-8z" stroke="#000" stroke-width="2" fill="#fff"/><g><use xlink:href="#ai" transform="matrix(1,0,0,1,1682,653.9790674750873) translate(13.574074074074073 14.929166666666667)"/></g><path d="M1631.95 661.98h18.59" stroke="#000" stroke-width="2" fill="none"/><path d="M1631.98 662.98h-1.03v-2h1.03z" stroke="#000" stroke-width=".05"/><path d="M1665.8 661.98l-14.26 4.63v-9.26z" stroke="#000" stroke-width="2"/><path d="M1250 487.08v57.58a5 5 0 0 0 5 5h135.55" stroke="#000" stroke-width="2" fill="none"/><path d="M1251 487.1h-2v-1.02h2z" stroke="#000" stroke-width=".05"/><path d="M1405.8 549.66l-14.25 4.64v-9.27z" stroke="#000" stroke-width="2"/><path d="M1250 487.08v169.9a5 5 0 0 0 5 5h115.55" stroke="#000" stroke-width="2" fill="none"/><path d="M1251 487.1h-2v-1.02h2z" stroke="#000" stroke-width=".05"/><path d="M1385.8 661.98l-14.25 4.63v-9.26z" stroke="#000" stroke-width="2"/><path d="M1250 364.88V385.68" stroke="#000" stroke-width="2" fill="none"/><path d="M1251 364.9h-2v-.8l2-.44z" stroke="#000" stroke-width=".05"/><path d="M1250 400.94l-4.63-14.26h9.27z" stroke="#000" stroke-width="2"/><path d="M1380 420.93h47v48.4h-47z" fill="#fff" fill-opacity="0"/><g><use xlink:href="#aj" transform="matrix(1,0,0,1,1385,425.93058262660253) translate(7.796296296296296 13.866666666666667)"/><use xlink:href="#ak" transform="matrix(1,0,0,1,1385,425.93058262660253) translate(1.1296296296296244 33.06666666666666)"/></g><path d="M1523 479.2h47v20h-47z" fill="#fff" fill-opacity="0"/><g><use xlink:href="#al" transform="matrix(1,0,0,1,1528,484.19421899023905) translate(2.2407407407407387 13.866666666666667)"/></g><path d="M1290 520.02h47v20h-47z" fill="#fff" fill-opacity="0"/><g><use xlink:href="#am" transform="matrix(1,0,0,1,1295,525.0199673460495) translate(-4.4074074074074066 13.866666666666667)"/></g><path d="M1290 666.15h47v20h-47z" fill="#fff" fill-opacity="0"/><g><use xlink:href="#an" transform="matrix(1,0,0,1,1295,671.1487644447843) translate(-8.870370370370377 13.866666666666667)"/></g><path d="M1640 686.15h47v20h-47z" fill="#fff" fill-opacity="0"/><g><use xlink:href="#ao" transform="matrix(1,0,0,1,1645,691.1487644447843) translate(-11.833333333333332 13.866666666666667)"/></g><path d="M1511 895.04l-.08 1.06-.26 1.06-.42 1.02-.57.94-.72.83-.83.72-.94.57-1.02.42-1.1.27-519.1.07-1.06-.08-1.06-.26-1.02-.42-.94-.57-.83-.72-.72-.83-.57-.94-.42-1.02-.27-1.1-.07-16.55h2l.07 16.32.18.72.3.73.4.67.52.6.6.5.66.4.73.3.76.2.82.06 518.78-.07.72-.18.73-.3.67-.4.6-.52.5-.6.4-.66.3-.73.2-.76.06-.82V704.4h2z" stroke="#000" stroke-width=".05"/><path d="M1511 704.42h-2v-1.02h2z"/><path d="M1511.03 704.45h-2.06v-1.08h2.06zm-2-1.03v.98h1.94v-.98z" stroke="#000" stroke-width=".05"/><path d="M984.64 878.5h-9.28l4.64-14.26z"/><path d="M986 879.5h-12l6-18.5zm-9.26-2h6.52L980 867.47zM1711 894.04l-.08 1.06-.26 1.06-.42 1.02-.57.94-.72.83-.83.72-.94.57-1.02.42-1.1.27L1003 901l-.38.24-1.02.42-1.07.26-1.05.08-34.35-.02-.5-.26-.33-.33-.2-.43-.1-.47.1-.47.2-.42.34-.32.42-.22.4-.06h36.97l.54-.47.5-.6.42-.66.3-.73.16-.72.08-16.32h2l-.08 16.56-.26 1.1-.42 1.02-.5.82 699.64-.07.72-.18.73-.3.67-.4.6-.52.5-.6.4-.66.3-.73.2-.76.06-.82V683.93h2z" stroke="#000" stroke-width=".05"/><path d="M1711 683.96h-2v-1.03h2z"/><path d="M1711.03 683.98h-2.06v-1.07h2.06zm-2-1.02v.97h1.94v-.98z" stroke="#000" stroke-width=".05"/><path d="M1010.07 878.5h-9.27l4.64-14.26z"/><path d="M1011.45 879.5h-12.02l6-18.5zm-9.27-2h6.52l-3.26-10.03z" stroke="#000" stroke-width=".05"/><path d="M1051.95 547.73h33.02a.03.03 0 0 1 .04.03.03.03 0 0 0 .04.03h15.52" stroke="#000" stroke-width="2" fill="none"/><path d="M1051.98 548.73h-1.03v-2h1.03z" stroke="#000" stroke-width=".05"/><path d="M1115.82 547.8l-14.26 4.63v-9.27z" stroke="#000" stroke-width="2"/><defs><path d="M27 0v-27h64v-190l-56 39v-29l58-41h29v221h61V0H27" id="ap"/><path d="M33 0v-38h34V0H33" id="aq"/><g id="a"><use transform="matrix(0.03703703703703704,0,0,0.03703703703703704,0,0)" xlink:href="#ap"/><use transform="matrix(0.03703703703703704,0,0,0.03703703703703704,7.407407407407408,0)" xlink:href="#aq"/></g><path d="M30-248c118-7 216 8 213 122C240-48 200 0 122 0H30v-248zM63-27c89 8 146-16 146-99s-60-101-146-95v194" id="ar"/><path d="M100-194c63 0 86 42 84 106H49c0 40 14 67 53 68 26 1 43-12 49-29l28 8c-11 28-37 45-77 45C44 4 14-33 15-96c1-61 26-98 85-98zm52 81c6-60-76-77-97-28-3 7-6 17-6 28h103" id="as"/><path d="M101-234c-31-9-42 10-38 44h38v23H63V0H32v-167H5v-23h27c-7-52 17-82 69-68v24" id="at"/><path d="M24-231v-30h32v30H24zM24 0v-190h32V0H24" id="au"/><path d="M117-194c89-4 53 116 60 194h-32v-121c0-31-8-49-39-48C34-167 62-67 57 0H25l-1-190h30c1 10-1 24 2 32 11-22 29-35 61-36" id="av"/><g id="b"><use transform="matrix(0.03703703703703704,0,0,0.03703703703703704,0,0)" xlink:href="#ar"/><use transform="matrix(0.03703703703703704,0,0,0.03703703703703704,9.592592592592593,0)" xlink:href="#as"/><use transform="matrix(0.03703703703703704,0,0,0.03703703703703704,17,0)" xlink:href="#at"/><use transform="matrix(0.03703703703703704,0,0,0.03703703703703704,20.703703703703702,0)" xlink:href="#au"/><use transform="matrix(0.03703703703703704,0,0,0.03703703703703704,23.62962962962963,0)" xlink:href="#av"/><use transform="matrix(0.03703703703703704,0,0,0.03703703703703704,31.037037037037038,0)" xlink:href="#as"/></g><path d="M114-163C36-179 61-72 57 0H25l-1-190h30c1 12-1 29 2 39 6-27 23-49 58-41v29" id="aw"/><path d="M100-194c62-1 85 37 85 99 1 63-27 99-86 99S16-35 15-95c0-66 28-99 85-99zM99-20c44 1 53-31 53-75 0-43-8-75-51-75s-53 32-53 75 10 74 51 75" id="ax"/><path d="M59-47c-2 24 18 29 38 22v24C64 9 27 4 27-40v-127H5v-23h24l9-43h21v43h35v23H59v120" id="ay"/><g id="c"><use transform="matrix(0.03703703703703704,0,0,0.03703703703703704,0,0)" xlink:href="#aw"/><use transform="matrix(0.03703703703703704,0,0,0.03703703703703704,4.407407407407408,0)" xlink:href="#ax"/><use transform="matrix(0.03703703703703704,0,0,0.03703703703703704,11.814814814814817,0)" xlink:href="#ax"/><use transform="matrix(0.03703703703703704,0,0,0.03703703703703704,19.222222222222225,0)" xlink:href="#ay"/></g><path d="M24 0v-261h32V0H24" id="az"/><path d="M85-194c31 0 48 13 60 33l-1-100h32l1 261h-30c-2-10 0-23-3-31C134-8 116 4 85 4 32 4 16-35 15-94c0-66 23-100 70-100zm9 24c-40 0-46 34-46 75 0 40 6 74 45 74 42 0 51-32 51-76 0-42-9-74-50-73" id="aA"/><g id="d"><use transform="matrix(0.03703703703703704,0,0,0.03703703703703704,0,0)" xlink:href="#at"/><use transform="matrix(0.03703703703703704,0,0,0.03703703703703704,3.703703703703704,0)" xlink:href="#ax"/><use transform="matrix(0.03703703703703704,0,0,0.03703703703703704,11.111111111111112,0)" xlink:href="#az"/><use transform="matrix(0.03703703703703704,0,0,0.03703703703703704,14.037037037037038,0)" xlink:href="#aA"/><use transform="matrix(0.03703703703703704,0,0,0.03703703703703704,21.444444444444446,0)" xlink:href="#as"/><use transform="matrix(0.03703703703703704,0,0,0.03703703703703704,28.851851851851855,0)" xlink:href="#aw"/></g><path d="M141-36C126-15 110 5 73 4 37 3 15-17 15-53c-1-64 63-63 125-63 3-35-9-54-41-54-24 1-41 7-42 31l-33-3c5-37 33-52 76-52 45 0 72 20 72 64v82c-1 20 7 32 28 27v20c-31 9-61-2-59-35zM48-53c0 20 12 33 32 33 41-3 63-29 60-74-43 2-92-5-92 41" id="aB"/><g id="e"><use transform="matrix(0.03703703703703704,0,0,0.03703703703703704,0,0)" xlink:href="#aB"/><use transform="matrix(0.03703703703703704,0,0,0.03703703703703704,7.407407407407408,0)" xlink:href="#av"/><use transform="matrix(0.03703703703703704,0,0,0.03703703703703704,14.814814814814817,0)" xlink:href="#aA"/></g><g id="f"><use transform="matrix(0.03703703703703704,0,0,0.03703703703703704,0,0)" xlink:href="#aA"/><use transform="matrix(0.03703703703703704,0,0,0.03703703703703704,7.407407407407408,0)" xlink:href="#aB"/><use transform="matrix(0.03703703703703704,0,0,0.03703703703703704,14.814814814814817,0)" xlink:href="#ay"/><use transform="matrix(0.03703703703703704,0,0,0.03703703703703704,18.51851851851852,0)" xlink:href="#as"/><use transform="matrix(0.03703703703703704,0,0,0.03703703703703704,25.92592592592593,0)" xlink:href="#aq"/></g><path d="M101-251c82-7 93 87 43 132L82-64C71-53 59-42 53-27h129V0H18c2-99 128-94 128-182 0-28-16-43-45-43s-46 15-49 41l-32-3c6-41 34-60 81-64" id="aC"/><g id="g"><use transform="matrix(0.03703703703703704,0,0,0.03703703703703704,0,0)" xlink:href="#aC"/><use transform="matrix(0.03703703703703704,0,0,0.03703703703703704,7.407407407407408,0)" xlink:href="#aq"/></g><path d="M185-189c-5-48-123-54-124 2 14 75 158 14 163 119 3 78-121 87-175 55-17-10-28-26-33-46l33-7c5 56 141 63 141-1 0-78-155-14-162-118-5-82 145-84 179-34 5 7 8 16 11 25" id="aD"/><g id="h"><use transform="matrix(0.03703703703703704,0,0,0.03703703703703704,0,0)" xlink:href="#aD"/><use transform="matrix(0.03703703703703704,0,0,0.03703703703703704,8.88888888888889,0)" xlink:href="#ay"/><use transform="matrix(0.03703703703703704,0,0,0.03703703703703704,12.592592592592593,0)" xlink:href="#ax"/><use transform="matrix(0.03703703703703704,0,0,0.03703703703703704,20,0)" xlink:href="#aw"/><use transform="matrix(0.03703703703703704,0,0,0.03703703703703704,24.407407407407405,0)" xlink:href="#as"/></g><path d="M233-177c-1 41-23 64-60 70L243 0h-38l-65-103H63V0H30v-248c88 3 205-21 203 71zM63-129c60-2 137 13 137-47 0-61-80-42-137-45v92" id="aE"/><g id="i"><use transform="matrix(0.03703703703703704,0,0,0.03703703703703704,0,0)" xlink:href="#aE"/><use transform="matrix(0.03703703703703704,0,0,0.03703703703703704,9.592592592592593,0)" xlink:href="#aD"/></g><path d="M212-179c-10-28-35-45-73-45-59 0-87 40-87 99 0 60 29 101 89 101 43 0 62-24 78-52l27 14C228-24 195 4 139 4 59 4 22-46 18-125c-6-104 99-153 187-111 19 9 31 26 39 46" id="aF"/><g id="j"><use transform="matrix(0.03703703703703704,0,0,0.03703703703703704,0,0)" xlink:href="#ar"/><use transform="matrix(0.03703703703703704,0,0,0.03703703703703704,9.592592592592593,0)" xlink:href="#aF"/></g><path d="M84 4C-5 8 30-112 23-190h32v120c0 31 7 50 39 49 72-2 45-101 50-169h31l1 190h-30c-1-10 1-25-2-33-11 22-28 36-60 37" id="aG"/><g id="k"><use transform="matrix(0.03703703703703704,0,0,0.03703703703703704,0,0)" xlink:href="#at"/><use transform="matrix(0.03703703703703704,0,0,0.03703703703703704,3.703703703703704,0)" xlink:href="#aG"/><use transform="matrix(0.03703703703703704,0,0,0.03703703703703704,11.111111111111112,0)" xlink:href="#az"/><use transform="matrix(0.03703703703703704,0,0,0.03703703703703704,14.037037037037038,0)" xlink:href="#az"/></g><path d="M115-194c55 1 70 41 70 98S169 2 115 4C84 4 66-9 55-30l1 105H24l-1-265h31l2 30c10-21 28-34 59-34zm-8 174c40 0 45-34 45-75s-6-73-45-74c-42 0-51 32-51 76 0 43 10 73 51 73" id="aH"/><path d="M106-169C34-169 62-67 57 0H25v-261h32l-1 103c12-21 28-36 61-36 89 0 53 116 60 194h-32v-121c2-32-8-49-39-48" id="aI"/><path d="M135-143c-3-34-86-38-87 0 15 53 115 12 119 90S17 21 10-45l28-5c4 36 97 45 98 0-10-56-113-15-118-90-4-57 82-63 122-42 12 7 21 19 24 35" id="aJ"/><g id="l"><use transform="matrix(0.03703703703703704,0,0,0.03703703703703704,0,0)" xlink:href="#aH"/><use transform="matrix(0.03703703703703704,0,0,0.03703703703703704,7.407407407407408,0)" xlink:href="#aB"/><use transform="matrix(0.03703703703703704,0,0,0.03703703703703704,14.814814814814817,0)" xlink:href="#ay"/><use transform="matrix(0.03703703703703704,0,0,0.03703703703703704,18.51851851851852,0)" xlink:href="#aI"/><use transform="matrix(0.03703703703703704,0,0,0.03703703703703704,25.92592592592593,0)" xlink:href="#aJ"/></g><g id="m"><use transform="matrix(0.03703703703703704,0,0,0.03703703703703704,0,0)" xlink:href="#ay"/><use transform="matrix(0.03703703703703704,0,0,0.03703703703703704,3.703703703703704,0)" xlink:href="#ax"/></g><path d="M96-169c-40 0-48 33-48 73s9 75 48 75c24 0 41-14 43-38l32 2c-6 37-31 61-74 61-59 0-76-41-82-99-10-93 101-131 147-64 4 7 5 14 7 22l-32 3c-4-21-16-35-41-35" id="aK"/><g id="n"><use transform="matrix(0.03703703703703704,0,0,0.03703703703703704,0,0)" xlink:href="#aB"/><use transform="matrix(0.03703703703703704,0,0,0.03703703703703704,7.407407407407408,0)" xlink:href="#aK"/><use transform="matrix(0.03703703703703704,0,0,0.03703703703703704,14.074074074074076,0)" xlink:href="#aK"/><use transform="matrix(0.03703703703703704,0,0,0.03703703703703704,20.740740740740744,0)" xlink:href="#as"/><use transform="matrix(0.03703703703703704,0,0,0.03703703703703704,28.148148148148152,0)" xlink:href="#aJ"/><use transform="matrix(0.03703703703703704,0,0,0.03703703703703704,34.814814814814824,0)" xlink:href="#aJ"/></g><g id="o"><use transform="matrix(0.03703703703703704,0,0,0.03703703703703704,0,0)" xlink:href="#aA"/><use transform="matrix(0.03703703703703704,0,0,0.03703703703703704,7.407407407407408,0)" xlink:href="#aB"/><use transform="matrix(0.03703703703703704,0,0,0.03703703703703704,14.814814814814817,0)" xlink:href="#ay"/><use transform="matrix(0.03703703703703704,0,0,0.03703703703703704,18.51851851851852,0)" xlink:href="#aB"/><use transform="matrix(0.03703703703703704,0,0,0.03703703703703704,25.92592592592593,0)" xlink:href="#aq"/></g><path d="M206 0h-36l-40-164L89 0H53L-1-190h32L70-26l43-164h34l41 164 42-164h31" id="aL"/><g id="p"><use transform="matrix(0.04320987654320987,0,0,0.04320987654320987,0,0)" xlink:href="#aE"/><use transform="matrix(0.04320987654320987,0,0,0.04320987654320987,11.191358024691356,0)" xlink:href="#aB"/><use transform="matrix(0.04320987654320987,0,0,0.04320987654320987,19.83333333333333,0)" xlink:href="#aL"/></g><path d="M30 0v-248h33v221h125V0H30" id="aM"/><path d="M33 0v-248h34V0H33" id="aN"/><path d="M205 0l-28-72H64L36 0H1l101-248h38L239 0h-34zm-38-99l-47-123c-12 45-31 82-46 123h93" id="aO"/><g id="q"><use transform="matrix(0.04320987654320987,0,0,0.04320987654320987,0,0)" xlink:href="#aM"/><use transform="matrix(0.04320987654320987,0,0,0.04320987654320987,8.641975308641973,0)" xlink:href="#aN"/><use transform="matrix(0.04320987654320987,0,0,0.04320987654320987,12.962962962962958,0)" xlink:href="#ar"/><use transform="matrix(0.04320987654320987,0,0,0.04320987654320987,24.154320987654316,0)" xlink:href="#aO"/><use transform="matrix(0.04320987654320987,0,0,0.04320987654320987,34.52469135802468,0)" xlink:href="#aE"/></g><g id="r"><use transform="matrix(0.04320987654320987,0,0,0.04320987654320987,0,0)" xlink:href="#aA"/><use transform="matrix(0.04320987654320987,0,0,0.04320987654320987,8.641975308641973,0)" xlink:href="#aB"/><use transform="matrix(0.04320987654320987,0,0,0.04320987654320987,17.283950617283946,0)" xlink:href="#ay"/><use transform="matrix(0.04320987654320987,0,0,0.04320987654320987,21.604938271604933,0)" xlink:href="#aB"/></g><g id="s"><use transform="matrix(0.04320987654320987,0,0,0.04320987654320987,0,0)" xlink:href="#aE"/><use transform="matrix(0.04320987654320987,0,0,0.04320987654320987,11.191358024691356,0)" xlink:href="#aD"/></g><path d="M16-82v-28h88v28H16" id="aP"/><use transform="matrix(0.04320987654320987,0,0,0.04320987654320987,0,0)" xlink:href="#aP" id="t"/><g id="u"><use transform="matrix(0.04320987654320987,0,0,0.04320987654320987,0,0)" xlink:href="#ar"/><use transform="matrix(0.04320987654320987,0,0,0.04320987654320987,11.191358024691356,0)" xlink:href="#aF"/></g><path d="M30-248c87 1 191-15 191 75 0 78-77 80-158 76V0H30v-248zm33 125c57 0 124 11 124-50 0-59-68-47-124-48v98" id="aQ"/><path d="M177-190C167-65 218 103 67 71c-23-6-38-20-44-43l32-5c15 47 100 32 89-28v-30C133-14 115 1 83 1 29 1 15-40 15-95c0-56 16-97 71-98 29-1 48 16 59 35 1-10 0-23 2-32h30zM94-22c36 0 50-32 50-73 0-42-14-75-50-75-39 0-46 34-46 75s6 73 46 73" id="aR"/><g id="v"><use transform="matrix(0.03703703703703703,0,0,0.03703703703703703,0,0)" xlink:href="#aQ"/><use transform="matrix(0.03703703703703703,0,0,0.03703703703703703,8.888888888888888,0)" xlink:href="#aw"/><use transform="matrix(0.03703703703703703,0,0,0.03703703703703703,13.296296296296292,0)" xlink:href="#as"/><use transform="matrix(0.03703703703703703,0,0,0.03703703703703703,20.7037037037037,0)" xlink:href="#aH"/><use transform="matrix(0.03703703703703703,0,0,0.03703703703703703,28.111111111111104,0)" xlink:href="#aw"/><use transform="matrix(0.03703703703703703,0,0,0.03703703703703703,32.51851851851851,0)" xlink:href="#ax"/><use transform="matrix(0.03703703703703703,0,0,0.03703703703703703,39.92592592592592,0)" xlink:href="#aK"/><use transform="matrix(0.03703703703703703,0,0,0.03703703703703703,46.59259259259258,0)" xlink:href="#as"/><use transform="matrix(0.03703703703703703,0,0,0.03703703703703703,53.999999999999986,0)" xlink:href="#aJ"/><use transform="matrix(0.03703703703703703,0,0,0.03703703703703703,60.66666666666665,0)" xlink:href="#aJ"/><use transform="matrix(0.03703703703703703,0,0,0.03703703703703703,67.33333333333331,0)" xlink:href="#au"/><use transform="matrix(0.03703703703703703,0,0,0.03703703703703703,70.25925925925924,0)" xlink:href="#av"/><use transform="matrix(0.03703703703703703,0,0,0.03703703703703703,77.66666666666664,0)" xlink:href="#aR"/></g><g id="w"><use transform="matrix(0.03703703703703703,0,0,0.03703703703703703,0,0)" xlink:href="#ar"/><use transform="matrix(0.03703703703703703,0,0,0.03703703703703703,9.59259259259259,0)" xlink:href="#aB"/><use transform="matrix(0.03703703703703703,0,0,0.03703703703703703,16.999999999999996,0)" xlink:href="#ay"/><use transform="matrix(0.03703703703703703,0,0,0.03703703703703703,20.7037037037037,0)" xlink:href="#aB"/></g><path d="M108 0H70L1-190h34L89-25l56-165h34" id="aS"/><path d="M33-154v-36h34v36H33zM33 0v-36h34V0H33" id="aT"/><g id="x"><use transform="matrix(0.03703703703703703,0,0,0.03703703703703703,0,0)" xlink:href="#au"/><use transform="matrix(0.03703703703703703,0,0,0.03703703703703703,2.925925925925925,0)" xlink:href="#av"/><use transform="matrix(0.03703703703703703,0,0,0.03703703703703703,10.33333333333333,0)" xlink:href="#aS"/><use transform="matrix(0.03703703703703703,0,0,0.03703703703703703,16.999999999999996,0)" xlink:href="#as"/><use transform="matrix(0.03703703703703703,0,0,0.03703703703703703,24.4074074074074,0)" xlink:href="#aw"/><use transform="matrix(0.03703703703703703,0,0,0.03703703703703703,28.81481481481481,0)" xlink:href="#aJ"/><use transform="matrix(0.03703703703703703,0,0,0.03703703703703703,35.481481481481474,0)" xlink:href="#au"/><use transform="matrix(0.03703703703703703,0,0,0.03703703703703703,38.4074074074074,0)" xlink:href="#ax"/><use transform="matrix(0.03703703703703703,0,0,0.03703703703703703,45.8148148148148,0)" xlink:href="#av"/><use transform="matrix(0.03703703703703703,0,0,0.03703703703703703,53.22222222222221,0)" xlink:href="#aT"/></g><path d="M194 0L95-120 63-95V0H30v-248h33v124l119-124h40L117-140 236 0h-42" id="aU"/><path d="M63-220v92h138v28H63V0H30v-248h175v28H63" id="aV"/><g id="y"><use transform="matrix(0.03703703703703703,0,0,0.03703703703703703,0,0)" xlink:href="#aU"/><use transform="matrix(0.03703703703703703,0,0,0.03703703703703703,8.888888888888888,0)" xlink:href="#aV"/><use transform="matrix(0.03703703703703703,0,0,0.03703703703703703,16.999999999999996,0)" xlink:href="#aD"/></g><path d="M210-169c-67 3-38 105-44 169h-31v-121c0-29-5-50-35-48C34-165 62-65 56 0H25l-1-190h30c1 10-1 24 2 32 10-44 99-50 107 0 11-21 27-35 58-36 85-2 47 119 55 194h-31v-121c0-29-5-49-35-48" id="aW"/><g id="z"><use transform="matrix(0.03703703703703703,0,0,0.03703703703703703,0,0)" xlink:href="#aW"/><use transform="matrix(0.03703703703703703,0,0,0.03703703703703703,11.07407407407407,0)" xlink:href="#as"/><use transform="matrix(0.03703703703703703,0,0,0.03703703703703703,18.481481481481477,0)" xlink:href="#ay"/><use transform="matrix(0.03703703703703703,0,0,0.03703703703703703,22.18518518518518,0)" xlink:href="#aI"/><use transform="matrix(0.03703703703703703,0,0,0.03703703703703703,29.592592592592585,0)" xlink:href="#ax"/><use transform="matrix(0.03703703703703703,0,0,0.03703703703703703,36.99999999999999,0)" xlink:href="#aA"/></g><g id="A"><use transform="matrix(0.03703703703703703,0,0,0.03703703703703703,0,0)" xlink:href="#aE"/><use transform="matrix(0.03703703703703703,0,0,0.03703703703703703,9.59259259259259,0)" xlink:href="#as"/><use transform="matrix(0.03703703703703703,0,0,0.03703703703703703,16.999999999999996,0)" xlink:href="#ay"/><use transform="matrix(0.03703703703703703,0,0,0.03703703703703703,20.7037037037037,0)" xlink:href="#aw"/><use transform="matrix(0.03703703703703703,0,0,0.03703703703703703,25.11111111111111,0)" xlink:href="#au"/><use transform="matrix(0.03703703703703703,0,0,0.03703703703703703,28.03703703703703,0)" xlink:href="#as"/><use transform="matrix(0.03703703703703703,0,0,0.03703703703703703,35.444444444444436,0)" xlink:href="#aS"/><use transform="matrix(0.03703703703703703,0,0,0.03703703703703703,42.1111111111111,0)" xlink:href="#as"/></g><path d="M9 0v-24l116-142H16v-24h144v24L44-24h123V0H9" id="aX"/><g id="B"><use transform="matrix(0.03703703703703703,0,0,0.03703703703703703,0,0)" xlink:href="#aA"/><use transform="matrix(0.03703703703703703,0,0,0.03703703703703703,7.407407407407406,0)" xlink:href="#as"/><use transform="matrix(0.03703703703703703,0,0,0.03703703703703703,14.814814814814811,0)" xlink:href="#aH"/><use transform="matrix(0.03703703703703703,0,0,0.03703703703703703,22.222222222222218,0)" xlink:href="#ax"/><use transform="matrix(0.03703703703703703,0,0,0.03703703703703703,29.629629629629623,0)" xlink:href="#az"/><use transform="matrix(0.03703703703703703,0,0,0.03703703703703703,32.55555555555555,0)" xlink:href="#aB"/><use transform="matrix(0.03703703703703703,0,0,0.03703703703703703,39.962962962962955,0)" xlink:href="#aw"/><use transform="matrix(0.03703703703703703,0,0,0.03703703703703703,44.37037037037036,0)" xlink:href="#au"/><use transform="matrix(0.03703703703703703,0,0,0.03703703703703703,47.29629629629628,0)" xlink:href="#aX"/><use transform="matrix(0.03703703703703703,0,0,0.03703703703703703,53.96296296296295,0)" xlink:href="#aB"/><use transform="matrix(0.03703703703703703,0,0,0.03703703703703703,61.37037037037035,0)" xlink:href="#ay"/><use transform="matrix(0.03703703703703703,0,0,0.03703703703703703,65.07407407407406,0)" xlink:href="#au"/><use transform="matrix(0.03703703703703703,0,0,0.03703703703703703,67.99999999999999,0)" xlink:href="#ax"/><use transform="matrix(0.03703703703703703,0,0,0.03703703703703703,75.40740740740739,0)" xlink:href="#av"/></g><path d="M103-251c84 0 111 97 45 133-19 10-37 24-39 52H78c0-63 77-55 77-114 0-30-21-42-52-43-32 0-53 17-56 46l-32-2c7-45 34-72 88-72zM77 0v-35h34V0H77" id="aY"/><g id="C"><use transform="matrix(0.03703703703703703,0,0,0.03703703703703703,0,0)" xlink:href="#au"/><use transform="matrix(0.03703703703703703,0,0,0.03703703703703703,2.925925925925925,0)" xlink:href="#av"/><use transform="matrix(0.03703703703703703,0,0,0.03703703703703703,10.33333333333333,0)" xlink:href="#at"/><use transform="matrix(0.03703703703703703,0,0,0.03703703703703703,14.037037037037033,0)" xlink:href="#ax"/><use transform="matrix(0.03703703703703703,0,0,0.03703703703703703,21.44444444444444,0)" xlink:href="#aw"/><use transform="matrix(0.03703703703703703,0,0,0.03703703703703703,25.851851851851844,0)" xlink:href="#aW"/><use transform="matrix(0.03703703703703703,0,0,0.03703703703703703,36.92592592592592,0)" xlink:href="#aB"/><use transform="matrix(0.03703703703703703,0,0,0.03703703703703703,44.33333333333332,0)" xlink:href="#ay"/><use transform="matrix(0.03703703703703703,0,0,0.03703703703703703,48.037037037037024,0)" xlink:href="#au"/><use transform="matrix(0.03703703703703703,0,0,0.03703703703703703,50.96296296296295,0)" xlink:href="#ax"/><use transform="matrix(0.03703703703703703,0,0,0.03703703703703703,58.37037037037036,0)" xlink:href="#av"/><use transform="matrix(0.03703703703703703,0,0,0.03703703703703703,65.77777777777776,0)" xlink:href="#aY"/></g><path d="M115-194c53 0 69 39 70 98 0 66-23 100-70 100C84 3 66-7 56-30L54 0H23l1-261h32v101c10-23 28-34 59-34zm-8 174c40 0 45-34 45-75 0-40-5-75-45-74-42 0-51 32-51 76 0 43 10 73 51 73" id="aZ"/><g id="D"><use transform="matrix(0.03703703703703704,0,0,0.03703703703703704,0,0)" xlink:href="#aF"/><use transform="matrix(0.03703703703703704,0,0,0.03703703703703704,9.592592592592593,0)" xlink:href="#aB"/><use transform="matrix(0.03703703703703704,0,0,0.03703703703703704,17,0)" xlink:href="#az"/><use transform="matrix(0.03703703703703704,0,0,0.03703703703703704,19.925925925925927,0)" xlink:href="#au"/><use transform="matrix(0.03703703703703704,0,0,0.03703703703703704,22.851851851851855,0)" xlink:href="#aZ"/><use transform="matrix(0.03703703703703704,0,0,0.03703703703703704,30.259259259259263,0)" xlink:href="#aw"/><use transform="matrix(0.03703703703703704,0,0,0.03703703703703704,34.66666666666667,0)" xlink:href="#aB"/><use transform="matrix(0.03703703703703704,0,0,0.03703703703703704,42.074074074074076,0)" xlink:href="#ay"/><use transform="matrix(0.03703703703703704,0,0,0.03703703703703704,45.77777777777778,0)" xlink:href="#au"/><use transform="matrix(0.03703703703703704,0,0,0.03703703703703704,48.7037037037037,0)" xlink:href="#ax"/><use transform="matrix(0.03703703703703704,0,0,0.03703703703703704,56.11111111111111,0)" xlink:href="#av"/></g><g id="E"><use transform="matrix(0.03703703703703703,0,0,0.03703703703703703,0,0)" xlink:href="#aO"/><use transform="matrix(0.03703703703703703,0,0,0.03703703703703703,8.888888888888888,0)" xlink:href="#as"/><use transform="matrix(0.03703703703703703,0,0,0.03703703703703703,16.296296296296294,0)" xlink:href="#aw"/><use transform="matrix(0.03703703703703703,0,0,0.03703703703703703,20.703703703703702,0)" xlink:href="#ax"/><use transform="matrix(0.03703703703703703,0,0,0.03703703703703703,28.111111111111107,0)" xlink:href="#aJ"/><use transform="matrix(0.03703703703703703,0,0,0.03703703703703703,34.77777777777777,0)" xlink:href="#ax"/><use transform="matrix(0.03703703703703703,0,0,0.03703703703703703,42.185185185185176,0)" xlink:href="#az"/></g><g id="F"><use transform="matrix(0.03703703703703703,0,0,0.03703703703703703,0,0)" xlink:href="#ax"/><use transform="matrix(0.03703703703703703,0,0,0.03703703703703703,7.407407407407406,0)" xlink:href="#aH"/><use transform="matrix(0.03703703703703703,0,0,0.03703703703703703,14.814814814814811,0)" xlink:href="#ay"/><use transform="matrix(0.03703703703703703,0,0,0.03703703703703703,18.518518518518515,0)" xlink:href="#au"/><use transform="matrix(0.03703703703703703,0,0,0.03703703703703703,21.44444444444444,0)" xlink:href="#aK"/><use transform="matrix(0.03703703703703703,0,0,0.03703703703703703,28.111111111111104,0)" xlink:href="#aB"/><use transform="matrix(0.03703703703703703,0,0,0.03703703703703703,35.51851851851851,0)" xlink:href="#az"/></g><g id="G"><use transform="matrix(0.03703703703703703,0,0,0.03703703703703703,0,0)" xlink:href="#aH"/><use transform="matrix(0.03703703703703703,0,0,0.03703703703703703,7.407407407407406,0)" xlink:href="#aw"/><use transform="matrix(0.03703703703703703,0,0,0.03703703703703703,11.814814814814815,0)" xlink:href="#ax"/><use transform="matrix(0.03703703703703703,0,0,0.03703703703703703,19.222222222222218,0)" xlink:href="#aH"/><use transform="matrix(0.03703703703703703,0,0,0.03703703703703703,26.629629629629623,0)" xlink:href="#as"/><use transform="matrix(0.03703703703703703,0,0,0.03703703703703703,34.03703703703703,0)" xlink:href="#aw"/><use transform="matrix(0.03703703703703703,0,0,0.03703703703703703,38.444444444444436,0)" xlink:href="#ay"/><use transform="matrix(0.03703703703703703,0,0,0.03703703703703703,42.14814814814814,0)" xlink:href="#au"/><use transform="matrix(0.03703703703703703,0,0,0.03703703703703703,45.07407407407406,0)" xlink:href="#as"/><use transform="matrix(0.03703703703703703,0,0,0.03703703703703703,52.48148148148147,0)" xlink:href="#aJ"/></g><path d="M175 0L67-191c6 58 2 128 3 191H24v-248h59L193-55c-6-58-2-129-3-193h46V0h-61" id="ba"/><path d="M140-251c80 0 125 45 125 126S219 4 139 4C58 4 15-44 15-125s44-126 125-126zm-1 214c52 0 73-35 73-88 0-50-21-86-72-86-52 0-73 35-73 86s22 88 72 88" id="bb"/><g id="H"><use transform="matrix(0.03703703703703702,0,0,0.03703703703703702,0,0)" xlink:href="#ba"/><use transform="matrix(0.03703703703703702,0,0,0.03703703703703702,9.592592592592588,0)" xlink:href="#bb"/></g><path d="M146-102V0H94v-102L6-248h54l60 105 60-105h54" id="bc"/><path d="M24 0v-248h195v40H76v63h132v40H76v65h150V0H24" id="bd"/><path d="M169-182c-1-43-94-46-97-3 18 66 151 10 154 114 3 95-165 93-204 36-6-8-10-19-12-30l50-8c3 46 112 56 116 5-17-69-150-10-154-114-4-87 153-88 188-35 5 8 8 18 10 28" id="be"/><g id="I"><use transform="matrix(0.03703703703703702,0,0,0.03703703703703702,0,0)" xlink:href="#bc"/><use transform="matrix(0.03703703703703702,0,0,0.03703703703703702,8.888888888888886,0)" xlink:href="#bd"/><use transform="matrix(0.03703703703703702,0,0,0.03703703703703702,17.77777777777777,0)" xlink:href="#be"/></g><path d="M127-220V0H93v-220H8v-28h204v28h-85" id="bf"/><path d="M195 0l-74-108L45 0H8l94-129-87-119h37l69 98 67-98h37l-84 118L233 0h-38" id="bg"/><g id="K"><use transform="matrix(0.03703703703703704,0,0,0.03703703703703704,0,0)" xlink:href="#aq"/><use transform="matrix(0.03703703703703704,0,0,0.03703703703703704,3.703703703703704,0)" xlink:href="#bf"/><use transform="matrix(0.03703703703703704,0,0,0.03703703703703704,11.814814814814817,0)" xlink:href="#bg"/><use transform="matrix(0.03703703703703704,0,0,0.03703703703703704,20.703703703703706,0)" xlink:href="#bf"/></g><g id="L"><use transform="matrix(0.03703703703703704,0,0,0.03703703703703704,0,0)" xlink:href="#aL"/><use transform="matrix(0.03703703703703704,0,0,0.03703703703703704,9.592592592592593,0)" xlink:href="#au"/><use transform="matrix(0.03703703703703704,0,0,0.03703703703703704,12.518518518518517,0)" xlink:href="#ay"/><use transform="matrix(0.03703703703703704,0,0,0.03703703703703704,16.22222222222222,0)" xlink:href="#aI"/></g><path d="M68-38c1 34 0 65-14 84H32c9-13 17-26 17-46H33v-38h35" id="bh"/><g id="M"><use transform="matrix(0.03703703703703704,0,0,0.03703703703703704,0,0)" xlink:href="#aH"/><use transform="matrix(0.03703703703703704,0,0,0.03703703703703704,7.407407407407408,0)" xlink:href="#aw"/><use transform="matrix(0.03703703703703704,0,0,0.03703703703703704,11.814814814814817,0)" xlink:href="#as"/><use transform="matrix(0.03703703703703704,0,0,0.03703703703703704,19.222222222222225,0)" xlink:href="#aJ"/><use transform="matrix(0.03703703703703704,0,0,0.03703703703703704,25.888888888888893,0)" xlink:href="#aJ"/><use transform="matrix(0.03703703703703704,0,0,0.03703703703703704,32.55555555555556,0)" xlink:href="#au"/><use transform="matrix(0.03703703703703704,0,0,0.03703703703703704,35.48148148148148,0)" xlink:href="#ax"/><use transform="matrix(0.03703703703703704,0,0,0.03703703703703704,42.888888888888886,0)" xlink:href="#av"/><use transform="matrix(0.03703703703703704,0,0,0.03703703703703704,50.2962962962963,0)" xlink:href="#bh"/></g><g id="N"><use transform="matrix(0.03703703703703704,0,0,0.03703703703703704,0,0)" xlink:href="#ay"/><use transform="matrix(0.03703703703703704,0,0,0.03703703703703704,3.703703703703704,0)" xlink:href="#as"/><use transform="matrix(0.03703703703703704,0,0,0.03703703703703704,11.111111111111112,0)" xlink:href="#aW"/><use transform="matrix(0.03703703703703704,0,0,0.03703703703703704,22.185185185185194,0)" xlink:href="#aH"/><use transform="matrix(0.03703703703703704,0,0,0.03703703703703704,29.592592592592602,0)" xlink:href="#as"/><use transform="matrix(0.03703703703703704,0,0,0.03703703703703704,37.00000000000001,0)" xlink:href="#aw"/><use transform="matrix(0.03703703703703704,0,0,0.03703703703703704,41.40740740740742,0)" xlink:href="#aB"/><use transform="matrix(0.03703703703703704,0,0,0.03703703703703704,48.814814814814824,0)" xlink:href="#ay"/><use transform="matrix(0.03703703703703704,0,0,0.03703703703703704,52.518518518518526,0)" xlink:href="#aG"/><use transform="matrix(0.03703703703703704,0,0,0.03703703703703704,59.92592592592593,0)" xlink:href="#aw"/><use transform="matrix(0.03703703703703704,0,0,0.03703703703703704,64.33333333333334,0)" xlink:href="#as"/></g><g id="O"><use transform="matrix(0.03703703703703704,0,0,0.03703703703703704,0,0)" xlink:href="#aB"/><use transform="matrix(0.03703703703703704,0,0,0.03703703703703704,7.407407407407408,0)" xlink:href="#az"/><use transform="matrix(0.03703703703703704,0,0,0.03703703703703704,10.333333333333334,0)" xlink:href="#ay"/><use transform="matrix(0.03703703703703704,0,0,0.03703703703703704,14.037037037037038,0)" xlink:href="#au"/><use transform="matrix(0.03703703703703704,0,0,0.03703703703703704,16.962962962962965,0)" xlink:href="#ay"/><use transform="matrix(0.03703703703703704,0,0,0.03703703703703704,20.666666666666668,0)" xlink:href="#aG"/><use transform="matrix(0.03703703703703704,0,0,0.03703703703703704,28.074074074074076,0)" xlink:href="#aA"/><use transform="matrix(0.03703703703703704,0,0,0.03703703703703704,35.48148148148149,0)" xlink:href="#as"/></g><g id="P"><use transform="matrix(0.03703703703703704,0,0,0.03703703703703704,0,0)" xlink:href="#aH"/><use transform="matrix(0.03703703703703704,0,0,0.03703703703703704,7.407407407407408,0)" xlink:href="#aw"/><use transform="matrix(0.03703703703703704,0,0,0.03703703703703704,11.814814814814817,0)" xlink:href="#ax"/><use transform="matrix(0.03703703703703704,0,0,0.03703703703703704,19.222222222222225,0)" xlink:href="#at"/><use transform="matrix(0.03703703703703704,0,0,0.03703703703703704,22.925925925925927,0)" xlink:href="#au"/><use transform="matrix(0.03703703703703704,0,0,0.03703703703703704,25.85185185185186,0)" xlink:href="#az"/><use transform="matrix(0.03703703703703704,0,0,0.03703703703703704,28.777777777777786,0)" xlink:href="#as"/><use transform="matrix(0.03703703703703704,0,0,0.03703703703703704,36.18518518518519,0)" xlink:href="#aJ"/></g><g id="Q"><use transform="matrix(0.03703703703703704,0,0,0.03703703703703704,0,0)" xlink:href="#at"/><use transform="matrix(0.03703703703703704,0,0,0.03703703703703704,3.703703703703704,0)" xlink:href="#ax"/><use transform="matrix(0.03703703703703704,0,0,0.03703703703703704,11.111111111111112,0)" xlink:href="#aw"/></g><g id="R"><use transform="matrix(0.03703703703703704,0,0,0.03703703703703704,0,0)" xlink:href="#aJ"/><use transform="matrix(0.03703703703703704,0,0,0.03703703703703704,6.666666666666668,0)" xlink:href="#ay"/><use transform="matrix(0.03703703703703704,0,0,0.03703703703703704,10.370370370370372,0)" xlink:href="#aB"/><use transform="matrix(0.03703703703703704,0,0,0.03703703703703704,17.77777777777778,0)" xlink:href="#av"/><use transform="matrix(0.03703703703703704,0,0,0.03703703703703704,25.185185185185187,0)" xlink:href="#aA"/><use transform="matrix(0.03703703703703704,0,0,0.03703703703703704,32.592592592592595,0)" xlink:href="#aB"/><use transform="matrix(0.03703703703703704,0,0,0.03703703703703704,40,0)" xlink:href="#aw"/><use transform="matrix(0.03703703703703704,0,0,0.03703703703703704,44.407407407407405,0)" xlink:href="#aA"/></g><g id="S"><use transform="matrix(0.03703703703703704,0,0,0.03703703703703704,0,0)" xlink:href="#aB"/><use transform="matrix(0.03703703703703704,0,0,0.03703703703703704,7.407407407407408,0)" xlink:href="#ay"/><use transform="matrix(0.03703703703703704,0,0,0.03703703703703704,11.111111111111112,0)" xlink:href="#aW"/><use transform="matrix(0.03703703703703704,0,0,0.03703703703703704,22.185185185185194,0)" xlink:href="#ax"/><use transform="matrix(0.03703703703703704,0,0,0.03703703703703704,29.592592592592602,0)" xlink:href="#aJ"/><use transform="matrix(0.03703703703703704,0,0,0.03703703703703704,36.25925925925927,0)" xlink:href="#aH"/><use transform="matrix(0.03703703703703704,0,0,0.03703703703703704,43.66666666666667,0)" xlink:href="#aI"/><use transform="matrix(0.03703703703703704,0,0,0.03703703703703704,51.07407407407407,0)" xlink:href="#as"/><use transform="matrix(0.03703703703703704,0,0,0.03703703703703704,58.48148148148148,0)" xlink:href="#aw"/><use transform="matrix(0.03703703703703704,0,0,0.03703703703703704,62.888888888888886,0)" xlink:href="#as"/></g><g id="T"><use transform="matrix(0.03703703703703704,0,0,0.03703703703703704,0,0)" xlink:href="#aW"/><use transform="matrix(0.03703703703703704,0,0,0.03703703703703704,11.074074074074076,0)" xlink:href="#ax"/><use transform="matrix(0.03703703703703704,0,0,0.03703703703703704,18.481481481481485,0)" xlink:href="#aA"/><use transform="matrix(0.03703703703703704,0,0,0.03703703703703704,25.888888888888893,0)" xlink:href="#as"/><use transform="matrix(0.03703703703703704,0,0,0.03703703703703704,33.296296296296305,0)" xlink:href="#az"/></g><path d="M230 0l2-204L168 0h-37L68-204 70 0H24v-248h70l56 185 57-185h69V0h-46" id="bi"/><path d="M110-194c64 0 96 36 96 99 0 64-35 99-97 99-61 0-95-36-95-99 0-62 34-99 96-99zm-1 164c35 0 45-28 45-65 0-40-10-65-43-65-34 0-45 26-45 65 0 36 10 65 43 65" id="bj"/><path d="M25 0v-261h50V0H25" id="bk"/><path d="M185-48c-13 30-37 53-82 52C43 2 14-33 14-96s30-98 90-98c62 0 83 45 84 108H66c0 31 8 55 39 56 18 0 30-7 34-22zm-45-69c5-46-57-63-70-21-2 6-4 13-4 21h74" id="bl"/><path d="M190-63c-7 42-38 67-86 67-59 0-84-38-90-98-12-110 154-137 174-36l-49 2c-2-19-15-32-35-32-30 0-35 28-38 64-6 74 65 87 74 30" id="bm"/><path d="M85 4C-2 5 27-109 22-190h50c7 57-23 150 33 157 60-5 35-97 40-157h50l1 190h-47c-2-12 1-28-3-38-12 25-28 42-61 42" id="bn"/><path d="M133-34C117-15 103 5 69 4 32 3 11-16 11-54c-1-60 55-63 116-61 1-26-3-47-28-47-18 1-26 9-28 27l-52-2c7-38 36-58 82-57s74 22 75 68l1 82c-1 14 12 18 25 15v27c-30 8-71 5-69-32zm-48 3c29 0 43-24 42-57-32 0-66-3-65 30 0 17 8 27 23 27" id="bo"/><path d="M135-150c-39-12-60 13-60 57V0H25l-1-190h47c2 13-1 29 3 40 6-28 27-53 61-41v41" id="bp"/><g id="U"><use transform="matrix(0.03703703703703704,0,0,0.03703703703703704,0,0)" xlink:href="#bi"/><use transform="matrix(0.03703703703703704,0,0,0.03703703703703704,11.074074074074076,0)" xlink:href="#bj"/><use transform="matrix(0.03703703703703704,0,0,0.03703703703703704,19.18518518518519,0)" xlink:href="#bk"/><use transform="matrix(0.03703703703703704,0,0,0.03703703703703704,22.888888888888893,0)" xlink:href="#bl"/><use transform="matrix(0.03703703703703704,0,0,0.03703703703703704,30.2962962962963,0)" xlink:href="#bm"/><use transform="matrix(0.03703703703703704,0,0,0.03703703703703704,37.70370370370371,0)" xlink:href="#bn"/><use transform="matrix(0.03703703703703704,0,0,0.03703703703703704,45.814814814814824,0)" xlink:href="#bk"/><use transform="matrix(0.03703703703703704,0,0,0.03703703703703704,49.518518518518526,0)" xlink:href="#bo"/><use transform="matrix(0.03703703703703704,0,0,0.03703703703703704,56.925925925925945,0)" xlink:href="#bp"/></g><path d="M143 0L79-87 56-68V0H24v-261h32v163l83-92h37l-77 82L181 0h-38" id="bq"/><g id="V"><use transform="matrix(0.03703703703703704,0,0,0.03703703703703704,0,0)" xlink:href="#aZ"/><use transform="matrix(0.03703703703703704,0,0,0.03703703703703704,7.407407407407408,0)" xlink:href="#aB"/><use transform="matrix(0.03703703703703704,0,0,0.03703703703703704,14.814814814814817,0)" xlink:href="#aK"/><use transform="matrix(0.03703703703703704,0,0,0.03703703703703704,21.481481481481485,0)" xlink:href="#bq"/><use transform="matrix(0.03703703703703704,0,0,0.03703703703703704,28.148148148148152,0)" xlink:href="#aJ"/><use transform="matrix(0.03703703703703704,0,0,0.03703703703703704,34.814814814814824,0)" xlink:href="#aK"/><use transform="matrix(0.03703703703703704,0,0,0.03703703703703704,41.481481481481495,0)" xlink:href="#aB"/><use transform="matrix(0.03703703703703704,0,0,0.03703703703703704,48.88888888888891,0)" xlink:href="#ay"/><use transform="matrix(0.03703703703703704,0,0,0.03703703703703704,52.5925925925926,0)" xlink:href="#ay"/><use transform="matrix(0.03703703703703704,0,0,0.03703703703703704,56.296296296296305,0)" xlink:href="#as"/><use transform="matrix(0.03703703703703704,0,0,0.03703703703703704,63.70370370370371,0)" xlink:href="#aw"/><use transform="matrix(0.03703703703703704,0,0,0.03703703703703704,68.11111111111111,0)" xlink:href="#au"/><use transform="matrix(0.03703703703703704,0,0,0.03703703703703704,71.03703703703704,0)" xlink:href="#av"/><use transform="matrix(0.03703703703703704,0,0,0.03703703703703704,78.44444444444444,0)" xlink:href="#aR"/></g><g id="W"><use transform="matrix(0.03703703703703704,0,0,0.03703703703703704,0,0)" xlink:href="#aB"/><use transform="matrix(0.03703703703703704,0,0,0.03703703703703704,7.407407407407408,0)" xlink:href="#av"/><use transform="matrix(0.03703703703703704,0,0,0.03703703703703704,14.814814814814817,0)" xlink:href="#aA"/></g><path d="M141 0L90-78 38 0H4l68-98-65-92h35l48 74 47-74h35l-64 92 68 98h-35" id="br"/><g id="X"><use transform="matrix(0.03703703703703704,0,0,0.03703703703703704,0,0)" xlink:href="#as"/><use transform="matrix(0.03703703703703704,0,0,0.03703703703703704,7.407407407407408,0)" xlink:href="#br"/><use transform="matrix(0.03703703703703704,0,0,0.03703703703703704,14.074074074074076,0)" xlink:href="#ay"/><use transform="matrix(0.03703703703703704,0,0,0.03703703703703704,17.77777777777778,0)" xlink:href="#au"/><use transform="matrix(0.03703703703703704,0,0,0.03703703703703704,20.703703703703706,0)" xlink:href="#av"/><use transform="matrix(0.03703703703703704,0,0,0.03703703703703704,28.111111111111114,0)" xlink:href="#aK"/><use transform="matrix(0.03703703703703704,0,0,0.03703703703703704,34.777777777777786,0)" xlink:href="#ay"/><use transform="matrix(0.03703703703703704,0,0,0.03703703703703704,38.48148148148149,0)" xlink:href="#au"/><use transform="matrix(0.03703703703703704,0,0,0.03703703703703704,41.40740740740741,0)" xlink:href="#ax"/><use transform="matrix(0.03703703703703704,0,0,0.03703703703703704,48.814814814814824,0)" xlink:href="#av"/></g><g id="Y"><use transform="matrix(0.03703703703703704,0,0,0.03703703703703704,0,0)" xlink:href="#aK"/><use transform="matrix(0.03703703703703704,0,0,0.03703703703703704,6.666666666666668,0)" xlink:href="#ax"/><use transform="matrix(0.03703703703703704,0,0,0.03703703703703704,14.074074074074076,0)" xlink:href="#as"/><use transform="matrix(0.03703703703703704,0,0,0.03703703703703704,21.481481481481485,0)" xlink:href="#at"/><use transform="matrix(0.03703703703703704,0,0,0.03703703703703704,24.92592592592593,0)" xlink:href="#at"/><use transform="matrix(0.03703703703703704,0,0,0.03703703703703704,28.629629629629633,0)" xlink:href="#au"/><use transform="matrix(0.03703703703703704,0,0,0.03703703703703704,31.55555555555556,0)" xlink:href="#aK"/><use transform="matrix(0.03703703703703704,0,0,0.03703703703703704,38.22222222222223,0)" xlink:href="#au"/><use transform="matrix(0.03703703703703704,0,0,0.03703703703703704,41.14814814814815,0)" xlink:href="#as"/><use transform="matrix(0.03703703703703704,0,0,0.03703703703703704,48.55555555555555,0)" xlink:href="#av"/><use transform="matrix(0.03703703703703704,0,0,0.03703703703703704,55.96296296296296,0)" xlink:href="#ay"/><use transform="matrix(0.03703703703703704,0,0,0.03703703703703704,59.666666666666664,0)" xlink:href="#aJ"/></g><g id="Z"><use transform="matrix(0.03703703703703704,0,0,0.03703703703703704,0,0)" xlink:href="#aK"/><use transform="matrix(0.03703703703703704,0,0,0.03703703703703704,6.666666666666668,0)" xlink:href="#aB"/><use transform="matrix(0.03703703703703704,0,0,0.03703703703703704,14.074074074074076,0)" xlink:href="#az"/><use transform="matrix(0.03703703703703704,0,0,0.03703703703703704,17.000000000000004,0)" xlink:href="#aK"/><use transform="matrix(0.03703703703703704,0,0,0.03703703703703704,23.66666666666667,0)" xlink:href="#aG"/><use transform="matrix(0.03703703703703704,0,0,0.03703703703703704,31.07407407407408,0)" xlink:href="#az"/><use transform="matrix(0.03703703703703704,0,0,0.03703703703703704,34.00000000000001,0)" xlink:href="#aB"/><use transform="matrix(0.03703703703703704,0,0,0.03703703703703704,41.40740740740742,0)" xlink:href="#ay"/><use transform="matrix(0.03703703703703704,0,0,0.03703703703703704,45.11111111111113,0)" xlink:href="#au"/><use transform="matrix(0.03703703703703704,0,0,0.03703703703703704,48.037037037037045,0)" xlink:href="#ax"/><use transform="matrix(0.03703703703703704,0,0,0.03703703703703704,55.44444444444446,0)" xlink:href="#av"/></g><path d="M179-190L93 31C79 59 56 82 12 73V49c39 6 53-20 64-50L1-190h34L92-34l54-156h33" id="bs"/><g id="aa"><use transform="matrix(0.03703703703703704,0,0,0.03703703703703704,0,0)" xlink:href="#aE"/><use transform="matrix(0.03703703703703704,0,0,0.03703703703703704,9.592592592592593,0)" xlink:href="#aB"/><use transform="matrix(0.03703703703703704,0,0,0.03703703703703704,17,0)" xlink:href="#bs"/><use transform="matrix(0.03703703703703704,0,0,0.03703703703703704,23.66666666666667,0)" xlink:href="#az"/><use transform="matrix(0.03703703703703704,0,0,0.03703703703703704,26.592592592592595,0)" xlink:href="#as"/><use transform="matrix(0.03703703703703704,0,0,0.03703703703703704,34,0)" xlink:href="#au"/><use transform="matrix(0.03703703703703704,0,0,0.03703703703703704,36.925925925925924,0)" xlink:href="#aR"/><use transform="matrix(0.03703703703703704,0,0,0.03703703703703704,44.33333333333333,0)" xlink:href="#aI"/></g><g id="ab"><use transform="matrix(0.03703703703703704,0,0,0.03703703703703704,0,0)" xlink:href="#at"/><use transform="matrix(0.03703703703703704,0,0,0.03703703703703704,3.703703703703704,0)" xlink:href="#au"/><use transform="matrix(0.03703703703703704,0,0,0.03703703703703704,6.629629629629631,0)" xlink:href="#ay"/></g><path d="M136-208V0H84v-208H4v-40h212v40h-80" id="bt"/><path d="M115-3C79 11 28 4 28-45v-112H4v-33h27l15-45h31v45h36v33H77v99c-1 23 16 31 38 25v30" id="bu"/><g id="ac"><use transform="matrix(0.03703703703703704,0,0,0.03703703703703704,0,0)" xlink:href="#bt"/><use transform="matrix(0.03703703703703704,0,0,0.03703703703703704,7.1111111111111125,0)" xlink:href="#bj"/><use transform="matrix(0.03703703703703704,0,0,0.03703703703703704,15.222222222222225,0)" xlink:href="#bu"/><use transform="matrix(0.03703703703703704,0,0,0.03703703703703704,19.629629629629633,0)" xlink:href="#bo"/><use transform="matrix(0.03703703703703704,0,0,0.03703703703703704,27.03703703703704,0)" xlink:href="#bk"/></g><g id="ad"><use transform="matrix(0.03703703703703704,0,0,0.03703703703703704,0,0)" xlink:href="#aZ"/><use transform="matrix(0.03703703703703704,0,0,0.03703703703703704,7.407407407407408,0)" xlink:href="#aB"/><use transform="matrix(0.03703703703703704,0,0,0.03703703703703704,14.814814814814817,0)" xlink:href="#aK"/><use transform="matrix(0.03703703703703704,0,0,0.03703703703703704,21.481481481481485,0)" xlink:href="#bq"/><use transform="matrix(0.03703703703703704,0,0,0.03703703703703704,28.148148148148152,0)" xlink:href="#aJ"/><use transform="matrix(0.03703703703703704,0,0,0.03703703703703704,34.814814814814824,0)" xlink:href="#aK"/><use transform="matrix(0.03703703703703704,0,0,0.03703703703703704,41.481481481481495,0)" xlink:href="#aB"/><use transform="matrix(0.03703703703703704,0,0,0.03703703703703704,48.88888888888891,0)" xlink:href="#ay"/><use transform="matrix(0.03703703703703704,0,0,0.03703703703703704,52.5925925925926,0)" xlink:href="#ay"/><use transform="matrix(0.03703703703703704,0,0,0.03703703703703704,56.296296296296305,0)" xlink:href="#as"/><use transform="matrix(0.03703703703703704,0,0,0.03703703703703704,63.70370370370371,0)" xlink:href="#aw"/><use transform="matrix(0.03703703703703704,0,0,0.03703703703703704,68.11111111111111,0)" xlink:href="#au"/><use transform="matrix(0.03703703703703704,0,0,0.03703703703703704,71.03703703703704,0)" xlink:href="#av"/><use transform="matrix(0.03703703703703704,0,0,0.03703703703703704,78.44444444444444,0)" xlink:href="#aR"/></g><g id="ae"><use transform="matrix(0.03703703703703704,0,0,0.03703703703703704,0,0)" xlink:href="#aB"/><use transform="matrix(0.03703703703703704,0,0,0.03703703703703704,7.407407407407408,0)" xlink:href="#av"/><use transform="matrix(0.03703703703703704,0,0,0.03703703703703704,14.814814814814817,0)" xlink:href="#aA"/></g><g id="af"><use transform="matrix(0.03703703703703704,0,0,0.03703703703703704,0,0)" xlink:href="#as"/><use transform="matrix(0.03703703703703704,0,0,0.03703703703703704,7.407407407407408,0)" xlink:href="#br"/><use transform="matrix(0.03703703703703704,0,0,0.03703703703703704,14.074074074074076,0)" xlink:href="#ay"/><use transform="matrix(0.03703703703703704,0,0,0.03703703703703704,17.77777777777778,0)" xlink:href="#au"/><use transform="matrix(0.03703703703703704,0,0,0.03703703703703704,20.703703703703706,0)" xlink:href="#av"/><use transform="matrix(0.03703703703703704,0,0,0.03703703703703704,28.111111111111114,0)" xlink:href="#aK"/><use transform="matrix(0.03703703703703704,0,0,0.03703703703703704,34.777777777777786,0)" xlink:href="#ay"/><use transform="matrix(0.03703703703703704,0,0,0.03703703703703704,38.48148148148149,0)" xlink:href="#au"/><use transform="matrix(0.03703703703703704,0,0,0.03703703703703704,41.40740740740741,0)" xlink:href="#ax"/><use transform="matrix(0.03703703703703704,0,0,0.03703703703703704,48.814814814814824,0)" xlink:href="#av"/></g><g id="ag"><use transform="matrix(0.03703703703703704,0,0,0.03703703703703704,0,0)" xlink:href="#aK"/><use transform="matrix(0.03703703703703704,0,0,0.03703703703703704,6.666666666666668,0)" xlink:href="#ax"/><use transform="matrix(0.03703703703703704,0,0,0.03703703703703704,14.074074074074076,0)" xlink:href="#as"/><use transform="matrix(0.03703703703703704,0,0,0.03703703703703704,21.481481481481485,0)" xlink:href="#at"/><use transform="matrix(0.03703703703703704,0,0,0.03703703703703704,24.92592592592593,0)" xlink:href="#at"/><use transform="matrix(0.03703703703703704,0,0,0.03703703703703704,28.629629629629633,0)" xlink:href="#au"/><use transform="matrix(0.03703703703703704,0,0,0.03703703703703704,31.55555555555556,0)" xlink:href="#aK"/><use transform="matrix(0.03703703703703704,0,0,0.03703703703703704,38.22222222222223,0)" xlink:href="#au"/><use transform="matrix(0.03703703703703704,0,0,0.03703703703703704,41.14814814814815,0)" xlink:href="#as"/><use transform="matrix(0.03703703703703704,0,0,0.03703703703703704,48.55555555555555,0)" xlink:href="#av"/><use transform="matrix(0.03703703703703704,0,0,0.03703703703703704,55.96296296296296,0)" xlink:href="#ay"/><use transform="matrix(0.03703703703703704,0,0,0.03703703703703704,59.666666666666664,0)" xlink:href="#aJ"/></g><path d="M199 0l-22-63H83L61 0H9l90-248h61L250 0h-51zm-33-102l-36-108c-10 38-24 72-36 108h72" id="bv"/><path d="M137-138c1-29-70-34-71-4 15 46 118 7 119 86 1 83-164 76-172 9l43-7c4 19 20 25 44 25 33 8 57-30 24-41C81-84 22-81 20-136c-2-80 154-74 161-7" id="bw"/><g id="ah"><use transform="matrix(0.03703703703703704,0,0,0.03703703703703704,0,0)" xlink:href="#bv"/><use transform="matrix(0.03703703703703704,0,0,0.03703703703703704,9.592592592592593,0)" xlink:href="#bl"/><use transform="matrix(0.03703703703703704,0,0,0.03703703703703704,17,0)" xlink:href="#bp"/><use transform="matrix(0.03703703703703704,0,0,0.03703703703703704,22.185185185185187,0)" xlink:href="#bj"/><use transform="matrix(0.03703703703703704,0,0,0.03703703703703704,30.296296296296298,0)" xlink:href="#bw"/><use transform="matrix(0.03703703703703704,0,0,0.03703703703703704,37.70370370370371,0)" xlink:href="#bj"/><use transform="matrix(0.03703703703703704,0,0,0.03703703703703704,45.814814814814824,0)" xlink:href="#bk"/></g><path d="M140-251c81 0 123 46 123 126C263-46 219 4 140 4 59 4 17-45 17-125s42-126 123-126zm0 227c63 0 89-41 89-101s-29-99-89-99c-61 0-89 39-89 99S79-25 140-24" id="bx"/><g id="ai"><use transform="matrix(0.03703703703703704,0,0,0.03703703703703704,0,0)" xlink:href="#aO"/><use transform="matrix(0.03703703703703704,0,0,0.03703703703703704,8.88888888888889,0)" xlink:href="#bx"/><use transform="matrix(0.03703703703703704,0,0,0.03703703703703704,19.259259259259256,0)" xlink:href="#ar"/></g><path d="M240 0l2-218c-23 76-54 145-80 218h-23L58-218 59 0H30v-248h44l77 211c21-75 51-140 76-211h43V0h-30" id="by"/><g id="aj"><use transform="matrix(0.03703703703703704,0,0,0.03703703703703704,0,0)" xlink:href="#by"/><use transform="matrix(0.03703703703703704,0,0,0.03703703703703704,11.074074074074076,0)" xlink:href="#ax"/><use transform="matrix(0.03703703703703704,0,0,0.03703703703703704,18.481481481481485,0)" xlink:href="#az"/></g><g id="ak"><use transform="matrix(0.03703703703703704,0,0,0.03703703703703704,0,0)" xlink:href="#aJ"/><use transform="matrix(0.03703703703703704,0,0,0.03703703703703704,6.666666666666668,0)" xlink:href="#au"/><use transform="matrix(0.03703703703703704,0,0,0.03703703703703704,9.592592592592595,0)" xlink:href="#aR"/><use transform="matrix(0.03703703703703704,0,0,0.03703703703703704,17.000000000000004,0)" xlink:href="#av"/><use transform="matrix(0.03703703703703704,0,0,0.03703703703703704,24.407407407407412,0)" xlink:href="#aB"/><use transform="matrix(0.03703703703703704,0,0,0.03703703703703704,31.81481481481482,0)" xlink:href="#az"/></g><path d="M-5 72V49h209v23H-5" id="bz"/><g id="al"><use transform="matrix(0.03703703703703704,0,0,0.03703703703703704,0,0)" xlink:href="#aE"/><use transform="matrix(0.03703703703703704,0,0,0.03703703703703704,9.592592592592593,0)" xlink:href="#bz"/><use transform="matrix(0.03703703703703704,0,0,0.03703703703703704,17,0)" xlink:href="#aw"/><use transform="matrix(0.03703703703703704,0,0,0.03703703703703704,21.407407407407412,0)" xlink:href="#as"/><use transform="matrix(0.03703703703703704,0,0,0.03703703703703704,28.81481481481482,0)" xlink:href="#at"/></g><g id="am"><use transform="matrix(0.03703703703703704,0,0,0.03703703703703704,0,0)" xlink:href="#aM"/><use transform="matrix(0.03703703703703704,0,0,0.03703703703703704,7.407407407407408,0)" xlink:href="#aE"/><use transform="matrix(0.03703703703703704,0,0,0.03703703703703704,17,0)" xlink:href="#bz"/><use transform="matrix(0.03703703703703704,0,0,0.03703703703703704,24.407407407407405,0)" xlink:href="#aW"/><use transform="matrix(0.03703703703703704,0,0,0.03703703703703704,35.48148148148148,0)" xlink:href="#ax"/><use transform="matrix(0.03703703703703704,0,0,0.03703703703703704,42.888888888888886,0)" xlink:href="#az"/></g><g id="an"><use transform="matrix(0.03703703703703704,0,0,0.03703703703703704,0,0)" xlink:href="#aZ"/><use transform="matrix(0.03703703703703704,0,0,0.03703703703703704,7.407407407407408,0)" xlink:href="#as"/><use transform="matrix(0.03703703703703704,0,0,0.03703703703703704,14.814814814814817,0)" xlink:href="#ay"/><use transform="matrix(0.03703703703703704,0,0,0.03703703703703704,18.51851851851852,0)" xlink:href="#aB"/><use transform="matrix(0.03703703703703704,0,0,0.03703703703703704,25.92592592592593,0)" xlink:href="#bz"/><use transform="matrix(0.03703703703703704,0,0,0.03703703703703704,33.333333333333336,0)" xlink:href="#aW"/><use transform="matrix(0.03703703703703704,0,0,0.03703703703703704,44.40740740740741,0)" xlink:href="#ax"/><use transform="matrix(0.03703703703703704,0,0,0.03703703703703704,51.814814814814824,0)" xlink:href="#az"/></g><g id="ao"><use transform="matrix(0.03703703703703704,0,0,0.03703703703703704,0,0)" xlink:href="#aO"/><use transform="matrix(0.03703703703703704,0,0,0.03703703703703704,8.88888888888889,0)" xlink:href="#az"/><use transform="matrix(0.03703703703703704,0,0,0.03703703703703704,11.814814814814817,0)" xlink:href="#aH"/><use transform="matrix(0.03703703703703704,0,0,0.03703703703703704,19.222222222222225,0)" xlink:href="#aI"/><use transform="matrix(0.03703703703703704,0,0,0.03703703703703704,26.629629629629633,0)" xlink:href="#aB"/><use transform="matrix(0.03703703703703704,0,0,0.03703703703703704,34.03703703703704,0)" xlink:href="#bz"/><use transform="matrix(0.03703703703703704,0,0,0.03703703703703704,41.44444444444444,0)" xlink:href="#aB"/><use transform="matrix(0.03703703703703704,0,0,0.03703703703703704,48.85185185185185,0)" xlink:href="#as"/><use transform="matrix(0.03703703703703704,0,0,0.03703703703703704,56.25925925925925,0)" xlink:href="#aw"/></g></defs></g></svg>