<svg xmlns="http://www.w3.org/2000/svg" xmlns:xlink="http://www.w3.org/1999/xlink" xmlns:lucid="lucid" width="1160" height="189"><g transform="translate(-63 -847)" lucid:page-tab-id="0_0"><path d="M0 0h1870.87v1322.83H0z" fill="#fff"/><path d="M130.45 885.8A7.8 7.8 0 0 1 138 880h141.92a4.6 4.6 0 0 1 4.45 5.8l-28.9 108.4a7.8 7.8 0 0 1-7.55 5.8H106a4.6 4.6 0 0 1-4.45-5.8z" stroke="#000" stroke-width="2" fill="#fff"/><use xlink:href="#a" transform="matrix(1,0,0,1,105,885) translate(21.96179012345682 48.597222222222214)"/><use xlink:href="#b" transform="matrix(1,0,0,1,105,885) translate(62.35685185185187 48.597222222222214)"/><use xlink:href="#c" transform="matrix(1,0,0,1,105,885) translate(119.54203703703703 48.597222222222214)"/><use xlink:href="#d" transform="matrix(1,0,0,1,105,885) translate(52.01734567901236 69.93055555555554)"/><use xlink:href="#e" transform="matrix(1,0,0,1,105,885) translate(81.5975925925926 69.93055555555554)"/><use xlink:href="#f" transform="matrix(1,0,0,1,105,885) translate(92.41240740740741 69.93055555555554)"/><path d="M316.9 906a6 6 0 0 1 6-6h189.4a6 6 0 0 1 6 6v68a6 6 0 0 1-6 6H322.9a6 6 0 0 1-6-6z" stroke="#000" stroke-width="2" fill="#fff3d9"/><use xlink:href="#g" transform="matrix(1,0,0,1,328.90140845070425,912) translate(32.28395061728397 31.722222222222218)"/><path d="M564.8 907.33a6 6 0 0 1 6-6h189.4a6 6 0 0 1 6 6v65.34a6 6 0 0 1-6 6H570.8a6 6 0 0 1-6-6z" stroke="#000" stroke-width="2" fill="#cfe4ff"/><use xlink:href="#h" transform="matrix(1,0,0,1,576.7887323943662,913.3333333333334) translate(10.111111111111143 20.972222222222218)"/><use xlink:href="#i" transform="matrix(1,0,0,1,576.7887323943662,913.3333333333334) translate(52.53086419753088 20.972222222222218)"/><use xlink:href="#j" transform="matrix(1,0,0,1,576.7887323943662,913.3333333333334) translate(133.37037037037035 20.972222222222218)"/><use xlink:href="#k" transform="matrix(1,0,0,1,576.7887323943662,913.3333333333334) translate(59.39506172839508 42.30555555555554)"/><path d="M812.68 907.33a6 6 0 0 1 6-6h189.4a6 6 0 0 1 6 6v65.34a6 6 0 0 1-6 6h-189.4a6 6 0 0 1-6-6z" stroke="#000" stroke-width="2" fill="#e3fae3"/><use xlink:href="#l" transform="matrix(1,0,0,1,824.6760563380282,913.3333333333334) translate(32.33333333333336 20.972222222222218)"/><use xlink:href="#m" transform="matrix(1,0,0,1,824.6760563380282,913.3333333333334) translate(48.60493827160495 42.30555555555554)"/><path d="M1172.9 895c14.96 0 27.1 17.9 27.1 40s-12.14 40-27.1 40h-81.35c-14.97 0-27.1-17.9-27.1-40s12.13-40 27.1-40z" stroke="#000" stroke-width="2" fill="#fff"/><use xlink:href="#n" transform="matrix(1,0,0,1,1069.4366197183099,900) translate(4.827160493827186 27.347222222222218)"/><use xlink:href="#o" transform="matrix(1,0,0,1,1069.4366197183099,900) translate(69.91358024691357 27.347222222222218)"/><use xlink:href="#p" transform="matrix(1,0,0,1,1069.4366197183099,900) translate(23.567901234567913 48.68055555555554)"/><path d="M1016.05 940h23a.28.28 0 0 0 .28-.28.28.28 0 0 1 .28-.28h5.5" stroke="#000" stroke-width="2" fill="none"/><path d="M1016.07 941h-1.02v-2h1.02z" stroke="#000" stroke-width=".05"/><path d="M1060.37 939.44l-14.27 4.63v-9.27z" stroke="#000" stroke-width="2"/><path d="M768.16 940h25.05" stroke="#000" stroke-width="2" fill="none"/><path d="M768.2 941h-1.04v-2h1.03z" stroke="#000" stroke-width=".05"/><path d="M808.48 940l-14.27 4.64v-9.28z" stroke="#000" stroke-width="2"/><path d="M520.27 940h25.05" stroke="#000" stroke-width="2" fill="none"/><path d="M520.3 941h-1.03v-2h1.03z" stroke="#000" stroke-width=".05"/><path d="M560.6 940l-14.28 4.64v-9.28z" stroke="#000" stroke-width="2"/><path d="M271.9 940h25.54" stroke="#000" stroke-width="2" fill="none"/><path d="M271.94 941h-1.3l.54-2h.76z" stroke="#000" stroke-width=".05"/><path d="M312.7 940l-14.26 4.64v-9.28z" stroke="#000" stroke-width="2"/><defs><path d="M233-177c-1 41-23 64-60 70L243 0h-38l-65-103H63V0H30v-248c88 3 205-21 203 71zM63-129c60-2 137 13 137-47 0-61-80-42-137-45v92" id="q"/><path d="M141-36C126-15 110 5 73 4 37 3 15-17 15-53c-1-64 63-63 125-63 3-35-9-54-41-54-24 1-41 7-42 31l-33-3c5-37 33-52 76-52 45 0 72 20 72 64v82c-1 20 7 32 28 27v20c-31 9-61-2-59-35zM48-53c0 20 12 33 32 33 41-3 63-29 60-74-43 2-92-5-92 41" id="r"/><path d="M206 0h-36l-40-164L89 0H53L-1-190h32L70-26l43-164h34l41 164 42-164h31" id="s"/><g id="a"><use transform="matrix(0.0493827160493827,0,0,0.0493827160493827,0,0)" xlink:href="#q"/><use transform="matrix(0.0493827160493827,0,0,0.0493827160493827,12.79012345679012,0)" xlink:href="#r"/><use transform="matrix(0.0493827160493827,0,0,0.0493827160493827,22.666666666666657,0)" xlink:href="#s"/></g><path d="M30 0v-248h33v221h125V0H30" id="t"/><path d="M33 0v-248h34V0H33" id="u"/><path d="M30-248c118-7 216 8 213 122C240-48 200 0 122 0H30v-248zM63-27c89 8 146-16 146-99s-60-101-146-95v194" id="v"/><path d="M205 0l-28-72H64L36 0H1l101-248h38L239 0h-34zm-38-99l-47-123c-12 45-31 82-46 123h93" id="w"/><g id="b"><use transform="matrix(0.0493827160493827,0,0,0.0493827160493827,0,0)" xlink:href="#t"/><use transform="matrix(0.0493827160493827,0,0,0.0493827160493827,9.876543209876539,0)" xlink:href="#u"/><use transform="matrix(0.0493827160493827,0,0,0.0493827160493827,14.81481481481481,0)" xlink:href="#v"/><use transform="matrix(0.0493827160493827,0,0,0.0493827160493827,27.60493827160493,0)" xlink:href="#w"/><use transform="matrix(0.0493827160493827,0,0,0.0493827160493827,39.45679012345678,0)" xlink:href="#q"/></g><path d="M85-194c31 0 48 13 60 33l-1-100h32l1 261h-30c-2-10 0-23-3-31C134-8 116 4 85 4 32 4 16-35 15-94c0-66 23-100 70-100zm9 24c-40 0-46 34-46 75 0 40 6 74 45 74 42 0 51-32 51-76 0-42-9-74-50-73" id="x"/><path d="M59-47c-2 24 18 29 38 22v24C64 9 27 4 27-40v-127H5v-23h24l9-43h21v43h35v23H59v120" id="y"/><path d="M33-154v-36h34v36H33zM33 0v-36h34V0H33" id="z"/><g id="c"><use transform="matrix(0.0493827160493827,0,0,0.0493827160493827,0,0)" xlink:href="#x"/><use transform="matrix(0.0493827160493827,0,0,0.0493827160493827,9.876543209876539,0)" xlink:href="#r"/><use transform="matrix(0.0493827160493827,0,0,0.0493827160493827,19.753086419753078,0)" xlink:href="#y"/><use transform="matrix(0.0493827160493827,0,0,0.0493827160493827,24.691358024691347,0)" xlink:href="#r"/><use transform="matrix(0.0493827160493827,0,0,0.0493827160493827,34.567901234567884,0)" xlink:href="#z"/></g><path d="M185-189c-5-48-123-54-124 2 14 75 158 14 163 119 3 78-121 87-175 55-17-10-28-26-33-46l33-7c5 56 141 63 141-1 0-78-155-14-162-118-5-82 145-84 179-34 5 7 8 16 11 25" id="A"/><g id="d"><use transform="matrix(0.0493827160493827,0,0,0.0493827160493827,0,0)" xlink:href="#q"/><use transform="matrix(0.0493827160493827,0,0,0.0493827160493827,12.79012345679012,0)" xlink:href="#A"/></g><path d="M16-82v-28h88v28H16" id="B"/><use transform="matrix(0.0493827160493827,0,0,0.0493827160493827,0,0)" xlink:href="#B" id="e"/><path d="M212-179c-10-28-35-45-73-45-59 0-87 40-87 99 0 60 29 101 89 101 43 0 62-24 78-52l27 14C228-24 195 4 139 4 59 4 22-46 18-125c-6-104 99-153 187-111 19 9 31 26 39 46" id="C"/><g id="f"><use transform="matrix(0.0493827160493827,0,0,0.0493827160493827,0,0)" xlink:href="#v"/><use transform="matrix(0.0493827160493827,0,0,0.0493827160493827,12.79012345679012,0)" xlink:href="#C"/></g><path d="M30-248c87 1 191-15 191 75 0 78-77 80-158 76V0H30v-248zm33 125c57 0 124 11 124-50 0-59-68-47-124-48v98" id="D"/><path d="M114-163C36-179 61-72 57 0H25l-1-190h30c1 12-1 29 2 39 6-27 23-49 58-41v29" id="E"/><path d="M100-194c63 0 86 42 84 106H49c0 40 14 67 53 68 26 1 43-12 49-29l28 8c-11 28-37 45-77 45C44 4 14-33 15-96c1-61 26-98 85-98zm52 81c6-60-76-77-97-28-3 7-6 17-6 28h103" id="F"/><path d="M115-194c55 1 70 41 70 98S169 2 115 4C84 4 66-9 55-30l1 105H24l-1-265h31l2 30c10-21 28-34 59-34zm-8 174c40 0 45-34 45-75s-6-73-45-74c-42 0-51 32-51 76 0 43 10 73 51 73" id="G"/><path d="M100-194c62-1 85 37 85 99 1 63-27 99-86 99S16-35 15-95c0-66 28-99 85-99zM99-20c44 1 53-31 53-75 0-43-8-75-51-75s-53 32-53 75 10 74 51 75" id="H"/><path d="M96-169c-40 0-48 33-48 73s9 75 48 75c24 0 41-14 43-38l32 2c-6 37-31 61-74 61-59 0-76-41-82-99-10-93 101-131 147-64 4 7 5 14 7 22l-32 3c-4-21-16-35-41-35" id="I"/><path d="M135-143c-3-34-86-38-87 0 15 53 115 12 119 90S17 21 10-45l28-5c4 36 97 45 98 0-10-56-113-15-118-90-4-57 82-63 122-42 12 7 21 19 24 35" id="J"/><path d="M24-231v-30h32v30H24zM24 0v-190h32V0H24" id="K"/><path d="M117-194c89-4 53 116 60 194h-32v-121c0-31-8-49-39-48C34-167 62-67 57 0H25l-1-190h30c1 10-1 24 2 32 11-22 29-35 61-36" id="L"/><path d="M177-190C167-65 218 103 67 71c-23-6-38-20-44-43l32-5c15 47 100 32 89-28v-30C133-14 115 1 83 1 29 1 15-40 15-95c0-56 16-97 71-98 29-1 48 16 59 35 1-10 0-23 2-32h30zM94-22c36 0 50-32 50-73 0-42-14-75-50-75-39 0-46 34-46 75s6 73 46 73" id="M"/><g id="g"><use transform="matrix(0.0493827160493827,0,0,0.0493827160493827,0,0)" xlink:href="#D"/><use transform="matrix(0.0493827160493827,0,0,0.0493827160493827,11.851851851851848,0)" xlink:href="#E"/><use transform="matrix(0.0493827160493827,0,0,0.0493827160493827,17.72839506172839,0)" xlink:href="#F"/><use transform="matrix(0.0493827160493827,0,0,0.0493827160493827,27.60493827160493,0)" xlink:href="#G"/><use transform="matrix(0.0493827160493827,0,0,0.0493827160493827,37.48148148148147,0)" xlink:href="#E"/><use transform="matrix(0.0493827160493827,0,0,0.0493827160493827,43.35802469135801,0)" xlink:href="#H"/><use transform="matrix(0.0493827160493827,0,0,0.0493827160493827,53.23456790123455,0)" xlink:href="#I"/><use transform="matrix(0.0493827160493827,0,0,0.0493827160493827,62.123456790123434,0)" xlink:href="#F"/><use transform="matrix(0.0493827160493827,0,0,0.0493827160493827,71.99999999999997,0)" xlink:href="#J"/><use transform="matrix(0.0493827160493827,0,0,0.0493827160493827,80.88888888888886,0)" xlink:href="#J"/><use transform="matrix(0.0493827160493827,0,0,0.0493827160493827,89.77777777777774,0)" xlink:href="#K"/><use transform="matrix(0.0493827160493827,0,0,0.0493827160493827,93.67901234567897,0)" xlink:href="#L"/><use transform="matrix(0.0493827160493827,0,0,0.0493827160493827,103.55555555555551,0)" xlink:href="#M"/></g><g id="h"><use transform="matrix(0.0493827160493827,0,0,0.0493827160493827,0,0)" xlink:href="#v"/><use transform="matrix(0.0493827160493827,0,0,0.0493827160493827,12.79012345679012,0)" xlink:href="#r"/><use transform="matrix(0.0493827160493827,0,0,0.0493827160493827,22.666666666666657,0)" xlink:href="#y"/><use transform="matrix(0.0493827160493827,0,0,0.0493827160493827,27.604938271604922,0)" xlink:href="#r"/></g><path d="M108 0H70L1-190h34L89-25l56-165h34" id="N"/><g id="i"><use transform="matrix(0.0493827160493827,0,0,0.0493827160493827,0,0)" xlink:href="#K"/><use transform="matrix(0.0493827160493827,0,0,0.0493827160493827,3.9012345679012332,0)" xlink:href="#L"/><use transform="matrix(0.0493827160493827,0,0,0.0493827160493827,13.77777777777777,0)" xlink:href="#N"/><use transform="matrix(0.0493827160493827,0,0,0.0493827160493827,22.666666666666657,0)" xlink:href="#F"/><use transform="matrix(0.0493827160493827,0,0,0.0493827160493827,32.543209876543195,0)" xlink:href="#E"/><use transform="matrix(0.0493827160493827,0,0,0.0493827160493827,38.41975308641973,0)" xlink:href="#J"/><use transform="matrix(0.0493827160493827,0,0,0.0493827160493827,47.30864197530862,0)" xlink:href="#K"/><use transform="matrix(0.0493827160493827,0,0,0.0493827160493827,51.209876543209845,0)" xlink:href="#H"/><use transform="matrix(0.0493827160493827,0,0,0.0493827160493827,61.08641975308639,0)" xlink:href="#L"/><use transform="matrix(0.0493827160493827,0,0,0.0493827160493827,70.96296296296293,0)" xlink:href="#z"/></g><path d="M194 0L95-120 63-95V0H30v-248h33v124l119-124h40L117-140 236 0h-42" id="O"/><path d="M63-220v92h138v28H63V0H30v-248h175v28H63" id="P"/><g id="j"><use transform="matrix(0.0493827160493827,0,0,0.0493827160493827,0,0)" xlink:href="#O"/><use transform="matrix(0.0493827160493827,0,0,0.0493827160493827,11.851851851851848,0)" xlink:href="#P"/><use transform="matrix(0.0493827160493827,0,0,0.0493827160493827,22.666666666666657,0)" xlink:href="#A"/></g><path d="M210-169c-67 3-38 105-44 169h-31v-121c0-29-5-50-35-48C34-165 62-65 56 0H25l-1-190h30c1 10-1 24 2 32 10-44 99-50 107 0 11-21 27-35 58-36 85-2 47 119 55 194h-31v-121c0-29-5-49-35-48" id="Q"/><path d="M106-169C34-169 62-67 57 0H25v-261h32l-1 103c12-21 28-36 61-36 89 0 53 116 60 194h-32v-121c2-32-8-49-39-48" id="R"/><g id="k"><use transform="matrix(0.0493827160493827,0,0,0.0493827160493827,0,0)" xlink:href="#Q"/><use transform="matrix(0.0493827160493827,0,0,0.0493827160493827,14.765432098765427,0)" xlink:href="#F"/><use transform="matrix(0.0493827160493827,0,0,0.0493827160493827,24.641975308641968,0)" xlink:href="#y"/><use transform="matrix(0.0493827160493827,0,0,0.0493827160493827,29.580246913580236,0)" xlink:href="#R"/><use transform="matrix(0.0493827160493827,0,0,0.0493827160493827,39.45679012345678,0)" xlink:href="#H"/><use transform="matrix(0.0493827160493827,0,0,0.0493827160493827,49.333333333333314,0)" xlink:href="#x"/></g><path d="M24 0v-261h32V0H24" id="S"/><path d="M9 0v-24l116-142H16v-24h144v24L44-24h123V0H9" id="T"/><g id="l"><use transform="matrix(0.0493827160493827,0,0,0.0493827160493827,0,0)" xlink:href="#v"/><use transform="matrix(0.0493827160493827,0,0,0.0493827160493827,12.79012345679012,0)" xlink:href="#F"/><use transform="matrix(0.0493827160493827,0,0,0.0493827160493827,22.666666666666657,0)" xlink:href="#G"/><use transform="matrix(0.0493827160493827,0,0,0.0493827160493827,32.543209876543195,0)" xlink:href="#H"/><use transform="matrix(0.0493827160493827,0,0,0.0493827160493827,42.41975308641973,0)" xlink:href="#S"/><use transform="matrix(0.0493827160493827,0,0,0.0493827160493827,46.320987654320966,0)" xlink:href="#r"/><use transform="matrix(0.0493827160493827,0,0,0.0493827160493827,56.1975308641975,0)" xlink:href="#E"/><use transform="matrix(0.0493827160493827,0,0,0.0493827160493827,62.074074074074055,0)" xlink:href="#K"/><use transform="matrix(0.0493827160493827,0,0,0.0493827160493827,65.97530864197527,0)" xlink:href="#T"/><use transform="matrix(0.0493827160493827,0,0,0.0493827160493827,74.86419753086416,0)" xlink:href="#r"/><use transform="matrix(0.0493827160493827,0,0,0.0493827160493827,84.7407407407407,0)" xlink:href="#y"/><use transform="matrix(0.0493827160493827,0,0,0.0493827160493827,89.67901234567897,0)" xlink:href="#K"/><use transform="matrix(0.0493827160493827,0,0,0.0493827160493827,93.5802469135802,0)" xlink:href="#H"/><use transform="matrix(0.0493827160493827,0,0,0.0493827160493827,103.45679012345673,0)" xlink:href="#L"/></g><path d="M115-194c53 0 69 39 70 98 0 66-23 100-70 100C84 3 66-7 56-30L54 0H23l1-261h32v101c10-23 28-34 59-34zm-8 174c40 0 45-34 45-75 0-40-5-75-45-74-42 0-51 32-51 76 0 43 10 73 51 73" id="U"/><g id="m"><use transform="matrix(0.0493827160493827,0,0,0.0493827160493827,0,0)" xlink:href="#I"/><use transform="matrix(0.0493827160493827,0,0,0.0493827160493827,8.888888888888886,0)" xlink:href="#r"/><use transform="matrix(0.0493827160493827,0,0,0.0493827160493827,18.765432098765423,0)" xlink:href="#S"/><use transform="matrix(0.0493827160493827,0,0,0.0493827160493827,22.666666666666657,0)" xlink:href="#K"/><use transform="matrix(0.0493827160493827,0,0,0.0493827160493827,26.56790123456789,0)" xlink:href="#U"/><use transform="matrix(0.0493827160493827,0,0,0.0493827160493827,36.44444444444443,0)" xlink:href="#E"/><use transform="matrix(0.0493827160493827,0,0,0.0493827160493827,42.32098765432097,0)" xlink:href="#r"/><use transform="matrix(0.0493827160493827,0,0,0.0493827160493827,52.19753086419751,0)" xlink:href="#y"/><use transform="matrix(0.0493827160493827,0,0,0.0493827160493827,57.13580246913578,0)" xlink:href="#K"/><use transform="matrix(0.0493827160493827,0,0,0.0493827160493827,61.03703703703702,0)" xlink:href="#H"/><use transform="matrix(0.0493827160493827,0,0,0.0493827160493827,70.91358024691355,0)" xlink:href="#L"/></g><g id="n"><use transform="matrix(0.0493827160493827,0,0,0.0493827160493827,0,0)" xlink:href="#w"/><use transform="matrix(0.0493827160493827,0,0,0.0493827160493827,11.851851851851848,0)" xlink:href="#F"/><use transform="matrix(0.0493827160493827,0,0,0.0493827160493827,21.728395061728385,0)" xlink:href="#E"/><use transform="matrix(0.0493827160493827,0,0,0.0493827160493827,27.604938271604922,0)" xlink:href="#H"/><use transform="matrix(0.0493827160493827,0,0,0.0493827160493827,37.48148148148147,0)" xlink:href="#J"/><use transform="matrix(0.0493827160493827,0,0,0.0493827160493827,46.37037037037035,0)" xlink:href="#H"/><use transform="matrix(0.0493827160493827,0,0,0.0493827160493827,56.2469135802469,0)" xlink:href="#S"/></g><g id="o"><use transform="matrix(0.0493827160493827,0,0,0.0493827160493827,0,0)" xlink:href="#H"/><use transform="matrix(0.0493827160493827,0,0,0.0493827160493827,9.876543209876539,0)" xlink:href="#G"/><use transform="matrix(0.0493827160493827,0,0,0.0493827160493827,19.753086419753078,0)" xlink:href="#y"/><use transform="matrix(0.0493827160493827,0,0,0.0493827160493827,24.691358024691347,0)" xlink:href="#K"/><use transform="matrix(0.0493827160493827,0,0,0.0493827160493827,28.592592592592585,0)" xlink:href="#I"/><use transform="matrix(0.0493827160493827,0,0,0.0493827160493827,37.48148148148147,0)" xlink:href="#r"/><use transform="matrix(0.0493827160493827,0,0,0.0493827160493827,47.358024691358004,0)" xlink:href="#S"/></g><g id="p"><use transform="matrix(0.0493827160493827,0,0,0.0493827160493827,0,0)" xlink:href="#G"/><use transform="matrix(0.0493827160493827,0,0,0.0493827160493827,9.876543209876539,0)" xlink:href="#E"/><use transform="matrix(0.0493827160493827,0,0,0.0493827160493827,15.753086419753082,0)" xlink:href="#H"/><use transform="matrix(0.0493827160493827,0,0,0.0493827160493827,25.629629629629623,0)" xlink:href="#G"/><use transform="matrix(0.0493827160493827,0,0,0.0493827160493827,35.506172839506156,0)" xlink:href="#F"/><use transform="matrix(0.0493827160493827,0,0,0.0493827160493827,45.382716049382694,0)" xlink:href="#E"/><use transform="matrix(0.0493827160493827,0,0,0.0493827160493827,51.259259259259245,0)" xlink:href="#y"/><use transform="matrix(0.0493827160493827,0,0,0.0493827160493827,56.19753086419751,0)" xlink:href="#K"/><use transform="matrix(0.0493827160493827,0,0,0.0493827160493827,60.098765432098745,0)" xlink:href="#F"/><use transform="matrix(0.0493827160493827,0,0,0.0493827160493827,69.97530864197529,0)" xlink:href="#J"/></g></defs></g></svg>