<svg xmlns="http://www.w3.org/2000/svg" xmlns:xlink="http://www.w3.org/1999/xlink" xmlns:lucid="lucid" width="938" height="674"><g transform="translate(-863 -43)" lucid:page-tab-id="0eqBfotfVGlV"><path d="M903.87 110.33a10.4 10.4 0 0 1 10.06-7.73h128a6.15 6.15 0 0 1 5.94 7.73L1036 154.9a10.4 10.4 0 0 1-10.08 7.72h-128a6.15 6.15 0 0 1-5.93-7.73z" stroke="#333" fill="#fff"/><use xlink:href="#a" transform="matrix(1,0,0,1,894.9298391221039,107.60000000000002) translate(16.731481481481485 18.831944444444446)"/><use xlink:href="#b" transform="matrix(1,0,0,1,894.9298391221039,107.60000000000002) translate(61.62654320987655 18.831944444444446)"/><use xlink:href="#c" transform="matrix(1,0,0,1,894.9298391221039,107.60000000000002) translate(112.57098765432099 18.831944444444446)"/><use xlink:href="#d" transform="matrix(1,0,0,1,894.9298391221039,107.60000000000002) translate(52.141975308641975 37.49861111111112)"/><path d="M900 210.6a8 8 0 0 1 8-8h144a8 8 0 0 1 8 8v24a8 8 0 0 1-8 8H908a8 8 0 0 1-8-8z" stroke="#333" fill="#fff3d9"/><use xlink:href="#e" transform="matrix(1,0,0,1,912,214.60000000000008) translate(2.4290123456790162 15.644444444444446)"/><path d="M880 320.6a8 8 0 0 1 8-8h184a8 8 0 0 1 8 8v44a8 8 0 0 1-8 8H888a8 8 0 0 1-8-8z" stroke="#333" fill="#cfe4ff"/><use xlink:href="#f" transform="matrix(1,0,0,1,892,324.60000000000014) translate(12.058641975308642 15.644444444444446)"/><use xlink:href="#g" transform="matrix(1,0,0,1,892,324.60000000000014) translate(79.37962962962965 15.644444444444446)"/><use xlink:href="#h" transform="matrix(1,0,0,1,892,324.60000000000014) translate(44.83333333333333 34.31111111111112)"/><use xlink:href="#i" transform="matrix(1,0,0,1,892,324.60000000000014) translate(100.96296296296296 34.31111111111112)"/><path d="M980.07 163.56v19a.04.04 0 0 1-.03.05.04.04 0 0 0-.04.04v3.12" stroke="#333" fill="none"/><path d="M980.57 163.57h-1v-.5h1z" stroke="#333" stroke-width=".05" fill="#333"/><path d="M980 200.53l-4.64-14.27h9.28z" stroke="#333" fill="#333"/><path d="M973.6 412.4a10.67 10.67 0 0 1 12.8 0l67.2 50.4a6 6 0 0 1 0 9.6l-67.2 50.4a10.67 10.67 0 0 1-12.8 0l-67.2-50.4a6 6 0 0 1 0-9.6z" stroke="#333" fill="#fff"/><use xlink:href="#j" transform="matrix(1,0,0,1,905,412.60000000000014) translate(34.04203703703703 46.581944444444446)"/><use xlink:href="#k" transform="matrix(1,0,0,1,905,412.60000000000014) translate(20.646975308641967 65.24861111111112)"/><path d="M1140 570.6a8 8 0 0 1 8-8h84a8 8 0 0 1 8 8v24a8 8 0 0 1-8 8h-84a8 8 0 0 1-8-8z" stroke="#333" fill="#c3f7c8"/><use xlink:href="#l" transform="matrix(1,0,0,1,1152,574.6000000000001) translate(-0.780864197530871 15.644444444444446)"/><path d="M1028 577.43c17.67 0 32 17.9 32 40s-14.33 40-32 40h-96c-17.67 0-32-17.9-32-40s14.33-40 32-40z" stroke="#333" fill="#fff"/><use xlink:href="#m" transform="matrix(1,0,0,1,905,582.4250358137465) translate(31.40123456790123 20.019444444444446)"/><use xlink:href="#n" transform="matrix(1,0,0,1,905,582.4250358137465) translate(39.589506172839506 38.68611111111112)"/><use xlink:href="#o" transform="matrix(1,0,0,1,905,582.4250358137465) translate(93.12654320987656 38.68611111111112)"/><use xlink:href="#p" transform="matrix(1,0,0,1,905,582.4250358137465) translate(41.339506172839506 57.35277777777779)"/><path d="M980 243.55v52.22" stroke="#333" fill="none"/><path d="M980.5 243.56h-1v-.5h1z" stroke="#333" stroke-width=".05" fill="#333"/><path d="M980 310.53l-4.64-14.26h9.28z" stroke="#333" fill="#333"/><path d="M980 373.55v19.83" stroke="#333" fill="none"/><path d="M980.5 373.56h-1v-.5h1z" stroke="#333" stroke-width=".05" fill="#333"/><path d="M980 408.15l-4.64-14.27h9.28z" stroke="#333" fill="#333"/><path d="M980.5 560.54h-1v-8.14h1zm0-24.14h-1v-10.47h1z" stroke="#333" stroke-width=".05" fill="#333"/><path d="M980 525.43l.5-.03v.55h-1v-.55z" fill="#333"/><path d="M980 525.4l.52-.02v.6h-1.04v-.6zm-.48.52h.96v-.5l-.48.04-.48-.03z" stroke="#333" stroke-width=".05" fill="#333"/><path d="M980 575.3l-4.64-14.26h9.28z" fill="#333"/><path d="M980 576.93l-5.32-16.4h10.64zm-3.95-15.4L980 573.7l3.95-12.16z" stroke="#333" stroke-width=".05" fill="#333"/><use xlink:href="#q" transform="matrix(1,0,0,1,971.5,536.4000000000001) translate(0.005000000000000782 10.666666666666668)"/><path d="M1070.5 577.58l.06.72.16.7.27.64.36.6.46.54.54.46.6.37.65.28.68.16 48.88.06v1l-49-.06-.86-.2-.8-.34-.73-.45-.66-.56-.55-.67-.45-.73-.33-.8-.2-.84-.07-.84v-16.5h1zm-4.64-110.4l.84.2.8.32.73.45.66.56.55.67.45.73.33.8.2.86.05 73.36h-1l-.04-73.24-.16-.67-.27-.64-.36-.6-.46-.54-.54-.46-.6-.37-.65-.28-.7-.16-.72-.06H1057v-1h8.02z" stroke="#333" stroke-width=".05" fill="#333"/><path d="M1057 468.1h-.54l.04-.5-.04-.5h.55z" fill="#333"/><path d="M1057.04 468.13h-.6l.04-.53-.05-.53h.6zm-.56-1l.05.47-.05.47h.5v-.94z" stroke="#333" stroke-width=".05" fill="#333"/><path d="M1137.93 582.6l-14.27 4.64v-9.28z" fill="#333"/><path d="M1139.55 582.6l-16.4 5.32v-10.64zm-15.4 3.95l12.16-3.95-12.14-3.95z" stroke="#333" stroke-width=".05" fill="#333"/><use xlink:href="#r" transform="matrix(1,0,0,1,1063.7037037037037,545.1244786392565) translate(0.004999999999999893 10.666666666666668)"/><path d="M1190 603.55v8.88a5 5 0 0 1-5 5h-108.12" stroke="#333" fill="none"/><path d="M1190.5 603.56h-1v-.5h1z" stroke="#333" stroke-width=".05" fill="#333"/><path d="M1062.12 617.43l14.26-4.64v9.26z" stroke="#333" fill="#333"/><path d="M1100 68a8 8 0 0 1 8-8h664a8 8 0 0 1 8 8v464a8 8 0 0 1-8 8h-664a8 8 0 0 1-8-8z" stroke="#333" fill="#cfe4ff"/><use xlink:href="#s" transform="matrix(1,0,0,1,1112,72) translate(327.99999999999994 234.01666666666665)"/><path d="M1130 88a8 8 0 0 1 8-8h224a8 8 0 0 1 8 8v77.1c-40.08-14.2-65.04-14.2-80.16-14.2-24 0-55.92 14.2-79.92 14.2-14.88 0-40.08 0-79.92-14.2z" stroke="#333" fill="#fff"/><use xlink:href="#t" transform="matrix(1,0,0,1,1135,84.99999999999994) translate(30.074074074074073 17.679166666666667)"/><use xlink:href="#u" transform="matrix(1,0,0,1,1135,84.99999999999994) translate(62.33333333333333 17.679166666666667)"/><use xlink:href="#v" transform="matrix(1,0,0,1,1135,84.99999999999994) translate(87.51851851851852 17.679166666666667)"/><use xlink:href="#w" transform="matrix(1,0,0,1,1135,84.99999999999994) translate(134.07407407407408 17.679166666666667)"/><use xlink:href="#x" transform="matrix(1,0,0,1,1135,84.99999999999994) translate(152.5925925925926 17.679166666666667)"/><use xlink:href="#y" transform="matrix(1,0,0,1,1135,84.99999999999994) translate(14.759259259259263 33.67916666666667)"/><use xlink:href="#z" transform="matrix(1,0,0,1,1135,84.99999999999994) translate(90.20370370370372 33.67916666666667)"/><use xlink:href="#A" transform="matrix(1,0,0,1,1135,84.99999999999994) translate(100.57407407407409 33.67916666666667)"/><use xlink:href="#w" transform="matrix(1,0,0,1,1135,84.99999999999994) translate(137.53703703703707 33.67916666666667)"/><use xlink:href="#B" transform="matrix(1,0,0,1,1135,84.99999999999994) translate(156.05555555555554 33.67916666666667)"/><use xlink:href="#C" transform="matrix(1,0,0,1,1135,84.99999999999994) translate(89.0925925925926 49.679166666666674)"/><path d="M1130 208a8 8 0 0 1 8-8h224a8 8 0 0 1 8 8v64a8 8 0 0 1-8 8h-224a8 8 0 0 1-8-8z" stroke="#333" fill="#fff"/><path d="M1154 200v80m192-80v80" stroke="#333" fill="none"/><use xlink:href="#D" transform="matrix(1,0,0,1,1165,205) translate(53.57407407407409 15.266666666666666)"/><use xlink:href="#E" transform="matrix(1,0,0,1,1165,205) translate(101.61111111111111 15.266666666666666)"/><use xlink:href="#F" transform="matrix(1,0,0,1,1165,205) translate(29.925925925925927 31.266666666666666)"/><use xlink:href="#G" transform="matrix(1,0,0,1,1165,205) translate(14.00000000000001 47.266666666666666)"/><use xlink:href="#z" transform="matrix(1,0,0,1,1165,205) translate(75.33333333333334 47.266666666666666)"/><use xlink:href="#H" transform="matrix(1,0,0,1,1165,205) translate(85.70370370370371 47.266666666666666)"/><use xlink:href="#w" transform="matrix(1,0,0,1,1165,205) translate(49.48148148148148 63.266666666666666)"/><use xlink:href="#I" transform="matrix(1,0,0,1,1165,205) translate(68 63.266666666666666)"/><path d="M1450 218a8 8 0 0 1 8-8h104a8 8 0 0 1 8 8v44a8 8 0 0 1-8 8h-104a8 8 0 0 1-8-8z" stroke="#333" fill="#fff"/><use xlink:href="#J" transform="matrix(1,0,0,1,1462,222) translate(20.240740740740737 16.116666666666667)"/><use xlink:href="#E" transform="matrix(1,0,0,1,1462,222) translate(60.944444444444436 16.116666666666667)"/><use xlink:href="#K" transform="matrix(1,0,0,1,1462,222) translate(22.12962962962963 32.11666666666667)"/><path d="M1370.95 240h62.2" stroke="#333" fill="none"/><path d="M1370.96 240.5h-.5v-1h.5z" stroke="#333" stroke-width=".05" fill="#333"/><path d="M1447.93 240l-14.27 4.64v-9.28z" stroke="#333" fill="#333"/><path d="M1410 312.07a8 8 0 0 1 8-8h184a8 8 0 0 1 8 8V377a8 8 0 0 1-8 8h-184a8 8 0 0 1-8-8z" stroke="#333" fill="#fff"/><use xlink:href="#D" transform="matrix(1,0,0,1,1422,316.0666666666666) translate(56.57407407407409 17.429166666666667)"/><use xlink:href="#E" transform="matrix(1,0,0,1,1422,316.0666666666666) translate(104.61111111111111 17.429166666666667)"/><use xlink:href="#L" transform="matrix(1,0,0,1,1422,316.0666666666666) translate(27.740740740740744 33.42916666666667)"/><use xlink:href="#M" transform="matrix(1,0,0,1,1422,316.0666666666666) translate(141.5925925925926 33.42916666666667)"/><use xlink:href="#N" transform="matrix(1,0,0,1,1422,316.0666666666666) translate(47.314814814814824 49.429166666666674)"/><use xlink:href="#O" transform="matrix(1,0,0,1,1422,316.0666666666666) translate(103.53703703703704 49.429166666666674)"/><path d="M1510 270.95v16.28" stroke="#333" fill="none"/><path d="M1510.5 270.96h-1v-.5h1z" stroke="#333" stroke-width=".05" fill="#333"/><path d="M1510 302l-4.64-14.27h9.28z" stroke="#333" fill="#333"/><path d="M1390 424.38a8 8 0 0 1 8-8h224a8 8 0 0 1 8 8v64.94a8 8 0 0 1-8 8h-224a8 8 0 0 1-8-8z" stroke="#333" fill="#fff"/><use xlink:href="#D" transform="matrix(1,0,0,1,1402,428.38181818181806) translate(14.462962962962973 24.554166666666667)"/><use xlink:href="#w" transform="matrix(1,0,0,1,1402,428.38181818181806) translate(62.5 24.554166666666667)"/><use xlink:href="#L" transform="matrix(1,0,0,1,1402,428.38181818181806) translate(81.01851851851852 24.554166666666667)"/><use xlink:href="#M" transform="matrix(1,0,0,1,1402,428.38181818181806) translate(194.87037037037038 24.554166666666667)"/><use xlink:href="#N" transform="matrix(1,0,0,1,1402,428.38181818181806) translate(31.425925925925934 40.55416666666667)"/><use xlink:href="#w" transform="matrix(1,0,0,1,1402,428.38181818181806) translate(87.64814814814815 40.55416666666667)"/><use xlink:href="#P" transform="matrix(1,0,0,1,1402,428.38181818181806) translate(106.16666666666667 40.55416666666667)"/><use xlink:href="#Q" transform="matrix(1,0,0,1,1402,428.38181818181806) translate(126.87037037037038 40.55416666666667)"/><path d="M1510 385.95v13.6" stroke="#333" fill="none"/><path d="M1510.5 385.96h-1v-.5h1z" stroke="#333" stroke-width=".05" fill="#333"/><path d="M1510 414.3l-4.64-14.25h9.28z" stroke="#333" fill="#333"/><path d="M1670 444.85a8 8 0 0 1 8-8h64a8 8 0 0 1 8 8v24a8 8 0 0 1-8 8h-64a8 8 0 0 1-8-8z" stroke="#333" fill="#fff"/><g><use xlink:href="#R" transform="matrix(1,0,0,1,1682,448.84848484848476) translate(13.574074074074073 14.929166666666667)"/></g><path d="M1630.95 456.85h22.21" stroke="#333" fill="none"/><path d="M1630.96 457.35h-.5v-1h.5z" stroke="#333" stroke-width=".05" fill="#333"/><path d="M1667.93 456.85l-14.27 4.63v-9.27z" stroke="#333" fill="#333"/><path d="M1250 280.95v58.58a5 5 0 0 0 5 5h138.16" stroke="#333" fill="none"/><path d="M1250.5 280.96h-1v-.5h1z" stroke="#333" stroke-width=".05" fill="#333"/><path d="M1407.93 344.53l-14.27 4.64v-9.27z" stroke="#333" fill="#333"/><path d="M1250 280.95v170.9a5 5 0 0 0 5 5h118.16" stroke="#333" fill="none"/><path d="M1250.5 280.96h-1v-.5h1z" stroke="#333" stroke-width=".05" fill="#333"/><path d="M1387.93 456.85l-14.27 4.63v-9.27z" stroke="#333" fill="#333"/><path d="M1250 158.74v24.43" stroke="#333" fill="none"/><path d="M1250.5 158.75h-1v-.4l1-.22z" stroke="#333" stroke-width=".05" fill="#333"/><path d="M1250 197.93l-4.63-14.26h9.27z" stroke="#333" fill="#333"/><path d="M1386.5 186.55h47v45.2h-47z" fill="#fff" fill-opacity="0"/><g><use xlink:href="#S" transform="matrix(1,0,0,1,1391.5,191.54545454545462) translate(1.4814814814814792 13.866666666666667)"/><use xlink:href="#T" transform="matrix(1,0,0,1,1391.5,191.54545454545462) translate(-10.31481481481482 29.866666666666667)"/></g><path d="M1523 274.06h47v20h-47z" fill="#fff" fill-opacity="0"/><g><use xlink:href="#U" transform="matrix(1,0,0,1,1528,279.06363636363653) translate(2.2407407407407387 13.866666666666667)"/></g><path d="M1290 314.9h47v20h-47z" fill="#fff" fill-opacity="0"/><g><use xlink:href="#V" transform="matrix(1,0,0,1,1295,319.889384719447) translate(-22.518518518518515 13.866666666666667)"/></g><path d="M1290 461.02h47v20h-47z" fill="#fff" fill-opacity="0"/><g><use xlink:href="#W" transform="matrix(1,0,0,1,1295,466.0181818181818) translate(-39.16666666666667 13.866666666666667)"/><use xlink:href="#T" transform="matrix(1,0,0,1,1295,466.0181818181818) translate(-10.31481481481482 29.866666666666667)"/></g><path d="M1650 475.96h47v20h-47z" fill="#fff" fill-opacity="0"/><g><use xlink:href="#X" transform="matrix(1,0,0,1,1655,480.96221388110325) translate(-8.500000000000004 13.866666666666667)"/><use xlink:href="#Q" transform="matrix(1,0,0,1,1655,480.96221388110325) translate(-10.351851851851858 29.866666666666667)"/></g><path d="M980.5 272.6H996a6 6 0 0 1 6 6V294a6 6 0 0 0 6 6h180.8a6 6 0 0 1 6 6v51.48a6 6 0 0 0 6 6h192.4M980.5 272.6h-.5" stroke="#282c33" fill="none"/><path d="M1407.96 363.48l-14.27 4.64v-9.27z" stroke="#282c33" fill="#282c33"/><path d="M1511 691.96l-.08 1.06-.26 1.07-.42 1-.57.94-.72.84-.83.7-.94.58-1.02.43-1.1.25-519.1.08-1.06-.1-1.06-.24-1.02-.44-.94-.57-.83-.72-.72-.84-.57-.94-.42-1-.27-1.12-.07-16.55h2l.07 16.3.18.74.3.72.4.66.52.6.6.5.66.42.73.3.76.18.82.07 518.78-.08.72-.17.73-.3.67-.4.6-.52.5-.6.4-.67.3-.73.2-.76.06-.8V498.76h2z" stroke="#5e5e5e" stroke-width=".05" fill="#5e5e5e"/><path d="M1511 498.8h-2v-1.03h2z" fill="#5e5e5e"/><path d="M1511.03 498.82h-2.06v-1.08h2.06zm-2-1.03v.97h1.94v-.98z" stroke="#5e5e5e" stroke-width=".05" fill="#5e5e5e"/><path d="M984.64 675.43h-9.28l4.64-14.27z" fill="#5e5e5e"/><path d="M986 676.43h-12l6-18.5zm-9.26-2h6.52L980 664.4zM1711 691.96l-.08 1.06-.26 1.07-.42 1-.57.94-.72.84-.83.7-.94.58-1.02.43-1.1.25-694.17.08-1.07-.1-1.07-.24-1.02-.44-.93-.57-.83-.72-.7-.84-.6-.94-.4-1-.27-1.12-.08-16.55h2l.08 16.3.17.74.3.72.4.66.52.6.6.5.66.42.72.3.76.18.82.07 693.86-.08.72-.17.73-.3.67-.4.6-.52.5-.6.4-.67.3-.73.2-.76.06-.8V478.3h2z" stroke="#5e5e5e" stroke-width=".05" fill="#5e5e5e"/><path d="M1711 478.33h-2v-1.03h2z" fill="#5e5e5e"/><path d="M1711.03 478.35h-2.06v-1.07h2.06zm-2-1.02v.97h1.94v-.98z" stroke="#5e5e5e" stroke-width=".05" fill="#5e5e5e"/><path d="M1009.56 675.43h-9.27l4.62-14.27z" fill="#5e5e5e"/><path d="M1010.94 676.43H998.9l6.02-18.5zm-9.27-2h6.5l-3.25-10.03z" stroke="#5e5e5e" stroke-width=".05" fill="#5e5e5e"/><defs><path d="M30-248c118-7 216 8 213 122C240-48 200 0 122 0H30v-248zM63-27c89 8 146-16 146-99s-60-101-146-95v194" id="Y"/><path d="M141-36C126-15 110 5 73 4 37 3 15-17 15-53c-1-64 63-63 125-63 3-35-9-54-41-54-24 1-41 7-42 31l-33-3c5-37 33-52 76-52 45 0 72 20 72 64v82c-1 20 7 32 28 27v20c-31 9-61-2-59-35zM48-53c0 20 12 33 32 33 41-3 63-29 60-74-43 2-92-5-92 41" id="Z"/><path d="M59-47c-2 24 18 29 38 22v24C64 9 27 4 27-40v-127H5v-23h24l9-43h21v43h35v23H59v120" id="aa"/><path d="M100-194c62-1 85 37 85 99 1 63-27 99-86 99S16-35 15-95c0-66 28-99 85-99zM99-20c44 1 53-31 53-75 0-43-8-75-51-75s-53 32-53 75 10 74 51 75" id="ab"/><path d="M135-143c-3-34-86-38-87 0 15 53 115 12 119 90S17 21 10-45l28-5c4 36 97 45 98 0-10-56-113-15-118-90-4-57 82-63 122-42 12 7 21 19 24 35" id="ac"/><g id="a"><use transform="matrix(0.04320987654320988,0,0,0.04320987654320988,0,0)" xlink:href="#Y"/><use transform="matrix(0.04320987654320988,0,0,0.04320987654320988,11.19135802469136,0)" xlink:href="#Z"/><use transform="matrix(0.04320987654320988,0,0,0.04320987654320988,19.833333333333336,0)" xlink:href="#aa"/><use transform="matrix(0.04320987654320988,0,0,0.04320987654320988,24.154320987654323,0)" xlink:href="#ab"/><use transform="matrix(0.04320987654320988,0,0,0.04320987654320988,32.7962962962963,0)" xlink:href="#ac"/></g><path d="M96-169c-40 0-48 33-48 73s9 75 48 75c24 0 41-14 43-38l32 2c-6 37-31 61-74 61-59 0-76-41-82-99-10-93 101-131 147-64 4 7 5 14 7 22l-32 3c-4-21-16-35-41-35" id="ad"/><path d="M114-163C36-179 61-72 57 0H25l-1-190h30c1 12-1 29 2 39 6-27 23-49 58-41v29" id="ae"/><path d="M84 4C-5 8 30-112 23-190h32v120c0 31 7 50 39 49 72-2 45-101 50-169h31l1 190h-30c-1-10 1-25-2-33-11 22-28 36-60 37" id="af"/><path d="M85-194c31 0 48 13 60 33l-1-100h32l1 261h-30c-2-10 0-23-3-31C134-8 116 4 85 4 32 4 16-35 15-94c0-66 23-100 70-100zm9 24c-40 0-46 34-46 75 0 40 6 74 45 74 42 0 51-32 51-76 0-42-9-74-50-73" id="ag"/><g id="b"><use transform="matrix(0.04320987654320988,0,0,0.04320987654320988,0,0)" xlink:href="#ad"/><use transform="matrix(0.04320987654320988,0,0,0.04320987654320988,7.777777777777779,0)" xlink:href="#ae"/><use transform="matrix(0.04320987654320988,0,0,0.04320987654320988,12.919753086419751,0)" xlink:href="#af"/><use transform="matrix(0.04320987654320988,0,0,0.04320987654320988,21.561728395061728,0)" xlink:href="#ag"/><use transform="matrix(0.04320987654320988,0,0,0.04320987654320988,30.203703703703702,0)" xlink:href="#ab"/><use transform="matrix(0.04320987654320988,0,0,0.04320987654320988,38.84567901234568,0)" xlink:href="#ac"/></g><path d="M100-194c63 0 86 42 84 106H49c0 40 14 67 53 68 26 1 43-12 49-29l28 8c-11 28-37 45-77 45C44 4 14-33 15-96c1-61 26-98 85-98zm52 81c6-60-76-77-97-28-3 7-6 17-6 28h103" id="ah"/><path d="M24 0v-261h32V0H24" id="ai"/><g id="c"><use transform="matrix(0.04320987654320988,0,0,0.04320987654320988,0,0)" xlink:href="#ag"/><use transform="matrix(0.04320987654320988,0,0,0.04320987654320988,8.641975308641976,0)" xlink:href="#ah"/><use transform="matrix(0.04320987654320988,0,0,0.04320987654320988,17.283950617283953,0)" xlink:href="#ai"/></g><path d="M30 0v-248h33v221h125V0H30" id="aj"/><path d="M33 0v-248h34V0H33" id="ak"/><path d="M205 0l-28-72H64L36 0H1l101-248h38L239 0h-34zm-38-99l-47-123c-12 45-31 82-46 123h93" id="al"/><path d="M233-177c-1 41-23 64-60 70L243 0h-38l-65-103H63V0H30v-248c88 3 205-21 203 71zM63-129c60-2 137 13 137-47 0-61-80-42-137-45v92" id="am"/><g id="d"><use transform="matrix(0.04320987654320988,0,0,0.04320987654320988,0,0)" xlink:href="#aj"/><use transform="matrix(0.04320987654320988,0,0,0.04320987654320988,8.641975308641976,0)" xlink:href="#ak"/><use transform="matrix(0.04320987654320988,0,0,0.04320987654320988,12.962962962962964,0)" xlink:href="#Y"/><use transform="matrix(0.04320987654320988,0,0,0.04320987654320988,24.154320987654323,0)" xlink:href="#al"/><use transform="matrix(0.04320987654320988,0,0,0.04320987654320988,34.5246913580247,0)" xlink:href="#am"/></g><path d="M30-248c87 1 191-15 191 75 0 78-77 80-158 76V0H30v-248zm33 125c57 0 124 11 124-50 0-59-68-47-124-48v98" id="an"/><path d="M16-82v-28h88v28H16" id="ao"/><path d="M115-194c55 1 70 41 70 98S169 2 115 4C84 4 66-9 55-30l1 105H24l-1-265h31l2 30c10-21 28-34 59-34zm-8 174c40 0 45-34 45-75s-6-73-45-74c-42 0-51 32-51 76 0 43 10 73 51 73" id="ap"/><path d="M210-169c-67 3-38 105-44 169h-31v-121c0-29-5-50-35-48C34-165 62-65 56 0H25l-1-190h30c1 10-1 24 2 32 10-44 99-50 107 0 11-21 27-35 58-36 85-2 47 119 55 194h-31v-121c0-29-5-49-35-48" id="aq"/><path d="M24-231v-30h32v30H24zM24 0v-190h32V0H24" id="ar"/><path d="M117-194c89-4 53 116 60 194h-32v-121c0-31-8-49-39-48C34-167 62-67 57 0H25l-1-190h30c1 10-1 24 2 32 11-22 29-35 61-36" id="as"/><g id="e"><use transform="matrix(0.04320987654320988,0,0,0.04320987654320988,0,0)" xlink:href="#an"/><use transform="matrix(0.04320987654320988,0,0,0.04320987654320988,10.370370370370372,0)" xlink:href="#ae"/><use transform="matrix(0.04320987654320988,0,0,0.04320987654320988,15.512345679012347,0)" xlink:href="#ah"/><use transform="matrix(0.04320987654320988,0,0,0.04320987654320988,24.154320987654323,0)" xlink:href="#ao"/><use transform="matrix(0.04320987654320988,0,0,0.04320987654320988,29.296296296296298,0)" xlink:href="#ap"/><use transform="matrix(0.04320987654320988,0,0,0.04320987654320988,37.93827160493827,0)" xlink:href="#ae"/><use transform="matrix(0.04320987654320988,0,0,0.04320987654320988,43.08024691358025,0)" xlink:href="#ab"/><use transform="matrix(0.04320987654320988,0,0,0.04320987654320988,51.722222222222214,0)" xlink:href="#ad"/><use transform="matrix(0.04320987654320988,0,0,0.04320987654320988,59.49999999999999,0)" xlink:href="#ah"/><use transform="matrix(0.04320987654320988,0,0,0.04320987654320988,68.14197530864197,0)" xlink:href="#ac"/><use transform="matrix(0.04320987654320988,0,0,0.04320987654320988,75.91975308641975,0)" xlink:href="#Z"/><use transform="matrix(0.04320987654320988,0,0,0.04320987654320988,84.56172839506172,0)" xlink:href="#aq"/><use transform="matrix(0.04320987654320988,0,0,0.04320987654320988,97.48148148148147,0)" xlink:href="#ar"/><use transform="matrix(0.04320987654320988,0,0,0.04320987654320988,100.89506172839508,0)" xlink:href="#ah"/><use transform="matrix(0.04320987654320988,0,0,0.04320987654320988,109.53703703703702,0)" xlink:href="#as"/><use transform="matrix(0.04320987654320988,0,0,0.04320987654320988,118.179012345679,0)" xlink:href="#aa"/><use transform="matrix(0.04320987654320988,0,0,0.04320987654320988,122.5,0)" xlink:href="#ab"/></g><path d="M108 0H70L1-190h34L89-25l56-165h34" id="at"/><path d="M100-194c62-1 85 37 85 99 1 63-27 99-86 99S16-35 15-95c0-66 28-99 85-99zM99-20c44 1 53-31 53-75 0-43-8-75-51-75s-53 32-53 75 10 74 51 75zM76-211c8-23 27-35 38-54h36v5l-58 49H76" id="au"/><g id="f"><use transform="matrix(0.04320987654320988,0,0,0.04320987654320988,0,0)" xlink:href="#ak"/><use transform="matrix(0.04320987654320988,0,0,0.04320987654320988,4.320987654320988,0)" xlink:href="#as"/><use transform="matrix(0.04320987654320988,0,0,0.04320987654320988,12.962962962962964,0)" xlink:href="#at"/><use transform="matrix(0.04320987654320988,0,0,0.04320987654320988,20.740740740740744,0)" xlink:href="#ah"/><use transform="matrix(0.04320987654320988,0,0,0.04320987654320988,29.382716049382726,0)" xlink:href="#ae"/><use transform="matrix(0.04320987654320988,0,0,0.04320987654320988,34.5246913580247,0)" xlink:href="#ac"/><use transform="matrix(0.04320987654320988,0,0,0.04320987654320988,42.302469135802475,0)" xlink:href="#ar"/><use transform="matrix(0.04320987654320988,0,0,0.04320987654320988,45.71604938271605,0)" xlink:href="#au"/><use transform="matrix(0.04320987654320988,0,0,0.04320987654320988,54.35802469135803,0)" xlink:href="#as"/></g><path d="M141-36C126-15 110 5 73 4 37 3 15-17 15-53c-1-64 63-63 125-63 3-35-9-54-41-54-24 1-41 7-42 31l-33-3c5-37 33-52 76-52 45 0 72 20 72 64v82c-1 20 7 32 28 27v20c-31 9-61-2-59-35zM48-53c0 20 12 33 32 33 41-3 63-29 60-74-43 2-92-5-92 41zm25-158c8-23 27-35 38-54h36v5l-58 49H73" id="av"/><path d="M33-154v-36h34v36H33zM33 0v-36h34V0H33" id="aw"/><g id="g"><use transform="matrix(0.04320987654320988,0,0,0.04320987654320988,0,0)" xlink:href="#aq"/><use transform="matrix(0.04320987654320988,0,0,0.04320987654320988,12.919753086419755,0)" xlink:href="#Z"/><use transform="matrix(0.04320987654320988,0,0,0.04320987654320988,21.56172839506173,0)" xlink:href="#aa"/><use transform="matrix(0.04320987654320988,0,0,0.04320987654320988,25.88271604938272,0)" xlink:href="#ah"/><use transform="matrix(0.04320987654320988,0,0,0.04320987654320988,34.5246913580247,0)" xlink:href="#aq"/><use transform="matrix(0.04320987654320988,0,0,0.04320987654320988,47.44444444444445,0)" xlink:href="#av"/><use transform="matrix(0.04320987654320988,0,0,0.04320987654320988,56.086419753086425,0)" xlink:href="#aa"/><use transform="matrix(0.04320987654320988,0,0,0.04320987654320988,60.40740740740741,0)" xlink:href="#ar"/><use transform="matrix(0.04320987654320988,0,0,0.04320987654320988,63.820987654320994,0)" xlink:href="#ad"/><use transform="matrix(0.04320987654320988,0,0,0.04320987654320988,71.59876543209877,0)" xlink:href="#Z"/><use transform="matrix(0.04320987654320988,0,0,0.04320987654320988,80.24074074074075,0)" xlink:href="#aw"/></g><path d="M100-194c63 0 86 42 84 106H49c0 40 14 67 53 68 26 1 43-12 49-29l28 8c-11 28-37 45-77 45C44 4 14-33 15-96c1-61 26-98 85-98zm52 81c6-60-76-77-97-28-3 7-6 17-6 28h103zm-74-98c8-23 27-35 38-54h36v5l-58 49H78" id="ax"/><g id="h"><use transform="matrix(0.04320987654320988,0,0,0.04320987654320988,0,0)" xlink:href="#aq"/><use transform="matrix(0.04320987654320988,0,0,0.04320987654320988,12.919753086419755,0)" xlink:href="#ax"/><use transform="matrix(0.04320987654320988,0,0,0.04320987654320988,21.56172839506173,0)" xlink:href="#aa"/><use transform="matrix(0.04320987654320988,0,0,0.04320987654320988,25.88271604938272,0)" xlink:href="#ab"/><use transform="matrix(0.04320987654320988,0,0,0.04320987654320988,34.5246913580247,0)" xlink:href="#ag"/><use transform="matrix(0.04320987654320988,0,0,0.04320987654320988,43.16666666666667,0)" xlink:href="#ab"/></g><path d="M194 0L95-120 63-95V0H30v-248h33v124l119-124h40L117-140 236 0h-42" id="ay"/><path d="M63-220v92h138v28H63V0H30v-248h175v28H63" id="az"/><path d="M185-189c-5-48-123-54-124 2 14 75 158 14 163 119 3 78-121 87-175 55-17-10-28-26-33-46l33-7c5 56 141 63 141-1 0-78-155-14-162-118-5-82 145-84 179-34 5 7 8 16 11 25" id="aA"/><g id="i"><use transform="matrix(0.04320987654320988,0,0,0.04320987654320988,0,0)" xlink:href="#ay"/><use transform="matrix(0.04320987654320988,0,0,0.04320987654320988,10.370370370370372,0)" xlink:href="#az"/><use transform="matrix(0.04320987654320988,0,0,0.04320987654320988,19.833333333333336,0)" xlink:href="#aA"/></g><path d="M107 61C57 61 25 39 23-9c-2-65 71-58 78-115h30c1 64-76 54-76 114 0 30 21 42 52 43 32 0 53-17 56-46l32 2c-6 46-36 72-88 72zm26-251v35H99v-35h34" id="aB"/><g id="j"><use transform="matrix(0.04320987654320988,0,0,0.04320987654320988,0,0)" xlink:href="#aB"/><use transform="matrix(0.04320987654320988,0,0,0.04320987654320988,9.462962962962964,0)" xlink:href="#am"/><use transform="matrix(0.04320987654320988,0,0,0.04320987654320988,20.654320987654323,0)" xlink:href="#ah"/><use transform="matrix(0.04320987654320988,0,0,0.04320987654320988,29.296296296296298,0)" xlink:href="#ad"/><use transform="matrix(0.04320987654320988,0,0,0.04320987654320988,37.074074074074076,0)" xlink:href="#af"/><use transform="matrix(0.04320987654320988,0,0,0.04320987654320988,45.71604938271605,0)" xlink:href="#ap"/><use transform="matrix(0.04320987654320988,0,0,0.04320987654320988,54.35802469135802,0)" xlink:href="#ah"/><use transform="matrix(0.04320987654320988,0,0,0.04320987654320988,63,0)" xlink:href="#ae"/><use transform="matrix(0.04320987654320988,0,0,0.04320987654320988,68.14197530864197,0)" xlink:href="#Z"/><use transform="matrix(0.04320987654320988,0,0,0.04320987654320988,76.78395061728395,0)" xlink:href="#ae"/></g><path d="M9 0v-24l116-142H16v-24h144v24L44-24h123V0H9" id="aC"/><path d="M103-251c84 0 111 97 45 133-19 10-37 24-39 52H78c0-63 77-55 77-114 0-30-21-42-52-43-32 0-53 17-56 46l-32-2c7-45 34-72 88-72zM77 0v-35h34V0H77" id="aD"/><g id="k"><use transform="matrix(0.04320987654320988,0,0,0.04320987654320988,0,0)" xlink:href="#ag"/><use transform="matrix(0.04320987654320988,0,0,0.04320987654320988,8.641975308641976,0)" xlink:href="#ah"/><use transform="matrix(0.04320987654320988,0,0,0.04320987654320988,17.283950617283953,0)" xlink:href="#ap"/><use transform="matrix(0.04320987654320988,0,0,0.04320987654320988,25.925925925925927,0)" xlink:href="#ab"/><use transform="matrix(0.04320987654320988,0,0,0.04320987654320988,34.567901234567906,0)" xlink:href="#ai"/><use transform="matrix(0.04320987654320988,0,0,0.04320987654320988,37.98148148148149,0)" xlink:href="#Z"/><use transform="matrix(0.04320987654320988,0,0,0.04320987654320988,46.62345679012346,0)" xlink:href="#ae"/><use transform="matrix(0.04320987654320988,0,0,0.04320987654320988,51.76543209876544,0)" xlink:href="#ar"/><use transform="matrix(0.04320987654320988,0,0,0.04320987654320988,55.17901234567902,0)" xlink:href="#aC"/><use transform="matrix(0.04320987654320988,0,0,0.04320987654320988,62.9567901234568,0)" xlink:href="#Z"/><use transform="matrix(0.04320987654320988,0,0,0.04320987654320988,71.59876543209877,0)" xlink:href="#ad"/><use transform="matrix(0.04320987654320988,0,0,0.04320987654320988,79.37654320987656,0)" xlink:href="#ar"/><use transform="matrix(0.04320987654320988,0,0,0.04320987654320988,82.79012345679014,0)" xlink:href="#au"/><use transform="matrix(0.04320987654320988,0,0,0.04320987654320988,91.4320987654321,0)" xlink:href="#as"/><use transform="matrix(0.04320987654320988,0,0,0.04320987654320988,100.07407407407409,0)" xlink:href="#aD"/></g><path d="M212-179c-10-28-35-45-73-45-59 0-87 40-87 99 0 60 29 101 89 101 43 0 62-24 78-52l27 14C228-24 195 4 139 4 59 4 22-46 18-125c-6-104 99-153 187-111 19 9 31 26 39 46" id="aE"/><path d="M115-194c53 0 69 39 70 98 0 66-23 100-70 100C84 3 66-7 56-30L54 0H23l1-261h32v101c10-23 28-34 59-34zm-8 174c40 0 45-34 45-75 0-40-5-75-45-74-42 0-51 32-51 76 0 43 10 73 51 73" id="aF"/><g id="l"><use transform="matrix(0.04320987654320988,0,0,0.04320987654320988,0,0)" xlink:href="#aE"/><use transform="matrix(0.04320987654320988,0,0,0.04320987654320988,11.19135802469136,0)" xlink:href="#Z"/><use transform="matrix(0.04320987654320988,0,0,0.04320987654320988,19.833333333333336,0)" xlink:href="#ai"/><use transform="matrix(0.04320987654320988,0,0,0.04320987654320988,23.246913580246915,0)" xlink:href="#ar"/><use transform="matrix(0.04320987654320988,0,0,0.04320987654320988,26.6604938271605,0)" xlink:href="#aF"/><use transform="matrix(0.04320987654320988,0,0,0.04320987654320988,35.302469135802475,0)" xlink:href="#ae"/><use transform="matrix(0.04320987654320988,0,0,0.04320987654320988,40.44444444444445,0)" xlink:href="#Z"/><use transform="matrix(0.04320987654320988,0,0,0.04320987654320988,49.086419753086425,0)" xlink:href="#ad"/><use transform="matrix(0.04320987654320988,0,0,0.04320987654320988,56.8641975308642,0)" xlink:href="#ar"/><use transform="matrix(0.04320987654320988,0,0,0.04320987654320988,60.277777777777786,0)" xlink:href="#au"/><use transform="matrix(0.04320987654320988,0,0,0.04320987654320988,68.91975308641976,0)" xlink:href="#as"/></g><g id="m"><use transform="matrix(0.04320987654320988,0,0,0.04320987654320988,0,0)" xlink:href="#an"/><use transform="matrix(0.04320987654320988,0,0,0.04320987654320988,10.370370370370372,0)" xlink:href="#ae"/><use transform="matrix(0.04320987654320988,0,0,0.04320987654320988,15.512345679012347,0)" xlink:href="#ab"/><use transform="matrix(0.04320987654320988,0,0,0.04320987654320988,24.154320987654323,0)" xlink:href="#ap"/><use transform="matrix(0.04320987654320988,0,0,0.04320987654320988,32.7962962962963,0)" xlink:href="#ar"/><use transform="matrix(0.04320987654320988,0,0,0.04320987654320988,36.20987654320988,0)" xlink:href="#ah"/><use transform="matrix(0.04320987654320988,0,0,0.04320987654320988,44.851851851851855,0)" xlink:href="#ag"/><use transform="matrix(0.04320987654320988,0,0,0.04320987654320988,53.49382716049383,0)" xlink:href="#Z"/><use transform="matrix(0.04320987654320988,0,0,0.04320987654320988,62.1358024691358,0)" xlink:href="#ag"/><use transform="matrix(0.04320987654320988,0,0,0.04320987654320988,70.77777777777779,0)" xlink:href="#ah"/><use transform="matrix(0.04320987654320988,0,0,0.04320987654320988,79.41975308641976,0)" xlink:href="#ac"/></g><g id="n"><use transform="matrix(0.04320987654320988,0,0,0.04320987654320988,0,0)" xlink:href="#au"/><use transform="matrix(0.04320987654320988,0,0,0.04320987654320988,8.641975308641976,0)" xlink:href="#ap"/><use transform="matrix(0.04320987654320988,0,0,0.04320987654320988,17.283950617283953,0)" xlink:href="#aa"/><use transform="matrix(0.04320987654320988,0,0,0.04320987654320988,21.60493827160494,0)" xlink:href="#ar"/><use transform="matrix(0.04320987654320988,0,0,0.04320987654320988,25.018518518518523,0)" xlink:href="#ad"/><use transform="matrix(0.04320987654320988,0,0,0.04320987654320988,32.7962962962963,0)" xlink:href="#Z"/><use transform="matrix(0.04320987654320988,0,0,0.04320987654320988,41.43827160493827,0)" xlink:href="#ac"/></g><g id="o"><use transform="matrix(0.04320987654320988,0,0,0.04320987654320988,0,0)" xlink:href="#ag"/><use transform="matrix(0.04320987654320988,0,0,0.04320987654320988,8.641975308641976,0)" xlink:href="#ah"/></g><g id="p"><use transform="matrix(0.04320987654320988,0,0,0.04320987654320988,0,0)" xlink:href="#Z"/><use transform="matrix(0.04320987654320988,0,0,0.04320987654320988,8.641975308641976,0)" xlink:href="#ah"/><use transform="matrix(0.04320987654320988,0,0,0.04320987654320988,17.283950617283953,0)" xlink:href="#ae"/><use transform="matrix(0.04320987654320988,0,0,0.04320987654320988,22.425925925925927,0)" xlink:href="#ab"/><use transform="matrix(0.04320987654320988,0,0,0.04320987654320988,31.067901234567906,0)" xlink:href="#ac"/><use transform="matrix(0.04320987654320988,0,0,0.04320987654320988,38.845679012345684,0)" xlink:href="#ab"/><use transform="matrix(0.04320987654320988,0,0,0.04320987654320988,47.48765432098766,0)" xlink:href="#ai"/><use transform="matrix(0.04320987654320988,0,0,0.04320987654320988,50.90123456790124,0)" xlink:href="#ah"/><use transform="matrix(0.04320987654320988,0,0,0.04320987654320988,59.543209876543216,0)" xlink:href="#ac"/></g><path d="M190 0L58-211 59 0H30v-248h39L202-35l-2-213h31V0h-41" id="aG"/><g id="q"><use transform="matrix(0.03703703703703704,0,0,0.03703703703703704,0,0)" xlink:href="#aG"/><use transform="matrix(0.03703703703703704,0,0,0.03703703703703704,9.592592592592593,0)" xlink:href="#ab"/></g><path d="M34 0v-190h32V0H34zM24-211c8-23 27-35 38-54h36v5l-58 49H24" id="aH"/><g id="r"><use transform="matrix(0.03703703703703704,0,0,0.03703703703703704,0,0)" xlink:href="#aA"/><use transform="matrix(0.03703703703703704,0,0,0.03703703703703704,8.88888888888889,0)" xlink:href="#aH"/></g><path d="M33 0v-38h34V0H33" id="aI"/><path d="M127-220V0H93v-220H8v-28h204v28h-85" id="aJ"/><path d="M195 0l-74-108L45 0H8l94-129-87-119h37l69 98 67-98h37l-84 118L233 0h-38" id="aK"/><g id="t"><use transform="matrix(0.03703703703703704,0,0,0.03703703703703704,0,0)" xlink:href="#aI"/><use transform="matrix(0.03703703703703704,0,0,0.03703703703703704,3.703703703703704,0)" xlink:href="#aJ"/><use transform="matrix(0.03703703703703704,0,0,0.03703703703703704,11.814814814814817,0)" xlink:href="#aK"/><use transform="matrix(0.03703703703703704,0,0,0.03703703703703704,20.703703703703706,0)" xlink:href="#aJ"/></g><g id="u"><use transform="matrix(0.03703703703703704,0,0,0.03703703703703704,0,0)" xlink:href="#ad"/><use transform="matrix(0.03703703703703704,0,0,0.03703703703703704,6.666666666666668,0)" xlink:href="#ab"/><use transform="matrix(0.03703703703703704,0,0,0.03703703703703704,14.074074074074076,0)" xlink:href="#as"/></g><path d="M101-234c-31-9-42 10-38 44h38v23H63V0H32v-167H5v-23h27c-7-52 17-82 69-68v24" id="aL"/><g id="v"><use transform="matrix(0.03703703703703704,0,0,0.03703703703703704,0,0)" xlink:href="#ap"/><use transform="matrix(0.03703703703703704,0,0,0.03703703703703704,7.407407407407408,0)" xlink:href="#ah"/><use transform="matrix(0.03703703703703704,0,0,0.03703703703703704,14.814814814814817,0)" xlink:href="#ae"/><use transform="matrix(0.03703703703703704,0,0,0.03703703703703704,19.222222222222225,0)" xlink:href="#aL"/><use transform="matrix(0.03703703703703704,0,0,0.03703703703703704,22.925925925925927,0)" xlink:href="#ar"/><use transform="matrix(0.03703703703703704,0,0,0.03703703703703704,25.85185185185186,0)" xlink:href="#ai"/><use transform="matrix(0.03703703703703704,0,0,0.03703703703703704,28.777777777777786,0)" xlink:href="#ah"/><use transform="matrix(0.03703703703703704,0,0,0.03703703703703704,36.18518518518519,0)" xlink:href="#ac"/></g><g id="w"><use transform="matrix(0.03703703703703704,0,0,0.03703703703703704,0,0)" xlink:href="#ag"/><use transform="matrix(0.03703703703703704,0,0,0.03703703703703704,7.407407407407408,0)" xlink:href="#ah"/></g><path d="M68-38c1 34 0 65-14 84H32c9-13 17-26 17-46H33v-38h35" id="aM"/><g id="x"><use transform="matrix(0.03703703703703704,0,0,0.03703703703703704,0,0)" xlink:href="#ap"/><use transform="matrix(0.03703703703703704,0,0,0.03703703703703704,7.407407407407408,0)" xlink:href="#ae"/><use transform="matrix(0.03703703703703704,0,0,0.03703703703703704,11.814814814814817,0)" xlink:href="#ah"/><use transform="matrix(0.03703703703703704,0,0,0.03703703703703704,19.222222222222225,0)" xlink:href="#ac"/><use transform="matrix(0.03703703703703704,0,0,0.03703703703703704,25.888888888888893,0)" xlink:href="#ar"/><use transform="matrix(0.03703703703703704,0,0,0.03703703703703704,28.81481481481482,0)" xlink:href="#au"/><use transform="matrix(0.03703703703703704,0,0,0.03703703703703704,36.22222222222223,0)" xlink:href="#as"/><use transform="matrix(0.03703703703703704,0,0,0.03703703703703704,43.62962962962963,0)" xlink:href="#aM"/></g><g id="y"><use transform="matrix(0.03703703703703704,0,0,0.03703703703703704,0,0)" xlink:href="#aa"/><use transform="matrix(0.03703703703703704,0,0,0.03703703703703704,3.703703703703704,0)" xlink:href="#ah"/><use transform="matrix(0.03703703703703704,0,0,0.03703703703703704,11.111111111111112,0)" xlink:href="#aq"/><use transform="matrix(0.03703703703703704,0,0,0.03703703703703704,22.185185185185194,0)" xlink:href="#ap"/><use transform="matrix(0.03703703703703704,0,0,0.03703703703703704,29.592592592592602,0)" xlink:href="#ah"/><use transform="matrix(0.03703703703703704,0,0,0.03703703703703704,37.00000000000001,0)" xlink:href="#ae"/><use transform="matrix(0.03703703703703704,0,0,0.03703703703703704,41.40740740740742,0)" xlink:href="#Z"/><use transform="matrix(0.03703703703703704,0,0,0.03703703703703704,48.814814814814824,0)" xlink:href="#aa"/><use transform="matrix(0.03703703703703704,0,0,0.03703703703703704,52.518518518518526,0)" xlink:href="#af"/><use transform="matrix(0.03703703703703704,0,0,0.03703703703703704,59.92592592592593,0)" xlink:href="#ae"/><use transform="matrix(0.03703703703703704,0,0,0.03703703703703704,64.33333333333334,0)" xlink:href="#Z"/></g><path d="M179-190L93 31C79 59 56 82 12 73V49c39 6 53-20 64-50L1-190h34L92-34l54-156h33" id="aN"/><use transform="matrix(0.03703703703703704,0,0,0.03703703703703704,0,0)" xlink:href="#aN" id="z"/><g id="A"><use transform="matrix(0.03703703703703704,0,0,0.03703703703703704,0,0)" xlink:href="#Z"/><use transform="matrix(0.03703703703703704,0,0,0.03703703703703704,7.407407407407408,0)" xlink:href="#ai"/><use transform="matrix(0.03703703703703704,0,0,0.03703703703703704,10.333333333333334,0)" xlink:href="#aa"/><use transform="matrix(0.03703703703703704,0,0,0.03703703703703704,14.037037037037038,0)" xlink:href="#af"/><use transform="matrix(0.03703703703703704,0,0,0.03703703703703704,21.44444444444445,0)" xlink:href="#ae"/><use transform="matrix(0.03703703703703704,0,0,0.03703703703703704,25.85185185185186,0)" xlink:href="#Z"/></g><g id="B"><use transform="matrix(0.03703703703703704,0,0,0.03703703703703704,0,0)" xlink:href="#Z"/><use transform="matrix(0.03703703703703704,0,0,0.03703703703703704,7.407407407407408,0)" xlink:href="#aa"/><use transform="matrix(0.03703703703703704,0,0,0.03703703703703704,11.111111111111112,0)" xlink:href="#aq"/><use transform="matrix(0.03703703703703704,0,0,0.03703703703703704,22.185185185185194,0)" xlink:href="#au"/><use transform="matrix(0.03703703703703704,0,0,0.03703703703703704,29.592592592592602,0)" xlink:href="#ac"/><use transform="matrix(0.03703703703703704,0,0,0.03703703703703704,36.25925925925927,0)" xlink:href="#aL"/><use transform="matrix(0.03703703703703704,0,0,0.03703703703703704,39.96296296296297,0)" xlink:href="#ah"/><use transform="matrix(0.03703703703703704,0,0,0.03703703703703704,47.37037037037039,0)" xlink:href="#ae"/><use transform="matrix(0.03703703703703704,0,0,0.03703703703703704,51.777777777777786,0)" xlink:href="#Z"/></g><g id="C"><use transform="matrix(0.03703703703703704,0,0,0.03703703703703704,0,0)" xlink:href="#ah"/><use transform="matrix(0.03703703703703704,0,0,0.03703703703703704,7.407407407407408,0)" xlink:href="#ac"/><use transform="matrix(0.03703703703703704,0,0,0.03703703703703704,14.074074074074076,0)" xlink:href="#aa"/><use transform="matrix(0.03703703703703704,0,0,0.03703703703703704,17.77777777777778,0)" xlink:href="#av"/><use transform="matrix(0.03703703703703704,0,0,0.03703703703703704,25.185185185185187,0)" xlink:href="#as"/><use transform="matrix(0.03703703703703704,0,0,0.03703703703703704,32.592592592592595,0)" xlink:href="#ag"/><use transform="matrix(0.03703703703703704,0,0,0.03703703703703704,40,0)" xlink:href="#Z"/><use transform="matrix(0.03703703703703704,0,0,0.03703703703703704,47.407407407407405,0)" xlink:href="#ae"/></g><g id="D"><use transform="matrix(0.03703703703703704,0,0,0.03703703703703704,0,0)" xlink:href="#aE"/><use transform="matrix(0.03703703703703704,0,0,0.03703703703703704,9.592592592592593,0)" xlink:href="#av"/><use transform="matrix(0.03703703703703704,0,0,0.03703703703703704,17,0)" xlink:href="#ai"/><use transform="matrix(0.03703703703703704,0,0,0.03703703703703704,19.925925925925927,0)" xlink:href="#ad"/><use transform="matrix(0.03703703703703704,0,0,0.03703703703703704,26.592592592592595,0)" xlink:href="#af"/><use transform="matrix(0.03703703703703704,0,0,0.03703703703703704,34,0)" xlink:href="#ai"/><use transform="matrix(0.03703703703703704,0,0,0.03703703703703704,36.925925925925924,0)" xlink:href="#ab"/></g><g id="E"><use transform="matrix(0.03703703703703704,0,0,0.03703703703703704,0,0)" xlink:href="#ag"/><use transform="matrix(0.03703703703703704,0,0,0.03703703703703704,7.407407407407408,0)" xlink:href="#ah"/></g><g id="F"><use transform="matrix(0.03703703703703704,0,0,0.03703703703703704,0,0)" xlink:href="#ae"/><use transform="matrix(0.03703703703703704,0,0,0.03703703703703704,4.407407407407408,0)" xlink:href="#ah"/><use transform="matrix(0.03703703703703704,0,0,0.03703703703703704,11.814814814814817,0)" xlink:href="#aa"/><use transform="matrix(0.03703703703703704,0,0,0.03703703703703704,15.51851851851852,0)" xlink:href="#ae"/><use transform="matrix(0.03703703703703704,0,0,0.03703703703703704,19.925925925925934,0)" xlink:href="#ab"/><use transform="matrix(0.03703703703703704,0,0,0.03703703703703704,27.333333333333343,0)" xlink:href="#ah"/><use transform="matrix(0.03703703703703704,0,0,0.03703703703703704,34.74074074074075,0)" xlink:href="#ac"/><use transform="matrix(0.03703703703703704,0,0,0.03703703703703704,41.40740740740742,0)" xlink:href="#ap"/><use transform="matrix(0.03703703703703704,0,0,0.03703703703703704,48.814814814814824,0)" xlink:href="#Z"/><use transform="matrix(0.03703703703703704,0,0,0.03703703703703704,56.22222222222223,0)" xlink:href="#ae"/><use transform="matrix(0.03703703703703704,0,0,0.03703703703703704,60.629629629629626,0)" xlink:href="#ad"/><use transform="matrix(0.03703703703703704,0,0,0.03703703703703704,67.2962962962963,0)" xlink:href="#ar"/><use transform="matrix(0.03703703703703704,0,0,0.03703703703703704,70.22222222222223,0)" xlink:href="#aq"/><use transform="matrix(0.03703703703703704,0,0,0.03703703703703704,81.2962962962963,0)" xlink:href="#ar"/><use transform="matrix(0.03703703703703704,0,0,0.03703703703703704,84.22222222222223,0)" xlink:href="#ah"/><use transform="matrix(0.03703703703703704,0,0,0.03703703703703704,91.62962962962965,0)" xlink:href="#as"/><use transform="matrix(0.03703703703703704,0,0,0.03703703703703704,99.03703703703704,0)" xlink:href="#aa"/><use transform="matrix(0.03703703703703704,0,0,0.03703703703703704,102.74074074074075,0)" xlink:href="#ab"/></g><g id="G"><use transform="matrix(0.03703703703703704,0,0,0.03703703703703704,0,0)" xlink:href="#aq"/><use transform="matrix(0.03703703703703704,0,0,0.03703703703703704,11.074074074074076,0)" xlink:href="#ab"/><use transform="matrix(0.03703703703703704,0,0,0.03703703703703704,18.481481481481485,0)" xlink:href="#ai"/><use transform="matrix(0.03703703703703704,0,0,0.03703703703703704,21.407407407407412,0)" xlink:href="#ah"/><use transform="matrix(0.03703703703703704,0,0,0.03703703703703704,28.81481481481482,0)" xlink:href="#ad"/><use transform="matrix(0.03703703703703704,0,0,0.03703703703703704,35.48148148148149,0)" xlink:href="#af"/><use transform="matrix(0.03703703703703704,0,0,0.03703703703703704,42.8888888888889,0)" xlink:href="#ai"/><use transform="matrix(0.03703703703703704,0,0,0.03703703703703704,45.814814814814824,0)" xlink:href="#Z"/><use transform="matrix(0.03703703703703704,0,0,0.03703703703703704,53.22222222222223,0)" xlink:href="#ae"/></g><g id="H"><use transform="matrix(0.03703703703703704,0,0,0.03703703703703704,0,0)" xlink:href="#ad"/><use transform="matrix(0.03703703703703704,0,0,0.03703703703703704,6.666666666666668,0)" xlink:href="#ab"/><use transform="matrix(0.03703703703703704,0,0,0.03703703703703704,14.074074074074076,0)" xlink:href="#ah"/><use transform="matrix(0.03703703703703704,0,0,0.03703703703703704,21.481481481481485,0)" xlink:href="#aL"/><use transform="matrix(0.03703703703703704,0,0,0.03703703703703704,25.185185185185187,0)" xlink:href="#ar"/><use transform="matrix(0.03703703703703704,0,0,0.03703703703703704,28.111111111111118,0)" xlink:href="#ad"/><use transform="matrix(0.03703703703703704,0,0,0.03703703703703704,34.777777777777786,0)" xlink:href="#ar"/><use transform="matrix(0.03703703703703704,0,0,0.03703703703703704,37.70370370370371,0)" xlink:href="#ah"/><use transform="matrix(0.03703703703703704,0,0,0.03703703703703704,45.111111111111114,0)" xlink:href="#as"/><use transform="matrix(0.03703703703703704,0,0,0.03703703703703704,52.51851851851852,0)" xlink:href="#aa"/><use transform="matrix(0.03703703703703704,0,0,0.03703703703703704,56.22222222222222,0)" xlink:href="#ah"/><use transform="matrix(0.03703703703703704,0,0,0.03703703703703704,63.629629629629626,0)" xlink:href="#ac"/></g><path d="M141 0L90-78 38 0H4l68-98-65-92h35l48 74 47-74h35l-64 92 68 98h-35" id="aO"/><g id="I"><use transform="matrix(0.03703703703703704,0,0,0.03703703703703704,0,0)" xlink:href="#ah"/><use transform="matrix(0.03703703703703704,0,0,0.03703703703703704,7.407407407407408,0)" xlink:href="#aO"/><use transform="matrix(0.03703703703703704,0,0,0.03703703703703704,14.074074074074076,0)" xlink:href="#aa"/><use transform="matrix(0.03703703703703704,0,0,0.03703703703703704,17.77777777777778,0)" xlink:href="#ar"/><use transform="matrix(0.03703703703703704,0,0,0.03703703703703704,20.703703703703706,0)" xlink:href="#as"/><use transform="matrix(0.03703703703703704,0,0,0.03703703703703704,28.111111111111114,0)" xlink:href="#ad"/><use transform="matrix(0.03703703703703704,0,0,0.03703703703703704,34.777777777777786,0)" xlink:href="#ar"/><use transform="matrix(0.03703703703703704,0,0,0.03703703703703704,37.70370370370371,0)" xlink:href="#au"/><use transform="matrix(0.03703703703703704,0,0,0.03703703703703704,45.111111111111114,0)" xlink:href="#as"/></g><path d="M24-231v-30h32v30H24zM-9 49c24 4 33-6 33-30v-209h32V24c2 40-23 58-65 49V49" id="aP"/><g id="J"><use transform="matrix(0.03703703703703704,0,0,0.03703703703703704,0,0)" xlink:href="#al"/><use transform="matrix(0.03703703703703704,0,0,0.03703703703703704,8.88888888888889,0)" xlink:href="#aP"/><use transform="matrix(0.03703703703703704,0,0,0.03703703703703704,11.814814814814817,0)" xlink:href="#af"/><use transform="matrix(0.03703703703703704,0,0,0.03703703703703704,19.222222222222225,0)" xlink:href="#ac"/><use transform="matrix(0.03703703703703704,0,0,0.03703703703703704,25.888888888888893,0)" xlink:href="#aa"/><use transform="matrix(0.03703703703703704,0,0,0.03703703703703704,29.592592592592595,0)" xlink:href="#ah"/></g><path d="M177-190C167-65 218 103 67 71c-23-6-38-20-44-43l32-5c15 47 100 32 89-28v-30C133-14 115 1 83 1 29 1 15-40 15-95c0-56 16-97 71-98 29-1 48 16 59 35 1-10 0-23 2-32h30zM94-22c36 0 50-32 50-73 0-42-14-75-50-75-39 0-46 34-46 75s6 73 46 73" id="aQ"/><path d="M106-169C34-169 62-67 57 0H25v-261h32l-1 103c12-21 28-36 61-36 89 0 53 116 60 194h-32v-121c2-32-8-49-39-48" id="aR"/><g id="K"><use transform="matrix(0.03703703703703704,0,0,0.03703703703703704,0,0)" xlink:href="#am"/><use transform="matrix(0.03703703703703704,0,0,0.03703703703703704,9.592592592592593,0)" xlink:href="#Z"/><use transform="matrix(0.03703703703703704,0,0,0.03703703703703704,17,0)" xlink:href="#aN"/><use transform="matrix(0.03703703703703704,0,0,0.03703703703703704,23.66666666666667,0)" xlink:href="#ai"/><use transform="matrix(0.03703703703703704,0,0,0.03703703703703704,26.592592592592595,0)" xlink:href="#ah"/><use transform="matrix(0.03703703703703704,0,0,0.03703703703703704,34,0)" xlink:href="#ar"/><use transform="matrix(0.03703703703703704,0,0,0.03703703703703704,36.925925925925924,0)" xlink:href="#aQ"/><use transform="matrix(0.03703703703703704,0,0,0.03703703703703704,44.33333333333333,0)" xlink:href="#aR"/></g><g id="L"><use transform="matrix(0.03703703703703704,0,0,0.03703703703703704,0,0)" xlink:href="#ae"/><use transform="matrix(0.03703703703703704,0,0,0.03703703703703704,4.407407407407408,0)" xlink:href="#ah"/><use transform="matrix(0.03703703703703704,0,0,0.03703703703703704,11.814814814814817,0)" xlink:href="#aa"/><use transform="matrix(0.03703703703703704,0,0,0.03703703703703704,15.51851851851852,0)" xlink:href="#ae"/><use transform="matrix(0.03703703703703704,0,0,0.03703703703703704,19.925925925925934,0)" xlink:href="#ab"/><use transform="matrix(0.03703703703703704,0,0,0.03703703703703704,27.333333333333343,0)" xlink:href="#ah"/><use transform="matrix(0.03703703703703704,0,0,0.03703703703703704,34.74074074074075,0)" xlink:href="#ac"/><use transform="matrix(0.03703703703703704,0,0,0.03703703703703704,41.40740740740742,0)" xlink:href="#ap"/><use transform="matrix(0.03703703703703704,0,0,0.03703703703703704,48.814814814814824,0)" xlink:href="#Z"/><use transform="matrix(0.03703703703703704,0,0,0.03703703703703704,56.22222222222223,0)" xlink:href="#ae"/><use transform="matrix(0.03703703703703704,0,0,0.03703703703703704,60.629629629629626,0)" xlink:href="#ad"/><use transform="matrix(0.03703703703703704,0,0,0.03703703703703704,67.2962962962963,0)" xlink:href="#ar"/><use transform="matrix(0.03703703703703704,0,0,0.03703703703703704,70.22222222222223,0)" xlink:href="#aq"/><use transform="matrix(0.03703703703703704,0,0,0.03703703703703704,81.2962962962963,0)" xlink:href="#ar"/><use transform="matrix(0.03703703703703704,0,0,0.03703703703703704,84.22222222222223,0)" xlink:href="#ah"/><use transform="matrix(0.03703703703703704,0,0,0.03703703703703704,91.62962962962965,0)" xlink:href="#as"/><use transform="matrix(0.03703703703703704,0,0,0.03703703703703704,99.03703703703704,0)" xlink:href="#aa"/><use transform="matrix(0.03703703703703704,0,0,0.03703703703703704,102.74074074074075,0)" xlink:href="#ab"/></g><use transform="matrix(0.03703703703703704,0,0,0.03703703703703704,0,0)" xlink:href="#aN" id="M"/><g id="N"><use transform="matrix(0.03703703703703704,0,0,0.03703703703703704,0,0)" xlink:href="#ah"/><use transform="matrix(0.03703703703703704,0,0,0.03703703703703704,7.407407407407408,0)" xlink:href="#aO"/><use transform="matrix(0.03703703703703704,0,0,0.03703703703703704,14.074074074074076,0)" xlink:href="#aa"/><use transform="matrix(0.03703703703703704,0,0,0.03703703703703704,17.77777777777778,0)" xlink:href="#ar"/><use transform="matrix(0.03703703703703704,0,0,0.03703703703703704,20.703703703703706,0)" xlink:href="#as"/><use transform="matrix(0.03703703703703704,0,0,0.03703703703703704,28.111111111111114,0)" xlink:href="#ad"/><use transform="matrix(0.03703703703703704,0,0,0.03703703703703704,34.777777777777786,0)" xlink:href="#ar"/><use transform="matrix(0.03703703703703704,0,0,0.03703703703703704,37.70370370370371,0)" xlink:href="#au"/><use transform="matrix(0.03703703703703704,0,0,0.03703703703703704,45.111111111111114,0)" xlink:href="#as"/></g><g id="O"><use transform="matrix(0.03703703703703704,0,0,0.03703703703703704,0,0)" xlink:href="#aa"/><use transform="matrix(0.03703703703703704,0,0,0.03703703703703704,3.703703703703704,0)" xlink:href="#ab"/><use transform="matrix(0.03703703703703704,0,0,0.03703703703703704,11.111111111111112,0)" xlink:href="#aa"/><use transform="matrix(0.03703703703703704,0,0,0.03703703703703704,14.814814814814817,0)" xlink:href="#Z"/><use transform="matrix(0.03703703703703704,0,0,0.03703703703703704,22.222222222222225,0)" xlink:href="#ai"/></g><g id="P"><use transform="matrix(0.03703703703703704,0,0,0.03703703703703704,0,0)" xlink:href="#ai"/><use transform="matrix(0.03703703703703704,0,0,0.03703703703703704,2.9259259259259265,0)" xlink:href="#ab"/><use transform="matrix(0.03703703703703704,0,0,0.03703703703703704,10.333333333333334,0)" xlink:href="#ac"/></g><g id="Q"><use transform="matrix(0.03703703703703704,0,0,0.03703703703703704,0,0)" xlink:href="#Z"/><use transform="matrix(0.03703703703703704,0,0,0.03703703703703704,7.407407407407408,0)" xlink:href="#ah"/><use transform="matrix(0.03703703703703704,0,0,0.03703703703703704,14.814814814814817,0)" xlink:href="#ae"/><use transform="matrix(0.03703703703703704,0,0,0.03703703703703704,19.222222222222225,0)" xlink:href="#ab"/><use transform="matrix(0.03703703703703704,0,0,0.03703703703703704,26.629629629629633,0)" xlink:href="#ac"/><use transform="matrix(0.03703703703703704,0,0,0.03703703703703704,33.296296296296305,0)" xlink:href="#ab"/><use transform="matrix(0.03703703703703704,0,0,0.03703703703703704,40.70370370370371,0)" xlink:href="#ai"/><use transform="matrix(0.03703703703703704,0,0,0.03703703703703704,43.62962962962963,0)" xlink:href="#ah"/><use transform="matrix(0.03703703703703704,0,0,0.03703703703703704,51.03703703703704,0)" xlink:href="#ac"/></g><path d="M140-251c81 0 123 46 123 126C263-46 219 4 140 4 59 4 17-45 17-125s42-126 123-126zm0 227c63 0 89-41 89-101s-29-99-89-99c-61 0-89 39-89 99S79-25 140-24" id="aS"/><g id="R"><use transform="matrix(0.03703703703703704,0,0,0.03703703703703704,0,0)" xlink:href="#al"/><use transform="matrix(0.03703703703703704,0,0,0.03703703703703704,8.88888888888889,0)" xlink:href="#aS"/><use transform="matrix(0.03703703703703704,0,0,0.03703703703703704,19.259259259259256,0)" xlink:href="#Y"/></g><path d="M118-194c89-4 53 116 60 194h-32v-121c0-31-8-49-39-48C35-167 63-67 58 0H26l-1-190h30c1 10-1 24 2 32 11-22 29-35 61-36zm47-64c-3 23-9 48-36 47-26-1-65-44-74 0H39c4-23 8-48 36-47s64 44 74 0h16" id="aT"/><g id="S"><use transform="matrix(0.03703703703703704,0,0,0.03703703703703704,0,0)" xlink:href="#aA"/><use transform="matrix(0.03703703703703704,0,0,0.03703703703703704,8.88888888888889,0)" xlink:href="#ah"/><use transform="matrix(0.03703703703703704,0,0,0.03703703703703704,16.296296296296298,0)" xlink:href="#aT"/><use transform="matrix(0.03703703703703704,0,0,0.03703703703703704,23.703703703703706,0)" xlink:href="#Z"/><use transform="matrix(0.03703703703703704,0,0,0.03703703703703704,31.111111111111114,0)" xlink:href="#ai"/></g><g id="T"><use transform="matrix(0.03703703703703704,0,0,0.03703703703703704,0,0)" xlink:href="#aq"/><use transform="matrix(0.03703703703703704,0,0,0.03703703703703704,11.074074074074076,0)" xlink:href="#ab"/><use transform="matrix(0.03703703703703704,0,0,0.03703703703703704,18.481481481481485,0)" xlink:href="#ai"/><use transform="matrix(0.03703703703703704,0,0,0.03703703703703704,21.407407407407412,0)" xlink:href="#ah"/><use transform="matrix(0.03703703703703704,0,0,0.03703703703703704,28.81481481481482,0)" xlink:href="#ad"/><use transform="matrix(0.03703703703703704,0,0,0.03703703703703704,35.48148148148149,0)" xlink:href="#af"/><use transform="matrix(0.03703703703703704,0,0,0.03703703703703704,42.8888888888889,0)" xlink:href="#ai"/><use transform="matrix(0.03703703703703704,0,0,0.03703703703703704,45.814814814814824,0)" xlink:href="#Z"/><use transform="matrix(0.03703703703703704,0,0,0.03703703703703704,53.22222222222223,0)" xlink:href="#ae"/></g><path d="M-5 72V49h209v23H-5" id="aU"/><g id="U"><use transform="matrix(0.03703703703703704,0,0,0.03703703703703704,0,0)" xlink:href="#am"/><use transform="matrix(0.03703703703703704,0,0,0.03703703703703704,9.592592592592593,0)" xlink:href="#aU"/><use transform="matrix(0.03703703703703704,0,0,0.03703703703703704,17,0)" xlink:href="#ae"/><use transform="matrix(0.03703703703703704,0,0,0.03703703703703704,21.407407407407412,0)" xlink:href="#ah"/><use transform="matrix(0.03703703703703704,0,0,0.03703703703703704,28.81481481481482,0)" xlink:href="#aL"/></g><g id="V"><use transform="matrix(0.03703703703703704,0,0,0.03703703703703704,0,0)" xlink:href="#aj"/><use transform="matrix(0.03703703703703704,0,0,0.03703703703703704,7.407407407407408,0)" xlink:href="#am"/><use transform="matrix(0.03703703703703704,0,0,0.03703703703703704,17,0)" xlink:href="#aU"/><use transform="matrix(0.03703703703703704,0,0,0.03703703703703704,24.407407407407405,0)" xlink:href="#aq"/><use transform="matrix(0.03703703703703704,0,0,0.03703703703703704,35.48148148148148,0)" xlink:href="#ab"/><use transform="matrix(0.03703703703703704,0,0,0.03703703703703704,42.888888888888886,0)" xlink:href="#ai"/><use transform="matrix(0.03703703703703704,0,0,0.03703703703703704,45.81481481481481,0)" xlink:href="#ah"/><use transform="matrix(0.03703703703703704,0,0,0.03703703703703704,53.222222222222214,0)" xlink:href="#ad"/><use transform="matrix(0.03703703703703704,0,0,0.03703703703703704,59.888888888888886,0)" xlink:href="#af"/><use transform="matrix(0.03703703703703704,0,0,0.03703703703703704,67.29629629629629,0)" xlink:href="#ai"/><use transform="matrix(0.03703703703703704,0,0,0.03703703703703704,70.22222222222221,0)" xlink:href="#Z"/><use transform="matrix(0.03703703703703704,0,0,0.03703703703703704,77.62962962962962,0)" xlink:href="#ae"/></g><g id="W"><use transform="matrix(0.03703703703703704,0,0,0.03703703703703704,0,0)" xlink:href="#am"/><use transform="matrix(0.03703703703703704,0,0,0.03703703703703704,9.592592592592593,0)" xlink:href="#ah"/><use transform="matrix(0.03703703703703704,0,0,0.03703703703703704,17,0)" xlink:href="#aa"/><use transform="matrix(0.03703703703703704,0,0,0.03703703703703704,20.703703703703702,0)" xlink:href="#ae"/><use transform="matrix(0.03703703703703704,0,0,0.03703703703703704,25.11111111111111,0)" xlink:href="#ab"/><use transform="matrix(0.03703703703703704,0,0,0.03703703703703704,32.51851851851852,0)" xlink:href="#ah"/><use transform="matrix(0.03703703703703704,0,0,0.03703703703703704,39.925925925925924,0)" xlink:href="#ac"/><use transform="matrix(0.03703703703703704,0,0,0.03703703703703704,46.592592592592595,0)" xlink:href="#ap"/><use transform="matrix(0.03703703703703704,0,0,0.03703703703703704,54,0)" xlink:href="#Z"/><use transform="matrix(0.03703703703703704,0,0,0.03703703703703704,61.407407407407405,0)" xlink:href="#ae"/><use transform="matrix(0.03703703703703704,0,0,0.03703703703703704,65.81481481481481,0)" xlink:href="#ad"/><use transform="matrix(0.03703703703703704,0,0,0.03703703703703704,72.48148148148148,0)" xlink:href="#ar"/><use transform="matrix(0.03703703703703704,0,0,0.03703703703703704,75.4074074074074,0)" xlink:href="#aq"/><use transform="matrix(0.03703703703703704,0,0,0.03703703703703704,86.48148148148148,0)" xlink:href="#ar"/><use transform="matrix(0.03703703703703704,0,0,0.03703703703703704,89.4074074074074,0)" xlink:href="#ah"/><use transform="matrix(0.03703703703703704,0,0,0.03703703703703704,96.81481481481481,0)" xlink:href="#as"/><use transform="matrix(0.03703703703703704,0,0,0.03703703703703704,104.22222222222221,0)" xlink:href="#aa"/><use transform="matrix(0.03703703703703704,0,0,0.03703703703703704,107.92592592592592,0)" xlink:href="#ab"/></g><path d="M30 0v-248h187v28H63v79h144v27H63v87h162V0H30" id="aV"/><g id="X"><use transform="matrix(0.03703703703703704,0,0,0.03703703703703704,0,0)" xlink:href="#aV"/><use transform="matrix(0.03703703703703704,0,0,0.03703703703703704,8.88888888888889,0)" xlink:href="#aO"/><use transform="matrix(0.03703703703703704,0,0,0.03703703703703704,15.555555555555557,0)" xlink:href="#aa"/><use transform="matrix(0.03703703703703704,0,0,0.03703703703703704,19.259259259259256,0)" xlink:href="#ar"/><use transform="matrix(0.03703703703703704,0,0,0.03703703703703704,22.185185185185187,0)" xlink:href="#as"/><use transform="matrix(0.03703703703703704,0,0,0.03703703703703704,29.592592592592595,0)" xlink:href="#ad"/><use transform="matrix(0.03703703703703704,0,0,0.03703703703703704,36.25925925925927,0)" xlink:href="#ar"/><use transform="matrix(0.03703703703703704,0,0,0.03703703703703704,39.18518518518519,0)" xlink:href="#au"/><use transform="matrix(0.03703703703703704,0,0,0.03703703703703704,46.592592592592595,0)" xlink:href="#as"/></g></defs></g></svg>